G04*
G04 #@! TF.GenerationSoftware,Altium Limited,Altium Designer,21.1.1 (26)*
G04*
G04 Layer_Physical_Order=3*
G04 Layer_Color=128*
%FSLAX25Y25*%
%MOIN*%
G70*
G04*
G04 #@! TF.SameCoordinates,D03CA9B7-62B2-491D-8750-CE627D1449E0*
G04*
G04*
G04 #@! TF.FilePolarity,Negative*
G04*
G01*
G75*
%ADD15C,0.01000*%
%ADD98C,0.04000*%
%ADD99C,0.05000*%
%ADD100C,0.05543*%
%ADD101C,0.04559*%
%ADD102O,0.06724X0.04362*%
%ADD103O,0.08693X0.04362*%
%ADD104C,0.02800*%
D15*
X382000Y421000D02*
Y435500D01*
X326000Y420500D02*
X360000D01*
X370000Y410500D01*
X378500D01*
X382000Y414000D01*
Y421000D01*
D98*
X326724Y320000D02*
G03*
X331724Y315000I5000J0D01*
G01*
X581724Y315000D02*
G03*
X586724Y320000I0J5000D01*
G01*
X586724Y430000D02*
G03*
X581724Y435000I-5000J0D01*
G01*
X331724Y435000D02*
G03*
X326724Y430000I0J-5000D01*
G01*
X331724Y315000D02*
X581724D01*
X581724Y315000D01*
X586724Y320000D02*
Y430000D01*
X586724Y430000D02*
X586724Y430000D01*
X331724Y435000D02*
X581724D01*
X331724Y435000D02*
X331724Y435000D01*
X326724Y320000D02*
Y430000D01*
D99*
X387500Y357500D02*
D03*
X397500Y347500D02*
D03*
X387500D02*
D03*
X526724Y430000D02*
D03*
X516724D02*
D03*
X506724D02*
D03*
X496724D02*
D03*
X526724Y320000D02*
D03*
X516724D02*
D03*
X506724D02*
D03*
X496724D02*
D03*
D100*
X576724Y430000D02*
D03*
X566724D02*
D03*
X556724D02*
D03*
X546724D02*
D03*
X536724D02*
D03*
X576724Y320000D02*
D03*
X566724D02*
D03*
X556724D02*
D03*
X546724D02*
D03*
X536724D02*
D03*
X366724Y430000D02*
D03*
X376724D02*
D03*
X386724D02*
D03*
X396724D02*
D03*
X406724D02*
D03*
X416724D02*
D03*
X426724D02*
D03*
X436724D02*
D03*
X446724D02*
D03*
X456724D02*
D03*
X466724D02*
D03*
X476724D02*
D03*
X486724D02*
D03*
X366724Y320000D02*
D03*
X376724D02*
D03*
X386724D02*
D03*
X396724D02*
D03*
X406724D02*
D03*
X416724D02*
D03*
X426724D02*
D03*
X436724D02*
D03*
X446724D02*
D03*
X456724D02*
D03*
X466724D02*
D03*
X476724D02*
D03*
X486724D02*
D03*
D101*
X351095Y386872D02*
D03*
Y409628D02*
D03*
Y340372D02*
D03*
Y363128D02*
D03*
D102*
X336724Y381242D02*
D03*
Y415258D02*
D03*
Y334742D02*
D03*
Y368758D02*
D03*
D103*
X353181Y381242D02*
D03*
Y415258D02*
D03*
Y334742D02*
D03*
Y368758D02*
D03*
D104*
X431000Y337500D02*
D03*
X426149Y344895D02*
D03*
Y347738D02*
D03*
X401500Y363000D02*
D03*
X400000Y342000D02*
D03*
X382000Y345500D02*
D03*
X387500Y342500D02*
D03*
X409454Y402079D02*
D03*
X576968Y362524D02*
D03*
X569000Y362547D02*
D03*
X584500D02*
D03*
Y340500D02*
D03*
X569000D02*
D03*
X576968Y340476D02*
D03*
X329500Y396500D02*
D03*
Y401500D02*
D03*
X332000Y399000D02*
D03*
Y404000D02*
D03*
X329500Y406500D02*
D03*
Y411500D02*
D03*
X332000Y409000D02*
D03*
Y394000D02*
D03*
Y389000D02*
D03*
X329500Y391500D02*
D03*
Y386500D02*
D03*
Y340000D02*
D03*
Y345000D02*
D03*
X332000Y342500D02*
D03*
Y347500D02*
D03*
Y362500D02*
D03*
X329500Y365000D02*
D03*
Y360000D02*
D03*
X332000Y357500D02*
D03*
Y352500D02*
D03*
X329500Y355000D02*
D03*
Y350000D02*
D03*
X437500Y406000D02*
D03*
X452500Y422000D02*
D03*
X422000D02*
D03*
X386000Y404000D02*
D03*
X391381Y398429D02*
D03*
X484500Y399500D02*
D03*
X481000D02*
D03*
X477500D02*
D03*
X503200Y344079D02*
D03*
X511000Y339500D02*
D03*
X495000Y367000D02*
D03*
X488500Y363500D02*
D03*
X501000Y368500D02*
D03*
Y375000D02*
D03*
Y380500D02*
D03*
Y384500D02*
D03*
X488000Y385500D02*
D03*
X492500Y381000D02*
D03*
X488000Y374500D02*
D03*
X493000Y375000D02*
D03*
X426000Y353000D02*
D03*
Y357500D02*
D03*
X422000Y350500D02*
D03*
X418000D02*
D03*
X422000Y355000D02*
D03*
X418000D02*
D03*
X370666Y393520D02*
D03*
X369198Y404567D02*
D03*
X397793Y415602D02*
D03*
X395500Y409500D02*
D03*
X409449Y399574D02*
D03*
X494504Y350996D02*
D03*
X496502Y336002D02*
D03*
X496500Y339500D02*
D03*
X491000Y354496D02*
D03*
X491002Y350998D02*
D03*
X487502Y354498D02*
D03*
X487500Y351000D02*
D03*
X484000Y354500D02*
D03*
X494507Y354493D02*
D03*
X489500Y346000D02*
D03*
X515424Y391402D02*
D03*
X532877Y371954D02*
D03*
X527924Y371902D02*
D03*
X530424Y374402D02*
D03*
X522000Y368000D02*
D03*
X525424Y374402D02*
D03*
X359500Y336000D02*
D03*
X362000D02*
D03*
Y341000D02*
D03*
X359500Y367500D02*
D03*
X362000D02*
D03*
Y362500D02*
D03*
X359500Y381500D02*
D03*
X362000D02*
D03*
Y384000D02*
D03*
Y386500D02*
D03*
Y389000D02*
D03*
Y412500D02*
D03*
X359500Y415000D02*
D03*
X362000D02*
D03*
X396000Y352500D02*
D03*
X467000Y410500D02*
D03*
X500500Y395500D02*
D03*
X469500Y346000D02*
D03*
X477650Y350000D02*
D03*
X490500Y339500D02*
D03*
X479500Y340000D02*
D03*
X462500D02*
D03*
X515000Y373500D02*
D03*
X524000Y365500D02*
D03*
X419500Y371500D02*
D03*
X401025Y417382D02*
D03*
X407541Y417294D02*
D03*
X441500Y373000D02*
D03*
X437500D02*
D03*
X442000Y403500D02*
D03*
X497000Y395500D02*
D03*
X431000Y334500D02*
D03*
X466500Y359000D02*
D03*
Y376500D02*
D03*
X425500Y362000D02*
D03*
X459000Y374000D02*
D03*
X463000Y362500D02*
D03*
X466500D02*
D03*
X463000Y366000D02*
D03*
X466500D02*
D03*
Y373000D02*
D03*
X463000D02*
D03*
X466500Y369500D02*
D03*
X463000Y376500D02*
D03*
Y369500D02*
D03*
X493500Y399000D02*
D03*
X497000D02*
D03*
X500500D02*
D03*
X481000Y396000D02*
D03*
X484500D02*
D03*
X477500D02*
D03*
X459000Y402700D02*
D03*
X443945Y374829D02*
D03*
X437500Y377000D02*
D03*
X446500Y399000D02*
D03*
Y403500D02*
D03*
X511500Y366500D02*
D03*
Y370000D02*
D03*
X484000Y351000D02*
D03*
X456500Y409500D02*
D03*
X515000Y359500D02*
D03*
X511500D02*
D03*
X515000Y363000D02*
D03*
X511500D02*
D03*
Y377000D02*
D03*
X515000Y370000D02*
D03*
Y366500D02*
D03*
X511500Y373500D02*
D03*
X515000Y377000D02*
D03*
X456500Y384000D02*
D03*
X382000Y351500D02*
D03*
Y354000D02*
D03*
X422000Y341500D02*
D03*
X362000Y338500D02*
D03*
X370000Y343000D02*
D03*
Y360500D02*
D03*
X362000Y365000D02*
D03*
X405754Y384095D02*
D03*
X379920Y399350D02*
D03*
X377144Y395137D02*
D03*
X375578Y390343D02*
D03*
X395500Y404500D02*
D03*
Y407000D02*
D03*
X397818Y375970D02*
D03*
X401000Y377787D02*
D03*
X378736Y417353D02*
D03*
X370478Y396945D02*
D03*
Y399445D02*
D03*
X467000Y340000D02*
D03*
X487000Y410000D02*
D03*
X471000Y410500D02*
D03*
X475500Y413000D02*
D03*
X512543Y407197D02*
D03*
X496771Y403851D02*
D03*
X511500Y404000D02*
D03*
X509500Y412000D02*
D03*
X499000D02*
D03*
X504134Y406312D02*
D03*
X537877Y376955D02*
D03*
X522924Y376902D02*
D03*
X527924D02*
D03*
X513000Y387900D02*
D03*
X517924Y388902D02*
D03*
X522924D02*
D03*
X527924D02*
D03*
X532924D02*
D03*
X548000Y383000D02*
D03*
X547877Y356955D02*
D03*
Y361954D02*
D03*
Y366954D02*
D03*
Y371954D02*
D03*
Y376955D02*
D03*
X547924Y388902D02*
D03*
Y393902D02*
D03*
Y398902D02*
D03*
X560377Y344455D02*
D03*
X557877Y341954D02*
D03*
X555377Y344455D02*
D03*
X552877Y346954D02*
D03*
Y341954D02*
D03*
X547877D02*
D03*
X550377Y344455D02*
D03*
X547877Y346954D02*
D03*
X545377Y344455D02*
D03*
X542877Y341954D02*
D03*
X540377Y344455D02*
D03*
X537877Y346954D02*
D03*
X559924Y411402D02*
D03*
X557424Y413902D02*
D03*
X554924Y411402D02*
D03*
X552424Y413902D02*
D03*
X547424Y408902D02*
D03*
X552424D02*
D03*
X549924Y411402D02*
D03*
X547424Y413902D02*
D03*
X544924Y411402D02*
D03*
X542424Y413902D02*
D03*
X539924Y411402D02*
D03*
X537424Y408902D02*
D03*
X535424Y406402D02*
D03*
X537924Y403902D02*
D03*
X535424Y401402D02*
D03*
Y396402D02*
D03*
X537924Y398902D02*
D03*
Y393902D02*
D03*
X535424Y391402D02*
D03*
X537924Y388902D02*
D03*
X540377Y349454D02*
D03*
X535377D02*
D03*
Y354454D02*
D03*
X537877Y351955D02*
D03*
Y356955D02*
D03*
X535377Y359454D02*
D03*
Y364455D02*
D03*
X537877Y366954D02*
D03*
Y361954D02*
D03*
X535377Y369455D02*
D03*
Y374454D02*
D03*
X537877Y371954D02*
D03*
X550424Y401402D02*
D03*
X539924Y406402D02*
D03*
X525424Y379402D02*
D03*
X555377Y354454D02*
D03*
X550377D02*
D03*
X535377Y379454D02*
D03*
X520424Y386402D02*
D03*
X525424D02*
D03*
X530424D02*
D03*
X535424D02*
D03*
X540424Y401402D02*
D03*
X545424D02*
D03*
X540424Y396402D02*
D03*
X545424D02*
D03*
Y391402D02*
D03*
X540424D02*
D03*
X545424Y386402D02*
D03*
X540424D02*
D03*
X545377Y379454D02*
D03*
X540377D02*
D03*
X545377Y374454D02*
D03*
X540377D02*
D03*
Y369455D02*
D03*
X545377D02*
D03*
Y354454D02*
D03*
X540377D02*
D03*
Y359454D02*
D03*
Y364455D02*
D03*
X545377Y359454D02*
D03*
Y364455D02*
D03*
X515500Y385400D02*
D03*
Y380400D02*
D03*
X510500Y385400D02*
D03*
X532175Y376792D02*
D03*
X518775D02*
D03*
M02*
