G04*
G04 #@! TF.GenerationSoftware,Altium Limited,Altium Designer,21.1.1 (26)*
G04*
G04 Layer_Physical_Order=4*
G04 Layer_Color=16711680*
%FSLAX25Y25*%
%MOIN*%
G70*
G04*
G04 #@! TF.SameCoordinates,D03CA9B7-62B2-491D-8750-CE627D1449E0*
G04*
G04*
G04 #@! TF.FilePolarity,Positive*
G04*
G01*
G75*
%ADD15C,0.01000*%
%ADD16C,0.00600*%
%ADD20C,0.00500*%
%ADD50R,0.19685X0.04724*%
%ADD89C,0.00750*%
%ADD91C,0.03000*%
%ADD92C,0.06693*%
%ADD93R,0.06693X0.06693*%
%ADD94C,0.02559*%
G04:AMPARAMS|DCode=95|XSize=39.37mil|YSize=62.99mil|CornerRadius=14.76mil|HoleSize=0mil|Usage=FLASHONLY|Rotation=270.000|XOffset=0mil|YOffset=0mil|HoleType=Round|Shape=RoundedRectangle|*
%AMROUNDEDRECTD95*
21,1,0.03937,0.03347,0,0,270.0*
21,1,0.00984,0.06299,0,0,270.0*
1,1,0.02953,-0.01673,-0.00492*
1,1,0.02953,-0.01673,0.00492*
1,1,0.02953,0.01673,0.00492*
1,1,0.02953,0.01673,-0.00492*
%
%ADD95ROUNDEDRECTD95*%
G04:AMPARAMS|DCode=96|XSize=39.37mil|YSize=82.68mil|CornerRadius=14.76mil|HoleSize=0mil|Usage=FLASHONLY|Rotation=270.000|XOffset=0mil|YOffset=0mil|HoleType=Round|Shape=RoundedRectangle|*
%AMROUNDEDRECTD96*
21,1,0.03937,0.05315,0,0,270.0*
21,1,0.00984,0.08268,0,0,270.0*
1,1,0.02953,-0.02657,-0.00492*
1,1,0.02953,-0.02657,0.00492*
1,1,0.02953,0.02657,0.00492*
1,1,0.02953,0.02657,-0.00492*
%
%ADD96ROUNDEDRECTD96*%
%ADD97C,0.01800*%
%ADD105C,0.04724*%
G36*
X582795Y433994D02*
X583792Y433581D01*
X584649Y432924D01*
X585306Y432068D01*
X585719Y431070D01*
X585797Y430478D01*
X585858Y430000D01*
X585858Y430000D01*
X585858Y429508D01*
Y320000D01*
X585859Y319994D01*
X585719Y318930D01*
X585306Y317932D01*
X584649Y317076D01*
X583792Y316419D01*
X582795Y316005D01*
X582202Y315928D01*
X581724Y315867D01*
X581724Y315867D01*
X581233Y315867D01*
X579258D01*
X579124Y316367D01*
X579393Y316522D01*
X580202Y317331D01*
X580775Y318322D01*
X581071Y319428D01*
Y319500D01*
X572378D01*
Y319428D01*
X572674Y318322D01*
X573246Y317331D01*
X574056Y316522D01*
X574325Y316367D01*
X574191Y315867D01*
X569258D01*
X569124Y316367D01*
X569393Y316522D01*
X570202Y317331D01*
X570775Y318322D01*
X571071Y319428D01*
Y319500D01*
X562378D01*
Y319428D01*
X562674Y318322D01*
X563246Y317331D01*
X564056Y316522D01*
X564325Y316367D01*
X564191Y315867D01*
X557512D01*
X557446Y316367D01*
X558151Y316556D01*
X558994Y317042D01*
X559682Y317730D01*
X560169Y318573D01*
X560421Y319513D01*
Y320487D01*
X560169Y321427D01*
X559682Y322270D01*
X558994Y322958D01*
X558151Y323445D01*
X557211Y323696D01*
X556238D01*
X555298Y323445D01*
X554455Y322958D01*
X553766Y322270D01*
X553280Y321427D01*
X553028Y320487D01*
Y319513D01*
X553280Y318573D01*
X553766Y317730D01*
X554455Y317042D01*
X555298Y316556D01*
X556002Y316367D01*
X555936Y315867D01*
X547512D01*
X547446Y316367D01*
X548151Y316556D01*
X548994Y317042D01*
X549682Y317730D01*
X550169Y318573D01*
X550421Y319513D01*
Y320487D01*
X550169Y321427D01*
X549682Y322270D01*
X548994Y322958D01*
X548151Y323445D01*
X547211Y323696D01*
X546238D01*
X545298Y323445D01*
X544455Y322958D01*
X543766Y322270D01*
X543280Y321427D01*
X543028Y320487D01*
Y319513D01*
X543280Y318573D01*
X543766Y317730D01*
X544455Y317042D01*
X545298Y316556D01*
X546002Y316367D01*
X545936Y315867D01*
X540573D01*
X540421Y316303D01*
X540421Y316367D01*
Y323696D01*
X533028D01*
Y316367D01*
X533028Y316303D01*
X532876Y315867D01*
X527512D01*
X527447Y316367D01*
X528151Y316556D01*
X528994Y317042D01*
X529682Y317730D01*
X530169Y318573D01*
X530421Y319513D01*
Y320487D01*
X530169Y321427D01*
X529682Y322270D01*
X528994Y322958D01*
X528151Y323445D01*
X527211Y323696D01*
X526238D01*
X525298Y323445D01*
X524455Y322958D01*
X523767Y322270D01*
X523280Y321427D01*
X523028Y320487D01*
Y319513D01*
X523280Y318573D01*
X523767Y317730D01*
X524455Y317042D01*
X525298Y316556D01*
X526002Y316367D01*
X525937Y315867D01*
X517512D01*
X517447Y316367D01*
X518151Y316556D01*
X518994Y317042D01*
X519682Y317730D01*
X520169Y318573D01*
X520421Y319513D01*
Y320487D01*
X520169Y321427D01*
X519682Y322270D01*
X518994Y322958D01*
X518151Y323445D01*
X517374Y323653D01*
Y328713D01*
X529459Y340798D01*
X529649Y341257D01*
Y368442D01*
X529459Y368901D01*
X524401Y373959D01*
X523942Y374149D01*
X516084D01*
X516060Y374208D01*
X515708Y374560D01*
X515249Y374750D01*
X514751D01*
X514292Y374560D01*
X513940Y374208D01*
X513750Y373749D01*
Y373251D01*
X513771Y373201D01*
X513465Y372634D01*
X513313Y372605D01*
X512726Y373193D01*
X512750Y373251D01*
Y373749D01*
X512560Y374208D01*
X512208Y374560D01*
X511749Y374750D01*
X511251D01*
X510792Y374560D01*
X510440Y374208D01*
X510250Y373749D01*
Y373251D01*
X510440Y372792D01*
X510792Y372440D01*
X511251Y372250D01*
X511749D01*
X511807Y372274D01*
X512891Y371191D01*
X513350Y371001D01*
X513580D01*
X513854Y370501D01*
X513750Y370249D01*
Y369751D01*
X513771Y369701D01*
X513465Y369134D01*
X513313Y369105D01*
X512726Y369693D01*
X512750Y369751D01*
Y370249D01*
X512560Y370708D01*
X512208Y371060D01*
X511749Y371250D01*
X511251D01*
X510792Y371060D01*
X510440Y370708D01*
X510250Y370249D01*
Y369751D01*
X510440Y369292D01*
X510792Y368940D01*
X511251Y368750D01*
X511749D01*
X511807Y368774D01*
X512891Y367691D01*
X513350Y367501D01*
X513580D01*
X513854Y367001D01*
X513750Y366749D01*
Y366251D01*
X513940Y365792D01*
X514292Y365440D01*
X514751Y365250D01*
X515249D01*
X515307Y365274D01*
X518588Y361994D01*
X518309Y361609D01*
X517850Y361799D01*
X516274D01*
X516060Y362292D01*
X516250Y362751D01*
Y363249D01*
X516060Y363708D01*
X515708Y364060D01*
X515249Y364250D01*
X514751D01*
X514706Y364231D01*
X513669Y365269D01*
X513454Y365412D01*
X513200Y365463D01*
X512884D01*
X512631Y365963D01*
X512750Y366251D01*
Y366749D01*
X512560Y367208D01*
X512208Y367560D01*
X511749Y367750D01*
X511251D01*
X510792Y367560D01*
X510440Y367208D01*
X510422Y367163D01*
X498774D01*
X489958Y375979D01*
X490246Y376388D01*
X490500Y376337D01*
X510422D01*
X510440Y376292D01*
X510792Y375940D01*
X511251Y375750D01*
X511749D01*
X512208Y375940D01*
X512560Y376292D01*
X512750Y376751D01*
Y377249D01*
X513094Y377726D01*
X513304Y377759D01*
X513769Y377294D01*
X513750Y377249D01*
Y376751D01*
X513940Y376292D01*
X514292Y375940D01*
X514751Y375750D01*
X515249D01*
X515708Y375940D01*
X516060Y376292D01*
X516250Y376751D01*
Y377249D01*
X516060Y377708D01*
X515708Y378060D01*
X515249Y378250D01*
X514751D01*
X514706Y378231D01*
X513769Y379169D01*
X513554Y379312D01*
X513300Y379363D01*
X511838D01*
X511702Y379571D01*
X511589Y379863D01*
X511750Y380251D01*
Y380749D01*
X511560Y381208D01*
X511208Y381560D01*
X510749Y381750D01*
X510251D01*
X509792Y381560D01*
X509440Y381208D01*
X509250Y380749D01*
Y380251D01*
X509411Y379863D01*
X509298Y379571D01*
X509162Y379363D01*
X491574D01*
X461141Y409796D01*
X460926Y409939D01*
X460673Y409990D01*
X457650D01*
X457560Y410208D01*
X457208Y410560D01*
X456749Y410750D01*
X456251D01*
X455792Y410560D01*
X455440Y410208D01*
X455250Y409749D01*
Y409251D01*
X455440Y408792D01*
X455792Y408440D01*
X456251Y408250D01*
X456749D01*
X457208Y408440D01*
X457432Y408665D01*
X460398D01*
X465342Y403721D01*
X465054Y403312D01*
X464800Y403363D01*
X460078D01*
X460060Y403408D01*
X459708Y403760D01*
X459249Y403950D01*
X458751D01*
X458292Y403760D01*
X457940Y403408D01*
X457750Y402949D01*
Y402451D01*
X457869Y402163D01*
X457616Y401663D01*
X450774D01*
X448469Y403969D01*
X448254Y404112D01*
X448000Y404163D01*
X447578D01*
X447560Y404208D01*
X447208Y404560D01*
X446749Y404750D01*
X446251D01*
X445792Y404560D01*
X445440Y404208D01*
X445250Y403749D01*
Y403251D01*
X445440Y402792D01*
X445792Y402440D01*
X446251Y402250D01*
X446749D01*
X447208Y402440D01*
X447560Y402792D01*
X447992Y402571D01*
X450031Y400531D01*
X450246Y400388D01*
X450500Y400337D01*
X463726D01*
X498031Y366031D01*
X498134Y365963D01*
X498015Y365463D01*
X493887D01*
X493633Y365412D01*
X493418Y365269D01*
X488742Y360592D01*
X488598Y360377D01*
X488548Y360124D01*
Y355873D01*
X488048Y355625D01*
X487751Y355748D01*
X487254D01*
X487208Y355729D01*
X486663Y356275D01*
Y376000D01*
X486612Y376254D01*
X486469Y376469D01*
X463469Y399469D01*
X463254Y399612D01*
X463000Y399663D01*
X449719D01*
X447913Y401469D01*
X447698Y401612D01*
X447444Y401663D01*
X444774D01*
X443231Y403206D01*
X443250Y403251D01*
Y403749D01*
X443060Y404208D01*
X442708Y404560D01*
X442249Y404750D01*
X441751D01*
X441292Y404560D01*
X440940Y404208D01*
X440916Y404149D01*
X436769D01*
X434649Y406269D01*
Y421731D01*
X435269Y422351D01*
X449724D01*
X450184Y422541D01*
X454601Y426958D01*
X455298Y426555D01*
X456238Y426303D01*
X457211D01*
X458151Y426555D01*
X458994Y427042D01*
X459682Y427730D01*
X460169Y428573D01*
X460421Y429513D01*
Y430487D01*
X460169Y431427D01*
X459682Y432270D01*
X458994Y432958D01*
X458151Y433444D01*
X457446Y433633D01*
X457512Y434133D01*
X465937D01*
X466002Y433633D01*
X465298Y433444D01*
X464455Y432958D01*
X463766Y432270D01*
X463280Y431427D01*
X463028Y430487D01*
Y429513D01*
X463280Y428573D01*
X463766Y427730D01*
X464455Y427042D01*
X465298Y426555D01*
X466075Y426347D01*
Y421993D01*
X461541Y417459D01*
X461351Y417000D01*
Y410868D01*
X461541Y410409D01*
X476160Y395790D01*
X476250Y395752D01*
Y395751D01*
X476440Y395292D01*
X476792Y394940D01*
X477251Y394750D01*
X477749D01*
X478208Y394940D01*
X478560Y395292D01*
X478750Y395751D01*
Y396249D01*
X478560Y396708D01*
X478208Y397060D01*
X477749Y397250D01*
X477251D01*
X476792Y397060D01*
X476759Y397027D01*
X475269Y398517D01*
X475477Y399017D01*
X476347D01*
X476440Y398792D01*
X476792Y398440D01*
X477251Y398250D01*
X477749D01*
X478001Y398354D01*
X478501Y398079D01*
Y397850D01*
X478691Y397391D01*
X479774Y396307D01*
X479750Y396249D01*
Y395751D01*
X479940Y395292D01*
X480292Y394940D01*
X480751Y394750D01*
X481249D01*
X481708Y394940D01*
X482060Y395292D01*
X482250Y395751D01*
Y396249D01*
X482060Y396708D01*
X481708Y397060D01*
X481249Y397250D01*
X480751D01*
X480693Y397226D01*
X480105Y397813D01*
X480134Y397965D01*
X480701Y398271D01*
X480751Y398250D01*
X481249D01*
X481708Y398440D01*
X482201Y398226D01*
Y397650D01*
X482391Y397191D01*
X483274Y396307D01*
X483250Y396249D01*
Y395751D01*
X483440Y395292D01*
X483792Y394940D01*
X484251Y394750D01*
X484749D01*
X485208Y394940D01*
X485560Y395292D01*
X485750Y395751D01*
Y396249D01*
X485560Y396708D01*
X485208Y397060D01*
X484749Y397250D01*
X484251D01*
X484193Y397226D01*
X483764Y397654D01*
X483799Y397902D01*
X484251Y398250D01*
X484749D01*
X485208Y398440D01*
X485560Y398792D01*
X485750Y399251D01*
Y399749D01*
X485560Y400208D01*
X485208Y400560D01*
X485149Y400584D01*
Y411731D01*
X489914Y416496D01*
X490300Y416272D01*
X490351Y416225D01*
Y397500D01*
X490541Y397041D01*
X492541Y395041D01*
X493000Y394851D01*
X495916D01*
X495940Y394792D01*
X496292Y394440D01*
X496751Y394250D01*
X497249D01*
X497708Y394440D01*
X498060Y394792D01*
X498250Y395251D01*
Y395749D01*
X498060Y396208D01*
X497708Y396560D01*
X497249Y396750D01*
X496751D01*
X496292Y396560D01*
X495940Y396208D01*
X495916Y396149D01*
X493269D01*
X491649Y397769D01*
Y398781D01*
X492149Y399021D01*
X492250Y398940D01*
Y398751D01*
X492440Y398292D01*
X492792Y397940D01*
X493251Y397750D01*
X493749D01*
X494208Y397940D01*
X494560Y398292D01*
X494750Y398751D01*
Y399249D01*
X494560Y399708D01*
X494208Y400060D01*
X493749Y400250D01*
X493251D01*
X493149Y400712D01*
Y401278D01*
X493649Y401432D01*
X495774Y399307D01*
X495750Y399249D01*
Y398751D01*
X495940Y398292D01*
X496292Y397940D01*
X496751Y397750D01*
X497249D01*
X497708Y397940D01*
X498060Y398292D01*
X498250Y398751D01*
Y399249D01*
X498060Y399708D01*
X497708Y400060D01*
X497249Y400250D01*
X496751D01*
X496693Y400226D01*
X494649Y402269D01*
Y414731D01*
X498269Y418351D01*
X524000D01*
X524459Y418541D01*
X528769Y422851D01*
X543500D01*
X543959Y423041D01*
X546363Y425444D01*
X546553Y425904D01*
Y426303D01*
X547211D01*
X548151Y426555D01*
X548994Y427042D01*
X549682Y427730D01*
X550169Y428573D01*
X550421Y429513D01*
Y430487D01*
X550169Y431427D01*
X549682Y432270D01*
X548994Y432958D01*
X548151Y433444D01*
X547446Y433633D01*
X547512Y434133D01*
X554191D01*
X554325Y433633D01*
X554056Y433478D01*
X553246Y432669D01*
X552674Y431678D01*
X552378Y430572D01*
Y430500D01*
X561071D01*
Y430572D01*
X560775Y431678D01*
X560202Y432669D01*
X559393Y433478D01*
X559124Y433633D01*
X559258Y434133D01*
X564191D01*
X564325Y433633D01*
X564056Y433478D01*
X563246Y432669D01*
X562674Y431678D01*
X562378Y430572D01*
Y430500D01*
X571071D01*
Y430572D01*
X570775Y431678D01*
X570202Y432669D01*
X569393Y433478D01*
X569124Y433633D01*
X569258Y434133D01*
X574191D01*
X574325Y433633D01*
X574056Y433478D01*
X573246Y432669D01*
X572674Y431678D01*
X572378Y430572D01*
Y430500D01*
X581071D01*
Y430572D01*
X580775Y431678D01*
X580202Y432669D01*
X579393Y433478D01*
X579124Y433633D01*
X579258Y434133D01*
X581724D01*
X581731Y434135D01*
X582795Y433994D01*
D02*
G37*
G36*
X386002Y433633D02*
X385298Y433444D01*
X384455Y432958D01*
X383767Y432270D01*
X383280Y431427D01*
X383028Y430487D01*
Y429513D01*
X383280Y428573D01*
X383767Y427730D01*
X384455Y427042D01*
X385298Y426555D01*
X386238Y426303D01*
X387211D01*
X388151Y426555D01*
X388848Y426958D01*
X392265Y423541D01*
X392724Y423351D01*
X404231D01*
X420744Y406838D01*
Y368897D01*
X420934Y368438D01*
X425622Y363750D01*
X425415Y363250D01*
X425251D01*
X424792Y363060D01*
X424440Y362708D01*
X424422Y362663D01*
X422638D01*
X422431Y363163D01*
X422560Y363292D01*
X422750Y363751D01*
Y364249D01*
X422560Y364708D01*
X422208Y365060D01*
X421749Y365250D01*
X421251D01*
X420792Y365060D01*
X420440Y364708D01*
X420250Y364249D01*
Y363751D01*
X420440Y363292D01*
X420570Y363163D01*
X420362Y362663D01*
X403212D01*
X402750Y362751D01*
Y363249D01*
X402560Y363708D01*
X402208Y364060D01*
X401749Y364250D01*
X401251D01*
X400792Y364060D01*
X400440Y363708D01*
X400250Y363249D01*
Y362877D01*
X399944Y362618D01*
X399792Y362552D01*
X399556Y362649D01*
X384209D01*
X383750Y362459D01*
X382272Y360982D01*
X382082Y360523D01*
Y355250D01*
X381751D01*
X381292Y355060D01*
X380940Y354708D01*
X380750Y354249D01*
Y353751D01*
X380940Y353292D01*
X381178Y353054D01*
X381248Y352750D01*
X381178Y352446D01*
X380940Y352208D01*
X380750Y351749D01*
Y351251D01*
X380940Y350792D01*
X381292Y350440D01*
X381751Y350250D01*
X382000Y350250D01*
Y349268D01*
X382000Y348768D01*
X382000D01*
X381925Y348312D01*
X381531Y347919D01*
X381388Y347704D01*
X381337Y347450D01*
Y346579D01*
X381292Y346560D01*
X380940Y346208D01*
X380750Y345749D01*
Y345251D01*
X380940Y344792D01*
X381292Y344440D01*
X381751Y344250D01*
X382249D01*
X382708Y344440D01*
X383060Y344792D01*
X383250Y345251D01*
Y345749D01*
X383060Y346208D01*
X382884Y346384D01*
X382932Y346432D01*
X382775Y347288D01*
X384889Y349402D01*
X385289Y349095D01*
X384973Y348547D01*
X384788Y347857D01*
Y347143D01*
X384973Y346453D01*
X385330Y345835D01*
X385835Y345330D01*
X386453Y344973D01*
X386837Y344870D01*
Y343579D01*
X386792Y343560D01*
X386440Y343208D01*
X386250Y342749D01*
Y342251D01*
X386440Y341792D01*
X386792Y341440D01*
X387251Y341250D01*
X387749D01*
X388208Y341440D01*
X388560Y341792D01*
X388750Y342251D01*
Y342749D01*
X388560Y343208D01*
X388208Y343560D01*
X388163Y343579D01*
Y344870D01*
X388547Y344973D01*
X389165Y345330D01*
X389670Y345835D01*
X390027Y346453D01*
X390212Y347143D01*
Y347857D01*
X390027Y348547D01*
X389670Y349165D01*
X389165Y349670D01*
X388547Y350027D01*
X387857Y350212D01*
X387143D01*
X386453Y350027D01*
X385905Y349711D01*
X385598Y350111D01*
X387558Y352071D01*
X387702Y352286D01*
X387752Y352540D01*
Y354788D01*
X387857D01*
X388547Y354973D01*
X389165Y355330D01*
X389670Y355835D01*
X390027Y356453D01*
X390212Y357143D01*
Y357857D01*
X390027Y358547D01*
X389670Y359165D01*
X389165Y359670D01*
X389026Y359751D01*
X389160Y360251D01*
X395840D01*
X395974Y359751D01*
X395835Y359670D01*
X395330Y359165D01*
X394973Y358547D01*
X394788Y357857D01*
Y357143D01*
X394973Y356453D01*
X395330Y355835D01*
X395835Y355330D01*
X396453Y354973D01*
X396633Y354924D01*
Y354217D01*
X396699Y353885D01*
X396887Y353604D01*
X397750Y352741D01*
Y352251D01*
X397940Y351792D01*
X398292Y351440D01*
X398751Y351250D01*
X399249D01*
X399708Y351440D01*
X400060Y351792D01*
X400250Y352251D01*
Y352749D01*
X400060Y353208D01*
X399708Y353560D01*
X399249Y353750D01*
X399192D01*
X398500Y354442D01*
X398534Y354828D01*
X398575Y354989D01*
X399165Y355330D01*
X399670Y355835D01*
X400027Y356453D01*
X400212Y357143D01*
Y357857D01*
X400101Y358274D01*
X400549Y358533D01*
X401819Y357263D01*
X401903Y357228D01*
Y356687D01*
X401857Y356667D01*
X401505Y356316D01*
X401315Y355856D01*
Y355359D01*
X401505Y354900D01*
X401857Y354548D01*
X402316Y354358D01*
X402813D01*
X403273Y354548D01*
X403624Y354900D01*
X403815Y355359D01*
Y355856D01*
X403632Y356296D01*
X403626Y356320D01*
X403797Y356850D01*
X403968Y356892D01*
X415528Y345332D01*
X415988Y345141D01*
X424778D01*
X424899Y345021D01*
Y344646D01*
X425089Y344186D01*
X425441Y343835D01*
X425900Y343644D01*
X426398D01*
X426857Y343835D01*
X427145Y344123D01*
X427675Y344146D01*
X427695Y344145D01*
X428797Y343042D01*
Y336054D01*
X428987Y335594D01*
X429774Y334807D01*
X429750Y334749D01*
Y334251D01*
X429940Y333792D01*
X430292Y333440D01*
X430751Y333250D01*
X431249D01*
X431708Y333440D01*
X432060Y333792D01*
X432250Y334251D01*
Y334749D01*
X432060Y335208D01*
X431708Y335560D01*
X431249Y335750D01*
X431158D01*
X431137Y335788D01*
X431412Y336317D01*
X431708Y336440D01*
X432060Y336792D01*
X432250Y337251D01*
Y337749D01*
X432060Y338208D01*
X431708Y338560D01*
X431249Y338750D01*
X431049D01*
Y343702D01*
X430859Y344161D01*
X427399Y347622D01*
Y347986D01*
X427209Y348446D01*
X426857Y348797D01*
X426398Y348988D01*
X425900D01*
X425441Y348797D01*
X425089Y348446D01*
X424899Y347986D01*
Y347540D01*
X416712D01*
X404793Y359459D01*
X404334Y359649D01*
X402825D01*
X401344Y361130D01*
X401546Y361628D01*
X401890Y361673D01*
X402031Y361531D01*
X402246Y361388D01*
X402500Y361337D01*
X424422D01*
X424440Y361292D01*
X424792Y360940D01*
X425251Y360750D01*
X425749D01*
X426208Y360940D01*
X426560Y361292D01*
X426750Y361751D01*
Y361915D01*
X427250Y362122D01*
X432367Y357005D01*
X432826Y356815D01*
X456964D01*
X457293Y356951D01*
X457496Y356861D01*
X457655Y356747D01*
X457750Y356640D01*
Y356251D01*
X457940Y355792D01*
X458292Y355440D01*
X458751Y355250D01*
X459249D01*
X459708Y355440D01*
X460060Y355792D01*
X460250Y356251D01*
Y356749D01*
X460060Y357208D01*
X459708Y357560D01*
X459317Y357722D01*
X459208Y357848D01*
X459041Y358250D01*
X459095Y358345D01*
X459105Y358351D01*
X465416D01*
X465440Y358292D01*
X465792Y357940D01*
X466251Y357750D01*
X466749D01*
X467208Y357940D01*
X467560Y358292D01*
X467750Y358751D01*
Y359249D01*
X467560Y359708D01*
X467208Y360060D01*
X466749Y360250D01*
X466251D01*
X465792Y360060D01*
X465659Y359927D01*
X465574Y359948D01*
X465420Y360502D01*
X466193Y361274D01*
X466251Y361250D01*
X466749D01*
X467208Y361440D01*
X467560Y361792D01*
X467750Y362251D01*
Y362749D01*
X467560Y363208D01*
X467208Y363560D01*
X466749Y363750D01*
X466251D01*
X465792Y363560D01*
X465440Y363208D01*
X465250Y362749D01*
Y362251D01*
X465274Y362193D01*
X464538Y361457D01*
X464430Y361478D01*
X464393Y361509D01*
X464163Y362041D01*
X464250Y362251D01*
Y362749D01*
X464146Y363001D01*
X464421Y363501D01*
X464650D01*
X465109Y363691D01*
X466193Y364774D01*
X466251Y364750D01*
X466749D01*
X467208Y364940D01*
X467560Y365292D01*
X467750Y365751D01*
Y366249D01*
X467560Y366708D01*
X467208Y367060D01*
X466749Y367250D01*
X466251D01*
X465792Y367060D01*
X465440Y366708D01*
X465250Y366249D01*
Y365751D01*
X465274Y365693D01*
X464687Y365105D01*
X464535Y365134D01*
X464229Y365701D01*
X464250Y365751D01*
Y366249D01*
X464146Y366501D01*
X464421Y367001D01*
X464650D01*
X465109Y367191D01*
X466193Y368274D01*
X466251Y368250D01*
X466749D01*
X467208Y368440D01*
X467560Y368792D01*
X467713Y369162D01*
X468040Y369298D01*
X468250Y369332D01*
X470851Y366731D01*
Y339269D01*
X468731Y337149D01*
X445893D01*
X445434Y336959D01*
X441124Y332649D01*
X419136D01*
X418677Y332459D01*
X414867Y328649D01*
X399379D01*
X398920Y328459D01*
X395610Y325149D01*
X391224D01*
X390765Y324959D01*
X388848Y323042D01*
X388151Y323445D01*
X387211Y323696D01*
X386238D01*
X385298Y323445D01*
X384455Y322958D01*
X383767Y322270D01*
X383280Y321427D01*
X383028Y320487D01*
Y319513D01*
X383280Y318573D01*
X383767Y317730D01*
X384455Y317042D01*
X385298Y316556D01*
X386002Y316367D01*
X385936Y315867D01*
X377512D01*
X377447Y316367D01*
X378151Y316556D01*
X378994Y317042D01*
X379682Y317730D01*
X380169Y318573D01*
X380421Y319513D01*
Y320487D01*
X380169Y321427D01*
X379682Y322270D01*
X378994Y322958D01*
X378151Y323445D01*
X377211Y323696D01*
X376238D01*
X375298Y323445D01*
X374455Y322958D01*
X373766Y322270D01*
X373280Y321427D01*
X373028Y320487D01*
Y319513D01*
X373280Y318573D01*
X373766Y317730D01*
X374455Y317042D01*
X375298Y316556D01*
X376002Y316367D01*
X375937Y315867D01*
X367512D01*
X367446Y316367D01*
X368151Y316556D01*
X368994Y317042D01*
X369682Y317730D01*
X370169Y318573D01*
X370421Y319513D01*
Y320487D01*
X370169Y321427D01*
X369682Y322270D01*
X368994Y322958D01*
X368151Y323445D01*
X367211Y323696D01*
X366238D01*
X365298Y323445D01*
X364455Y322958D01*
X363767Y322270D01*
X363280Y321427D01*
X363028Y320487D01*
Y319513D01*
X363280Y318573D01*
X363767Y317730D01*
X364455Y317042D01*
X365298Y316556D01*
X366002Y316367D01*
X365936Y315867D01*
X357512D01*
X357447Y316367D01*
X358151Y316556D01*
X358994Y317042D01*
X359682Y317730D01*
X360169Y318573D01*
X360421Y319513D01*
Y320487D01*
X360169Y321427D01*
X359682Y322270D01*
X358994Y322958D01*
X358151Y323445D01*
X357211Y323696D01*
X356238D01*
X355298Y323445D01*
X354455Y322958D01*
X353766Y322270D01*
X353280Y321427D01*
X353028Y320487D01*
Y319513D01*
X353280Y318573D01*
X353766Y317730D01*
X354455Y317042D01*
X355298Y316556D01*
X356002Y316367D01*
X355937Y315867D01*
X347512D01*
X347446Y316367D01*
X348151Y316556D01*
X348994Y317042D01*
X349682Y317730D01*
X350169Y318573D01*
X350421Y319513D01*
Y320487D01*
X350169Y321427D01*
X349682Y322270D01*
X348994Y322958D01*
X348151Y323445D01*
X347211Y323696D01*
X346238D01*
X345298Y323445D01*
X344455Y322958D01*
X343766Y322270D01*
X343280Y321427D01*
X343028Y320487D01*
Y319513D01*
X343280Y318573D01*
X343766Y317730D01*
X344455Y317042D01*
X345298Y316556D01*
X346002Y316367D01*
X345936Y315867D01*
X340573D01*
X340421Y316303D01*
X340421Y316367D01*
Y323696D01*
X333028D01*
Y316367D01*
X333028Y316303D01*
X332876Y315867D01*
X331724D01*
X331718Y315865D01*
X330654Y316005D01*
X329657Y316419D01*
X328800Y317076D01*
X328143Y317932D01*
X327730Y318930D01*
X327652Y319522D01*
X327591Y320000D01*
X327591Y320000D01*
X327591Y320492D01*
Y430000D01*
X327590Y430006D01*
X327730Y431070D01*
X328143Y432068D01*
X328800Y432924D01*
X329657Y433581D01*
X330654Y433994D01*
X331246Y434072D01*
X331724Y434133D01*
X331724Y434133D01*
X332216Y434133D01*
X332876D01*
X333028Y433697D01*
X333028Y433633D01*
Y426303D01*
X340421D01*
Y433633D01*
X340421Y433697D01*
X340573Y434133D01*
X345936D01*
X346002Y433633D01*
X345298Y433444D01*
X344455Y432958D01*
X343766Y432270D01*
X343280Y431427D01*
X343028Y430487D01*
Y429513D01*
X343280Y428573D01*
X343766Y427730D01*
X344455Y427042D01*
X345298Y426555D01*
X346238Y426303D01*
X347211D01*
X348151Y426555D01*
X348994Y427042D01*
X349682Y427730D01*
X350169Y428573D01*
X350421Y429513D01*
Y430487D01*
X350169Y431427D01*
X349682Y432270D01*
X348994Y432958D01*
X348151Y433444D01*
X347446Y433633D01*
X347512Y434133D01*
X355937D01*
X356002Y433633D01*
X355298Y433444D01*
X354455Y432958D01*
X353766Y432270D01*
X353280Y431427D01*
X353028Y430487D01*
Y429513D01*
X353280Y428573D01*
X353766Y427730D01*
X354455Y427042D01*
X355298Y426555D01*
X356238Y426303D01*
X357211D01*
X358151Y426555D01*
X358994Y427042D01*
X359682Y427730D01*
X360169Y428573D01*
X360421Y429513D01*
Y430487D01*
X360169Y431427D01*
X359682Y432270D01*
X358994Y432958D01*
X358151Y433444D01*
X357447Y433633D01*
X357512Y434133D01*
X364191D01*
X364325Y433633D01*
X364056Y433478D01*
X363246Y432669D01*
X362674Y431678D01*
X362378Y430572D01*
Y430500D01*
X371071D01*
Y430572D01*
X370775Y431678D01*
X370202Y432669D01*
X369393Y433478D01*
X369124Y433633D01*
X369258Y434133D01*
X374191D01*
X374325Y433633D01*
X374056Y433478D01*
X373246Y432669D01*
X372674Y431678D01*
X372378Y430572D01*
Y430500D01*
X381071D01*
Y430572D01*
X380775Y431678D01*
X380202Y432669D01*
X379393Y433478D01*
X379124Y433633D01*
X379258Y434133D01*
X385936D01*
X386002Y433633D01*
D02*
G37*
G36*
X486002D02*
X485298Y433444D01*
X484455Y432958D01*
X483767Y432270D01*
X483280Y431427D01*
X483028Y430487D01*
Y429513D01*
X483280Y428573D01*
X483767Y427730D01*
X484455Y427042D01*
X485298Y426555D01*
X486075Y426347D01*
Y421993D01*
X478691Y414609D01*
X478501Y414150D01*
Y400920D01*
X478001Y400646D01*
X477749Y400750D01*
X477251D01*
X476792Y400560D01*
X476548Y400316D01*
X475470D01*
X464064Y411723D01*
Y415731D01*
X464799Y416466D01*
X465147Y416298D01*
X465250Y416210D01*
Y415751D01*
X465440Y415292D01*
X465792Y414940D01*
X466251Y414750D01*
X466749D01*
X467208Y414940D01*
X467560Y415292D01*
X467750Y415751D01*
Y416249D01*
X467560Y416708D01*
X467208Y417060D01*
X466749Y417250D01*
X466290D01*
X466202Y417352D01*
X466034Y417701D01*
X475038Y426705D01*
X475298Y426555D01*
X476238Y426303D01*
X477211D01*
X478151Y426555D01*
X478994Y427042D01*
X479682Y427730D01*
X480169Y428573D01*
X480421Y429513D01*
Y430487D01*
X480169Y431427D01*
X479682Y432270D01*
X478994Y432958D01*
X478151Y433444D01*
X477447Y433633D01*
X477512Y434133D01*
X485936D01*
X486002Y433633D01*
D02*
G37*
G36*
X456002D02*
X455298Y433444D01*
X454455Y432958D01*
X453766Y432270D01*
X453280Y431427D01*
X453028Y430487D01*
Y429513D01*
X453280Y428573D01*
X453682Y427876D01*
X449455Y423649D01*
X435000D01*
X434541Y423459D01*
X433541Y422459D01*
X433351Y422000D01*
Y406000D01*
X433541Y405541D01*
X435581Y403500D01*
X433541Y401459D01*
X433351Y401000D01*
Y374000D01*
X433541Y373541D01*
X436541Y370541D01*
X437000Y370351D01*
X439500D01*
X439959Y370541D01*
X441193Y371774D01*
X441251Y371750D01*
X441749D01*
X442208Y371940D01*
X442560Y372292D01*
X442750Y372751D01*
Y373249D01*
X442560Y373708D01*
X442208Y374060D01*
X441749Y374250D01*
X441251D01*
X440792Y374060D01*
X440440Y373708D01*
X440250Y373249D01*
Y372751D01*
X440274Y372693D01*
X439231Y371649D01*
X438624D01*
X438417Y372149D01*
X438560Y372292D01*
X438750Y372751D01*
Y373249D01*
X438731Y373294D01*
X443274Y377837D01*
X457000D01*
X457254Y377888D01*
X457469Y378031D01*
X459774Y380337D01*
X472226D01*
X479337Y373225D01*
Y353000D01*
X479355Y352910D01*
X478916Y352621D01*
X478663Y352823D01*
Y372500D01*
X478612Y372754D01*
X478469Y372969D01*
X472469Y378969D01*
X472254Y379112D01*
X472000Y379163D01*
X460000D01*
X459746Y379112D01*
X459531Y378969D01*
X457725Y377163D01*
X445616D01*
X445363Y377112D01*
X445148Y376969D01*
X444239Y376060D01*
X444194Y376079D01*
X443696D01*
X443237Y375888D01*
X442885Y375537D01*
X442695Y375077D01*
Y374580D01*
X442885Y374121D01*
X443237Y373769D01*
X443696Y373579D01*
X444194D01*
X444653Y373769D01*
X445005Y374121D01*
X445195Y374580D01*
Y375077D01*
X445176Y375123D01*
X445891Y375837D01*
X458000D01*
X458254Y375888D01*
X458469Y376031D01*
X460275Y377837D01*
X461862D01*
X462070Y377337D01*
X461940Y377208D01*
X461750Y376749D01*
Y376251D01*
X461940Y375792D01*
X462292Y375440D01*
X462751Y375250D01*
X463249D01*
X463307Y375274D01*
X464191Y374391D01*
X464650Y374201D01*
X465226D01*
X465440Y373708D01*
X465250Y373249D01*
Y372751D01*
X465271Y372701D01*
X464965Y372134D01*
X464813Y372105D01*
X464226Y372693D01*
X464250Y372751D01*
Y373249D01*
X464060Y373708D01*
X463708Y374060D01*
X463249Y374250D01*
X462751D01*
X462292Y374060D01*
X461940Y373708D01*
X461750Y373249D01*
Y372751D01*
X461940Y372292D01*
X462292Y371940D01*
X462751Y371750D01*
X463249D01*
X463307Y371774D01*
X464391Y370691D01*
X464850Y370501D01*
X465079D01*
X465354Y370001D01*
X465250Y369749D01*
Y369251D01*
X465274Y369193D01*
X464687Y368605D01*
X464535Y368634D01*
X464229Y369201D01*
X464250Y369251D01*
Y369749D01*
X464060Y370208D01*
X463708Y370560D01*
X463249Y370750D01*
X462751D01*
X462292Y370560D01*
X461940Y370208D01*
X461916Y370149D01*
X454000D01*
X453541Y369959D01*
X452302Y368721D01*
X437489D01*
X432649Y373560D01*
Y422731D01*
X434269Y424351D01*
X441724D01*
X442184Y424541D01*
X444601Y426958D01*
X445298Y426555D01*
X446238Y426303D01*
X447211D01*
X448151Y426555D01*
X448994Y427042D01*
X449682Y427730D01*
X450169Y428573D01*
X450421Y429513D01*
Y430487D01*
X450169Y431427D01*
X449682Y432270D01*
X448994Y432958D01*
X448151Y433444D01*
X447446Y433633D01*
X447512Y434133D01*
X455936D01*
X456002Y433633D01*
D02*
G37*
G36*
X426002D02*
X425298Y433444D01*
X424455Y432958D01*
X423767Y432270D01*
X423280Y431427D01*
X423028Y430487D01*
Y429513D01*
X423280Y428573D01*
X423767Y427730D01*
X424455Y427042D01*
X425298Y426555D01*
X426238Y426303D01*
X427211D01*
X427351Y426341D01*
X427851Y425957D01*
Y371791D01*
X427925Y371611D01*
X427513Y371299D01*
X427346Y371431D01*
Y409303D01*
X427156Y409762D01*
X413149Y423769D01*
Y425507D01*
X414601Y426958D01*
X415298Y426555D01*
X416238Y426303D01*
X417211D01*
X418151Y426555D01*
X418994Y427042D01*
X419682Y427730D01*
X420169Y428573D01*
X420421Y429513D01*
Y430487D01*
X420169Y431427D01*
X419682Y432270D01*
X418994Y432958D01*
X418151Y433444D01*
X417447Y433633D01*
X417512Y434133D01*
X425937D01*
X426002Y433633D01*
D02*
G37*
G36*
X510297Y363929D02*
X510411Y363637D01*
X510250Y363249D01*
Y362751D01*
X510440Y362292D01*
X510792Y361940D01*
X511251Y361750D01*
X511749D01*
X512208Y361940D01*
X512560Y362292D01*
X512750Y362751D01*
Y363249D01*
X512747Y363255D01*
X513025Y363854D01*
X513053Y363863D01*
X513234Y363829D01*
X513769Y363294D01*
X513750Y363249D01*
Y362751D01*
X513940Y362292D01*
X513726Y361799D01*
X513150D01*
X512691Y361609D01*
X511807Y360726D01*
X511749Y360750D01*
X511251D01*
X510792Y360560D01*
X510440Y360208D01*
X510250Y359749D01*
Y359251D01*
X510440Y358792D01*
X510792Y358440D01*
X511251Y358250D01*
X511749D01*
X512208Y358440D01*
X512560Y358792D01*
X512750Y359251D01*
Y359749D01*
X512726Y359807D01*
X513154Y360236D01*
X513402Y360201D01*
X513750Y359749D01*
Y359251D01*
X513940Y358792D01*
X514292Y358440D01*
X514751Y358250D01*
X515249D01*
X515708Y358440D01*
X516060Y358792D01*
X516084Y358851D01*
X516731D01*
X519351Y356231D01*
Y345254D01*
X505246Y331149D01*
X492722D01*
X492568Y331649D01*
X494959Y334041D01*
X495149Y334500D01*
Y334880D01*
X495649Y335087D01*
X495794Y334943D01*
X496254Y334752D01*
X496751D01*
X497211Y334943D01*
X497562Y335294D01*
X497753Y335753D01*
Y336251D01*
X497728Y336310D01*
X499959Y338541D01*
X500149Y339000D01*
Y356000D01*
X499959Y356459D01*
X497959Y358459D01*
X497500Y358649D01*
X492500D01*
X492041Y358459D01*
X490789Y357208D01*
X490599Y356748D01*
Y356015D01*
X490373Y355873D01*
X489873Y356148D01*
Y359849D01*
X494161Y364137D01*
X510162D01*
X510297Y363929D01*
D02*
G37*
G36*
X523351Y368173D02*
Y366584D01*
X523292Y366560D01*
X522940Y366208D01*
X522750Y365749D01*
Y365251D01*
X522940Y364792D01*
X523292Y364440D01*
X523751Y364250D01*
X524249D01*
X524307Y364274D01*
X525351Y363231D01*
Y360222D01*
X524851Y360068D01*
X518669Y366250D01*
X518702Y366460D01*
X518838Y366787D01*
X519208Y366940D01*
X519560Y367292D01*
X519750Y367751D01*
Y368249D01*
X519560Y368708D01*
X519417Y368851D01*
X519624Y369351D01*
X522173D01*
X523351Y368173D01*
D02*
G37*
G36*
X440940Y402792D02*
X441292Y402440D01*
X441751Y402250D01*
X442249D01*
X442294Y402269D01*
X444031Y400531D01*
X444246Y400388D01*
X444500Y400337D01*
X445362D01*
X445570Y399837D01*
X445440Y399708D01*
X445250Y399249D01*
Y398751D01*
X445440Y398292D01*
X445792Y397940D01*
X446251Y397750D01*
X446749D01*
X446794Y397769D01*
X448031Y396531D01*
X448246Y396388D01*
X448500Y396337D01*
X462170D01*
X483337Y375170D01*
Y355939D01*
X483190Y355841D01*
X482690Y356108D01*
Y374472D01*
X482640Y374726D01*
X482496Y374941D01*
X472085Y385352D01*
X471870Y385495D01*
X471617Y385546D01*
X460220D01*
X459967Y385495D01*
X459752Y385352D01*
X457239Y382839D01*
X453677D01*
X453423Y382789D01*
X453208Y382645D01*
X451725Y381163D01*
X441000D01*
X440746Y381112D01*
X440531Y380969D01*
X437794Y378231D01*
X437749Y378250D01*
X437251D01*
X436792Y378060D01*
X436440Y377708D01*
X436250Y377249D01*
Y376751D01*
X436440Y376292D01*
X436792Y375940D01*
X437251Y375750D01*
X437749D01*
X438208Y375940D01*
X438560Y376292D01*
X438750Y376751D01*
Y377249D01*
X438731Y377294D01*
X441274Y379837D01*
X452000D01*
X452254Y379888D01*
X452469Y380031D01*
X453689Y381252D01*
X453917Y381215D01*
X454250Y380725D01*
Y380228D01*
X454440Y379769D01*
X454546Y379663D01*
X454339Y379163D01*
X443000D01*
X442746Y379112D01*
X442531Y378969D01*
X437794Y374231D01*
X437749Y374250D01*
X437251D01*
X436792Y374060D01*
X436440Y373708D01*
X436287Y373338D01*
X435960Y373202D01*
X435750Y373168D01*
X434649Y374269D01*
Y400731D01*
X436769Y402851D01*
X440916D01*
X440940Y402792D01*
D02*
G37*
G36*
X494258Y353243D02*
X494755D01*
X494814Y353268D01*
X495543Y352538D01*
X495521Y352427D01*
X495494Y352394D01*
X494958Y352161D01*
X494753Y352246D01*
X494256D01*
X493796Y352055D01*
X493445Y351704D01*
X493254Y351244D01*
Y350747D01*
X493279Y350688D01*
X492222Y349632D01*
X492032Y349173D01*
Y334950D01*
X491231Y334149D01*
X478154D01*
X477909Y334612D01*
X477959Y334662D01*
X478149Y335121D01*
Y348854D01*
X478358Y348940D01*
X478710Y349292D01*
X478900Y349751D01*
Y349956D01*
X479400Y350163D01*
X481031Y348531D01*
X481246Y348388D01*
X481500Y348337D01*
X488859D01*
X489113Y348388D01*
X489328Y348531D01*
X489679Y348883D01*
X489823Y349098D01*
X489873Y349352D01*
Y349652D01*
X490065Y349782D01*
X490373Y349905D01*
X490754Y349748D01*
X491251D01*
X491710Y349938D01*
X492062Y350290D01*
X492252Y350749D01*
Y351247D01*
X492228Y351305D01*
X493109Y352186D01*
X493299Y352645D01*
Y353226D01*
X493798Y353434D01*
X494258Y353243D01*
D02*
G37*
%LPC*%
G36*
X581071Y429500D02*
X577224D01*
Y425654D01*
X577297D01*
X578402Y425950D01*
X579393Y426522D01*
X580202Y427331D01*
X580775Y428322D01*
X581071Y429428D01*
Y429500D01*
D02*
G37*
G36*
X576224D02*
X572378D01*
Y429428D01*
X572674Y428322D01*
X573246Y427331D01*
X574056Y426522D01*
X575047Y425950D01*
X576152Y425654D01*
X576224D01*
Y429500D01*
D02*
G37*
G36*
X571071D02*
X567224D01*
Y425654D01*
X567297D01*
X568402Y425950D01*
X569393Y426522D01*
X570202Y427331D01*
X570775Y428322D01*
X571071Y429428D01*
Y429500D01*
D02*
G37*
G36*
X566224D02*
X562378D01*
Y429428D01*
X562674Y428322D01*
X563246Y427331D01*
X564056Y426522D01*
X565047Y425950D01*
X566152Y425654D01*
X566224D01*
Y429500D01*
D02*
G37*
G36*
X561071D02*
X557224D01*
Y425654D01*
X557297D01*
X558402Y425950D01*
X559393Y426522D01*
X560202Y427331D01*
X560775Y428322D01*
X561071Y429428D01*
Y429500D01*
D02*
G37*
G36*
X556224D02*
X552378D01*
Y429428D01*
X552674Y428322D01*
X553246Y427331D01*
X554056Y426522D01*
X555047Y425950D01*
X556152Y425654D01*
X556224D01*
Y429500D01*
D02*
G37*
G36*
X459249Y416250D02*
X458751D01*
X458292Y416060D01*
X457940Y415708D01*
X457750Y415249D01*
Y414751D01*
X457940Y414292D01*
X458292Y413940D01*
X458751Y413750D01*
X459249D01*
X459708Y413940D01*
X460060Y414292D01*
X460250Y414751D01*
Y415249D01*
X460060Y415708D01*
X459708Y416060D01*
X459249Y416250D01*
D02*
G37*
G36*
X515249Y402750D02*
X514751D01*
X514292Y402560D01*
X513940Y402208D01*
X513750Y401749D01*
Y401251D01*
X513940Y400792D01*
X514292Y400440D01*
X514751Y400250D01*
X515249D01*
X515708Y400440D01*
X516060Y400792D01*
X516250Y401251D01*
Y401749D01*
X516060Y402208D01*
X515708Y402560D01*
X515249Y402750D01*
D02*
G37*
G36*
X524700Y416276D02*
X523986D01*
X523296Y416091D01*
X522678Y415734D01*
X522173Y415229D01*
X521816Y414611D01*
X521631Y413921D01*
Y413207D01*
X521816Y412517D01*
X522173Y411898D01*
X522678Y411393D01*
X523296Y411036D01*
X523694Y410930D01*
Y400612D01*
X522844Y399762D01*
X522459Y400041D01*
X522649Y400500D01*
Y407107D01*
X522459Y407566D01*
X517865Y412161D01*
X518071Y412517D01*
X518256Y413207D01*
Y413921D01*
X518071Y414611D01*
X517714Y415229D01*
X517209Y415734D01*
X516590Y416091D01*
X515900Y416276D01*
X515186D01*
X514496Y416091D01*
X513878Y415734D01*
X513373Y415229D01*
X513016Y414611D01*
X512831Y413921D01*
Y413207D01*
X513016Y412517D01*
X513373Y411898D01*
X513878Y411393D01*
X514496Y411036D01*
X515186Y410852D01*
X515900D01*
X516590Y411036D01*
X516947Y411242D01*
X521351Y406838D01*
Y400769D01*
X518231Y397649D01*
X502769D01*
X501726Y398693D01*
X501750Y398751D01*
Y399249D01*
X501560Y399708D01*
X501208Y400060D01*
X500749Y400250D01*
X500251D01*
X499792Y400060D01*
X499440Y399708D01*
X499250Y399249D01*
Y398751D01*
X499440Y398292D01*
X499792Y397940D01*
X500251Y397750D01*
X500749D01*
X500807Y397774D01*
X501580Y397002D01*
X501426Y396448D01*
X501341Y396427D01*
X501208Y396560D01*
X500749Y396750D01*
X500251D01*
X499792Y396560D01*
X499440Y396208D01*
X499250Y395749D01*
Y395251D01*
X499440Y394792D01*
X499792Y394440D01*
X500251Y394250D01*
X500749D01*
X501208Y394440D01*
X501560Y394792D01*
X501584Y394851D01*
X519500D01*
X519959Y395041D01*
X524802Y399884D01*
X524993Y400343D01*
Y410930D01*
X525390Y411036D01*
X526009Y411393D01*
X526514Y411898D01*
X526871Y412517D01*
X527056Y413207D01*
Y413921D01*
X526871Y414611D01*
X526514Y415229D01*
X526009Y415734D01*
X525390Y416091D01*
X524700Y416276D01*
D02*
G37*
G36*
X577297Y324346D02*
X577224D01*
Y320500D01*
X581071D01*
Y320572D01*
X580775Y321678D01*
X580202Y322669D01*
X579393Y323478D01*
X578402Y324050D01*
X577297Y324346D01*
D02*
G37*
G36*
X576224D02*
X576152D01*
X575047Y324050D01*
X574056Y323478D01*
X573246Y322669D01*
X572674Y321678D01*
X572378Y320572D01*
Y320500D01*
X576224D01*
Y324346D01*
D02*
G37*
G36*
X567297D02*
X567224D01*
Y320500D01*
X571071D01*
Y320572D01*
X570775Y321678D01*
X570202Y322669D01*
X569393Y323478D01*
X568402Y324050D01*
X567297Y324346D01*
D02*
G37*
G36*
X566224D02*
X566152D01*
X565047Y324050D01*
X564056Y323478D01*
X563246Y322669D01*
X562674Y321678D01*
X562378Y320572D01*
Y320500D01*
X566224D01*
Y324346D01*
D02*
G37*
G36*
X381071Y429500D02*
X377224D01*
Y425654D01*
X377297D01*
X378402Y425950D01*
X379393Y426522D01*
X380202Y427331D01*
X380775Y428322D01*
X381071Y429428D01*
Y429500D01*
D02*
G37*
G36*
X376224D02*
X372378D01*
Y429428D01*
X372674Y428322D01*
X373246Y427331D01*
X374056Y426522D01*
X375047Y425950D01*
X376152Y425654D01*
X376224D01*
Y429500D01*
D02*
G37*
G36*
X371071D02*
X367224D01*
Y425654D01*
X367297D01*
X368402Y425950D01*
X369393Y426522D01*
X370202Y427331D01*
X370775Y428322D01*
X371071Y429428D01*
Y429500D01*
D02*
G37*
G36*
X366224D02*
X362378D01*
Y429428D01*
X362674Y428322D01*
X363246Y427331D01*
X364056Y426522D01*
X365047Y425950D01*
X366152Y425654D01*
X366224D01*
Y429500D01*
D02*
G37*
G36*
X355839Y417612D02*
X350524D01*
X349811Y417470D01*
X349207Y417067D01*
X348803Y416463D01*
X348661Y415750D01*
Y414766D01*
X348803Y414053D01*
X349207Y413449D01*
X349811Y413045D01*
X350524Y412904D01*
X355839D01*
X356551Y413045D01*
X357155Y413449D01*
X357559Y414053D01*
X357701Y414766D01*
Y415750D01*
X357559Y416463D01*
X357155Y417067D01*
X356551Y417470D01*
X355839Y417612D01*
D02*
G37*
G36*
X338398D02*
X335051D01*
X334339Y417470D01*
X333734Y417067D01*
X333331Y416463D01*
X333189Y415750D01*
Y414766D01*
X333331Y414053D01*
X333734Y413449D01*
X334339Y413045D01*
X335051Y412904D01*
X338398D01*
X339110Y413045D01*
X339714Y413449D01*
X340118Y414053D01*
X340260Y414766D01*
Y415750D01*
X340118Y416463D01*
X339714Y417067D01*
X339110Y417470D01*
X338398Y417612D01*
D02*
G37*
G36*
X378941Y413867D02*
X378444D01*
X377984Y413677D01*
X377633Y413325D01*
X377442Y412866D01*
Y412369D01*
X377633Y411909D01*
X377984Y411558D01*
X378444Y411367D01*
X378941D01*
X379400Y411558D01*
X379752Y411909D01*
X379942Y412369D01*
Y412866D01*
X379752Y413325D01*
X379400Y413677D01*
X378941Y413867D01*
D02*
G37*
G36*
X375749Y414750D02*
X375251D01*
X374792Y414560D01*
X374440Y414208D01*
X374250Y413749D01*
Y413251D01*
X374440Y412792D01*
X374732Y412500D01*
X374440Y412208D01*
X374250Y411749D01*
Y411251D01*
X374440Y410792D01*
X374792Y410440D01*
X375251Y410250D01*
X375749D01*
X376208Y410440D01*
X376560Y410792D01*
X376750Y411251D01*
Y411749D01*
X376560Y412208D01*
X376268Y412500D01*
X376560Y412792D01*
X376750Y413251D01*
Y413749D01*
X376560Y414208D01*
X376208Y414560D01*
X375749Y414750D01*
D02*
G37*
G36*
X351419Y411258D02*
X350770D01*
X350171Y411009D01*
X349713Y410551D01*
X349465Y409952D01*
Y409304D01*
X349713Y408705D01*
X350171Y408247D01*
X350770Y407998D01*
X351419D01*
X352017Y408247D01*
X352476Y408705D01*
X352724Y409304D01*
Y409952D01*
X352476Y410551D01*
X352017Y411009D01*
X351419Y411258D01*
D02*
G37*
G36*
X398098Y413361D02*
X386248D01*
X385965Y413305D01*
X385725Y413144D01*
X372228Y399647D01*
X371980Y399670D01*
X371704Y399750D01*
X371538Y400153D01*
X371186Y400504D01*
X370726Y400695D01*
X370229D01*
X369770Y400504D01*
X369418Y400153D01*
X369228Y399693D01*
Y399196D01*
X369418Y398737D01*
X369656Y398499D01*
X369726Y398195D01*
X369656Y397891D01*
X369418Y397653D01*
X369228Y397193D01*
Y396696D01*
X369418Y396237D01*
X369770Y395885D01*
X370229Y395695D01*
X370726D01*
X371186Y395885D01*
X371538Y396237D01*
X371728Y396696D01*
Y396855D01*
X372918D01*
X373201Y396912D01*
X373441Y397072D01*
X387051Y410683D01*
X397294D01*
X401641Y406336D01*
X401357Y405913D01*
X401221Y405969D01*
X400724D01*
X400264Y405779D01*
X399913Y405427D01*
X399722Y404968D01*
Y404470D01*
X399913Y404011D01*
X400264Y403659D01*
X400724Y403469D01*
X401221D01*
X401680Y403659D01*
X402032Y404011D01*
X402222Y404470D01*
Y404968D01*
X402166Y405104D01*
X402590Y405387D01*
X408199Y399778D01*
Y399325D01*
X408389Y398866D01*
X408741Y398514D01*
X409200Y398324D01*
X409697D01*
X410157Y398514D01*
X410508Y398866D01*
X410699Y399325D01*
Y399822D01*
X410508Y400282D01*
X410268Y400522D01*
X410202Y400831D01*
X410271Y401128D01*
X410514Y401371D01*
X410704Y401830D01*
Y402327D01*
X410514Y402787D01*
X410162Y403138D01*
X409703Y403329D01*
X409205D01*
X408746Y403138D01*
X408686Y403079D01*
X398620Y413144D01*
X398381Y413305D01*
X398098Y413361D01*
D02*
G37*
G36*
X398192Y407530D02*
X397695D01*
X397236Y407340D01*
X396884Y406988D01*
X396694Y406529D01*
Y406032D01*
X396884Y405572D01*
X397236Y405221D01*
X397695Y405030D01*
X398192D01*
X398652Y405221D01*
X399003Y405572D01*
X399194Y406032D01*
Y406529D01*
X399003Y406988D01*
X398652Y407340D01*
X398192Y407530D01*
D02*
G37*
G36*
X403457Y401954D02*
X402960D01*
X402500Y401763D01*
X402149Y401412D01*
X401959Y400952D01*
Y400455D01*
X402149Y399995D01*
X402500Y399644D01*
X402960Y399453D01*
X403457D01*
X403917Y399644D01*
X404268Y399995D01*
X404459Y400455D01*
Y400952D01*
X404268Y401412D01*
X403917Y401763D01*
X403457Y401954D01*
D02*
G37*
G36*
X377389Y399450D02*
X376892D01*
X376432Y399260D01*
X376081Y398908D01*
X375890Y398449D01*
Y397952D01*
X376081Y397492D01*
X376432Y397141D01*
X376892Y396950D01*
X377389D01*
X377849Y397141D01*
X378200Y397492D01*
X378391Y397952D01*
Y398449D01*
X378200Y398908D01*
X377849Y399260D01*
X377389Y399450D01*
D02*
G37*
G36*
X401155Y399370D02*
X400658D01*
X400199Y399180D01*
X399847Y398828D01*
X399657Y398369D01*
Y397871D01*
X399847Y397412D01*
X400199Y397060D01*
X400658Y396870D01*
X401155D01*
X401615Y397060D01*
X401966Y397412D01*
X402157Y397871D01*
Y398369D01*
X401966Y398828D01*
X401615Y399180D01*
X401155Y399370D01*
D02*
G37*
G36*
X351419Y388502D02*
X350770D01*
X350171Y388253D01*
X349713Y387795D01*
X349465Y387196D01*
Y386548D01*
X349713Y385949D01*
X350171Y385491D01*
X350770Y385243D01*
X351419D01*
X352017Y385491D01*
X352476Y385949D01*
X352724Y386548D01*
Y387196D01*
X352476Y387795D01*
X352017Y388253D01*
X351419Y388502D01*
D02*
G37*
G36*
X355839Y383596D02*
X350524D01*
X349811Y383455D01*
X349207Y383051D01*
X348803Y382447D01*
X348661Y381734D01*
Y380750D01*
X348803Y380037D01*
X349207Y379433D01*
X349811Y379030D01*
X350524Y378888D01*
X355839D01*
X356551Y379030D01*
X357155Y379433D01*
X357559Y380037D01*
X357701Y380750D01*
Y381734D01*
X357559Y382447D01*
X357155Y383051D01*
X356551Y383455D01*
X355839Y383596D01*
D02*
G37*
G36*
X338398D02*
X335051D01*
X334339Y383455D01*
X333734Y383051D01*
X333331Y382447D01*
X333189Y381734D01*
Y380750D01*
X333331Y380037D01*
X333734Y379433D01*
X334339Y379030D01*
X335051Y378888D01*
X338398D01*
X339110Y379030D01*
X339714Y379433D01*
X340118Y380037D01*
X340260Y380750D01*
Y381734D01*
X340118Y382447D01*
X339714Y383051D01*
X339110Y383455D01*
X338398Y383596D01*
D02*
G37*
G36*
X367749Y379750D02*
X367251D01*
X366792Y379560D01*
X366440Y379208D01*
X366250Y378749D01*
Y378251D01*
X366440Y377792D01*
X366792Y377440D01*
X367251Y377250D01*
X367749D01*
X368208Y377440D01*
X368560Y377792D01*
X368750Y378251D01*
Y378749D01*
X368560Y379208D01*
X368208Y379560D01*
X367749Y379750D01*
D02*
G37*
G36*
X413659Y371133D02*
X413161D01*
X412702Y370942D01*
X412350Y370591D01*
X412160Y370131D01*
Y369634D01*
X412350Y369175D01*
X412702Y368823D01*
X413161Y368633D01*
X413659D01*
X414118Y368823D01*
X414470Y369175D01*
X414660Y369634D01*
Y370131D01*
X414470Y370591D01*
X414118Y370942D01*
X413659Y371133D01*
D02*
G37*
G36*
X355839Y371112D02*
X350524D01*
X349811Y370970D01*
X349207Y370567D01*
X348803Y369963D01*
X348661Y369250D01*
Y368266D01*
X348803Y367553D01*
X349207Y366949D01*
X349811Y366545D01*
X350524Y366404D01*
X355839D01*
X356551Y366545D01*
X357155Y366949D01*
X357559Y367553D01*
X357701Y368266D01*
Y369250D01*
X357559Y369963D01*
X357155Y370567D01*
X356551Y370970D01*
X355839Y371112D01*
D02*
G37*
G36*
X338398D02*
X335051D01*
X334339Y370970D01*
X333734Y370567D01*
X333331Y369963D01*
X333189Y369250D01*
Y368266D01*
X333331Y367553D01*
X333734Y366949D01*
X334339Y366545D01*
X335051Y366404D01*
X338398D01*
X339110Y366545D01*
X339714Y366949D01*
X340118Y367553D01*
X340260Y368266D01*
Y369250D01*
X340118Y369963D01*
X339714Y370567D01*
X339110Y370970D01*
X338398Y371112D01*
D02*
G37*
G36*
X370249Y366250D02*
X369751D01*
X369292Y366060D01*
X368940Y365708D01*
X368750Y365249D01*
Y364751D01*
X368940Y364292D01*
X369292Y363940D01*
X369751Y363750D01*
X370249D01*
X370708Y363940D01*
X371060Y364292D01*
X371250Y364751D01*
Y365249D01*
X371060Y365708D01*
X370708Y366060D01*
X370249Y366250D01*
D02*
G37*
G36*
X351419Y364757D02*
X350770D01*
X350171Y364509D01*
X349713Y364051D01*
X349465Y363452D01*
Y362804D01*
X349713Y362205D01*
X350171Y361747D01*
X350770Y361498D01*
X351419D01*
X352017Y361747D01*
X352476Y362205D01*
X352724Y362804D01*
Y363452D01*
X352476Y364051D01*
X352017Y364509D01*
X351419Y364757D01*
D02*
G37*
G36*
X464999Y347521D02*
X464501D01*
X464042Y347331D01*
X463691Y346979D01*
X463500Y346520D01*
Y346023D01*
X463691Y345563D01*
X464042Y345212D01*
X464501Y345021D01*
X464999D01*
X465458Y345212D01*
X465810Y345563D01*
X466000Y346023D01*
Y346520D01*
X465810Y346979D01*
X465458Y347331D01*
X464999Y347521D01*
D02*
G37*
G36*
X402749Y347250D02*
X402251D01*
X401792Y347060D01*
X401440Y346708D01*
X401250Y346249D01*
Y345751D01*
X401440Y345292D01*
X401792Y344940D01*
X402251Y344750D01*
X402749D01*
X403208Y344940D01*
X403560Y345292D01*
X403750Y345751D01*
Y346249D01*
X403560Y346708D01*
X403208Y347060D01*
X402749Y347250D01*
D02*
G37*
G36*
X370249D02*
X369751D01*
X369292Y347060D01*
X368940Y346708D01*
X368750Y346249D01*
Y345751D01*
X368940Y345292D01*
X369292Y344940D01*
X369751Y344750D01*
X370249D01*
X370708Y344940D01*
X371060Y345292D01*
X371250Y345751D01*
Y346249D01*
X371060Y346708D01*
X370708Y347060D01*
X370249Y347250D01*
D02*
G37*
G36*
X447749Y341250D02*
X447251D01*
X446792Y341060D01*
X446440Y340708D01*
X446250Y340249D01*
Y339751D01*
X446440Y339292D01*
X446792Y338940D01*
X447251Y338750D01*
X447749D01*
X448208Y338940D01*
X448560Y339292D01*
X448750Y339751D01*
Y340249D01*
X448560Y340708D01*
X448208Y341060D01*
X447749Y341250D01*
D02*
G37*
G36*
X351419Y342002D02*
X350770D01*
X350171Y341754D01*
X349713Y341295D01*
X349465Y340696D01*
Y340048D01*
X349713Y339449D01*
X350171Y338991D01*
X350770Y338742D01*
X351419D01*
X352017Y338991D01*
X352476Y339449D01*
X352724Y340048D01*
Y340696D01*
X352476Y341295D01*
X352017Y341754D01*
X351419Y342002D01*
D02*
G37*
G36*
X370249Y339750D02*
X369751D01*
X369292Y339560D01*
X368940Y339208D01*
X368750Y338749D01*
Y338251D01*
X368940Y337792D01*
X369292Y337440D01*
X369751Y337250D01*
X370249D01*
X370708Y337440D01*
X371060Y337792D01*
X371250Y338251D01*
Y338749D01*
X371060Y339208D01*
X370708Y339560D01*
X370249Y339750D01*
D02*
G37*
G36*
X422249Y338250D02*
X421751D01*
X421292Y338060D01*
X420940Y337708D01*
X420750Y337249D01*
Y336751D01*
X420940Y336292D01*
X421292Y335940D01*
X421751Y335750D01*
X422249D01*
X422708Y335940D01*
X423060Y336292D01*
X423250Y336751D01*
Y337249D01*
X423060Y337708D01*
X422708Y338060D01*
X422249Y338250D01*
D02*
G37*
G36*
X407249Y337250D02*
X406751D01*
X406292Y337060D01*
X405940Y336708D01*
X405750Y336249D01*
Y335751D01*
X405940Y335292D01*
X406292Y334940D01*
X406751Y334750D01*
X407249D01*
X407708Y334940D01*
X408060Y335292D01*
X408250Y335751D01*
Y336249D01*
X408060Y336708D01*
X407708Y337060D01*
X407249Y337250D01*
D02*
G37*
G36*
X355839Y337096D02*
X350524D01*
X349811Y336955D01*
X349207Y336551D01*
X348803Y335947D01*
X348661Y335234D01*
Y334250D01*
X348803Y333537D01*
X349207Y332933D01*
X349811Y332530D01*
X350524Y332388D01*
X355839D01*
X356551Y332530D01*
X357155Y332933D01*
X357559Y333537D01*
X357701Y334250D01*
Y335234D01*
X357559Y335947D01*
X357155Y336551D01*
X356551Y336955D01*
X355839Y337096D01*
D02*
G37*
G36*
X338398D02*
X335051D01*
X334339Y336955D01*
X333734Y336551D01*
X333331Y335947D01*
X333189Y335234D01*
Y334250D01*
X333331Y333537D01*
X333734Y332933D01*
X334339Y332530D01*
X335051Y332388D01*
X338398D01*
X339110Y332530D01*
X339714Y332933D01*
X340118Y333537D01*
X340260Y334250D01*
Y335234D01*
X340118Y335947D01*
X339714Y336551D01*
X339110Y336955D01*
X338398Y337096D01*
D02*
G37*
G36*
X516749Y353250D02*
X516251D01*
X515792Y353060D01*
X515440Y352708D01*
X515250Y352249D01*
Y351751D01*
X515440Y351292D01*
X515792Y350940D01*
X516251Y350750D01*
X516749D01*
X517208Y350940D01*
X517560Y351292D01*
X517750Y351751D01*
Y352249D01*
X517560Y352708D01*
X517208Y353060D01*
X516749Y353250D01*
D02*
G37*
G36*
X507249Y340750D02*
X506751D01*
X506292Y340560D01*
X505940Y340208D01*
X505750Y339749D01*
Y339251D01*
X505940Y338792D01*
X506292Y338440D01*
X506751Y338250D01*
X507249D01*
X507708Y338440D01*
X508060Y338792D01*
X508250Y339251D01*
Y339749D01*
X508060Y340208D01*
X507708Y340560D01*
X507249Y340750D01*
D02*
G37*
G36*
X437249Y386750D02*
X436751D01*
X436292Y386560D01*
X435940Y386208D01*
X435750Y385749D01*
Y385251D01*
X435940Y384792D01*
X436292Y384440D01*
X436751Y384250D01*
X437249D01*
X437708Y384440D01*
X438060Y384792D01*
X438250Y385251D01*
Y385749D01*
X438060Y386208D01*
X437708Y386560D01*
X437249Y386750D01*
D02*
G37*
%LPD*%
D15*
X397500Y354217D02*
Y357500D01*
Y354217D02*
X399000Y352716D01*
Y352500D02*
Y352716D01*
D16*
X426260Y347738D02*
X426364D01*
X425944Y344895D02*
X426149D01*
X382000Y345500D02*
Y347450D01*
X387089Y352540D01*
X457514Y382177D02*
X460220Y384883D01*
X453677Y382177D02*
X457514D01*
X460220Y384883D02*
X471617D01*
X441000Y380500D02*
X452000D01*
X437500Y377000D02*
X441000Y380500D01*
X443000Y378500D02*
X457000D01*
X437500Y373000D02*
X443000Y378500D01*
X457000D02*
X459500Y381000D01*
X452000Y380500D02*
X453677Y382177D01*
X443945Y374829D02*
X443945D01*
X445616Y376500D02*
X458000D01*
X443945Y374829D02*
X445616Y376500D01*
X489211Y349352D02*
Y360124D01*
X493887Y364800D02*
X513200D01*
X489211Y360124D02*
X493887Y364800D01*
X481500Y349000D02*
X488859D01*
X489211Y349352D01*
X485700Y352800D02*
X487500Y351000D01*
X486000Y356000D02*
X487502Y354498D01*
X484000Y354500D02*
Y375444D01*
X486000Y356000D02*
Y376000D01*
X437500Y373000D02*
X437500D01*
X444500Y401000D02*
X447444D01*
X442000Y403500D02*
X444500Y401000D01*
X459500Y381000D02*
X472500D01*
X460000Y378500D02*
X472000D01*
X458000Y376500D02*
X460000Y378500D01*
X472000D02*
X478000Y372500D01*
Y352500D02*
Y372500D01*
X472500Y381000D02*
X480000Y373500D01*
X471617Y384883D02*
X482028Y374472D01*
X478000Y352500D02*
X481500Y349000D01*
X401500Y363000D02*
X402500Y362000D01*
X425500D01*
X401500Y363000D02*
X401500D01*
X480000Y353000D02*
X481770Y351230D01*
X480000Y353000D02*
Y373500D01*
X463000Y399000D02*
X486000Y376000D01*
X462444Y397000D02*
X484000Y375444D01*
X482028Y353528D02*
Y374472D01*
Y353528D02*
X482756Y352800D01*
X448500Y397000D02*
X462444D01*
X459000Y402700D02*
X459000Y402700D01*
X464800D02*
X490500Y377000D01*
X459000Y402700D02*
X464800D01*
X464000Y401000D02*
X498500Y366500D01*
X450500Y401000D02*
X464000D01*
X448000Y403500D02*
X450500Y401000D01*
X447444D02*
X449444Y399000D01*
X446500D02*
X448500Y397000D01*
X446500Y403500D02*
X448000D01*
X449444Y399000D02*
X463000D01*
X498500Y366500D02*
X511500D01*
X456673Y409327D02*
X460673D01*
X491300Y378700D02*
X513300D01*
X490500Y377000D02*
X511500D01*
X460673Y409327D02*
X491300Y378700D01*
X481770Y351230D02*
X483770D01*
X484000Y351000D01*
X482756Y352800D02*
X485700D01*
X456500Y409500D02*
X456673Y409327D01*
X513200Y364800D02*
X515000Y363000D01*
X513300Y378700D02*
X515000Y377000D01*
X387089Y352540D02*
Y357089D01*
X387500Y357500D01*
X382000Y354000D02*
Y354220D01*
X387500Y342500D02*
Y347500D01*
D20*
X426149Y344895D02*
X427863D01*
X429446Y336054D02*
Y343311D01*
X427863Y344895D02*
X429446Y343311D01*
X430400Y338443D02*
X431000Y337843D01*
X426364Y347738D02*
X430400Y343702D01*
X431000Y337500D02*
Y337843D01*
X430400Y338443D02*
Y343702D01*
X429446Y336054D02*
X431000Y334500D01*
X425413Y346891D02*
X426260Y347738D01*
X416443Y346891D02*
X425413D01*
X425047Y345791D02*
X425944Y344895D01*
X415988Y345791D02*
X425047D01*
X404056Y357722D02*
X415988Y345791D01*
X404334Y359000D02*
X416443Y346891D01*
X449724Y423000D02*
X456724Y430000D01*
X435000Y423000D02*
X449724D01*
X434000Y406000D02*
Y422000D01*
X435000Y423000D01*
X434000Y406000D02*
X436500Y403500D01*
X434000Y401000D02*
X436500Y403500D01*
X442000D01*
X434000Y374000D02*
Y401000D01*
Y425000D02*
X441724D01*
X446724Y430000D01*
X412500Y423500D02*
X426697Y409303D01*
X412500Y423500D02*
Y425776D01*
X416724Y430000D01*
X426724Y428386D02*
X428500Y426611D01*
Y371791D02*
Y426611D01*
Y371791D02*
X435755Y364535D01*
X426724Y428386D02*
Y430000D01*
X430232Y372558D02*
X436487Y366303D01*
X430232Y372558D02*
Y423508D01*
X436724Y430000D01*
X432000Y373291D02*
Y423000D01*
X434000Y425000D01*
X436724Y430000D02*
Y430000D01*
X386724D02*
X392724Y424000D01*
X404500D01*
X421393Y407107D01*
X398259Y426741D02*
X399500Y425500D01*
X405500D02*
X423161Y407839D01*
X399500Y425500D02*
X405500D01*
X396724Y428324D02*
X398259Y426790D01*
X396724Y428324D02*
Y430000D01*
X398259Y426741D02*
Y426790D01*
X481000Y399500D02*
Y413500D01*
X475202Y399667D02*
X477333D01*
X484500Y399500D02*
Y412000D01*
X477333Y399667D02*
X477500Y399500D01*
X402278Y357722D02*
X404056D01*
X402556Y359000D02*
X404334D01*
X399100Y360900D02*
X402278Y357722D01*
X399556Y362000D02*
X402556Y359000D01*
X524000Y419000D02*
X528500Y423500D01*
X498000Y419000D02*
X524000D01*
X528500Y423500D02*
X543500D01*
X536000Y425000D02*
X536724Y425724D01*
X497379Y420500D02*
X523000D01*
X527500Y425000D02*
X536000D01*
X523000Y420500D02*
X527500Y425000D01*
X526000Y342500D02*
Y363500D01*
X524000Y365500D02*
X526000Y363500D01*
X515850Y368150D02*
X524500Y359500D01*
X513350Y368150D02*
X515850D01*
X524500Y343121D02*
Y359500D01*
X524000Y365500D02*
Y368442D01*
X522442Y370000D02*
X524000Y368442D01*
X516724Y328982D02*
X529000Y341257D01*
X516724Y320000D02*
Y328982D01*
X506724Y320000D02*
Y321103D01*
X501224Y324500D02*
X508000D01*
X496724Y320000D02*
X501224Y324500D01*
X492724Y326000D02*
X507379D01*
X486724Y320000D02*
X492724Y326000D01*
X476724Y320000D02*
X477097Y320372D01*
Y324096D01*
X471224Y324500D02*
X475379D01*
X466724Y320000D02*
X471224Y324500D01*
X462724Y326000D02*
X474757D01*
X456724Y320000D02*
X462724Y326000D01*
X447061Y320336D02*
Y324939D01*
X446724Y320000D02*
X447061Y320336D01*
X441224Y324500D02*
X444500D01*
X436724Y320000D02*
X441224Y324500D01*
X432724Y326000D02*
X443879D01*
X426724Y320000D02*
X432724Y326000D01*
X417596Y324096D02*
X421000Y327500D01*
X417596Y320872D02*
Y324096D01*
X416724Y320000D02*
X417596Y320872D01*
X411724Y325000D02*
X416379D01*
X406724Y320000D02*
X411724Y325000D01*
X403224Y326500D02*
X415757D01*
X396724Y320000D02*
X403224Y326500D01*
X395879Y324500D02*
X399379Y328000D01*
X391224Y324500D02*
X395879D01*
X386724Y320000D02*
X391224Y324500D01*
X399379Y328000D02*
X415136D01*
X463414Y416000D02*
X476724Y429310D01*
Y430000D01*
X543500Y423500D02*
X545904Y425904D01*
Y429179D02*
X546724Y430000D01*
X545904Y425904D02*
Y429179D01*
X536724Y425724D02*
Y430000D01*
X522000Y422000D02*
X525904Y425904D01*
Y429179D02*
X526724Y430000D01*
X525904Y425904D02*
Y429179D01*
X515904Y425904D02*
Y429179D01*
X516724Y430000D01*
X513500Y423500D02*
X515904Y425904D01*
X506000Y425000D02*
X506501Y425502D01*
X506724Y425724D01*
Y430000D01*
X481000Y413500D02*
X496724Y429224D01*
Y430000D01*
X479150Y414150D02*
X486724Y421724D01*
Y430000D01*
X462000Y417000D02*
X466724Y421724D01*
Y430000D01*
X409500Y424000D02*
X424929Y408571D01*
X407596Y425904D02*
X409500Y424000D01*
X406724Y430000D02*
X407596Y429128D01*
Y425904D02*
Y429128D01*
X496000Y356500D02*
X498000Y354500D01*
X493799Y356500D02*
X496000D01*
X498000Y341000D02*
Y354500D01*
X496500Y339500D02*
X498000Y341000D01*
X494507Y354493D02*
X496500Y352500D01*
Y349500D02*
Y352500D01*
X494500Y347500D02*
X496500Y349500D01*
X492681Y349173D02*
X494504Y350996D01*
X496502Y336002D02*
Y336003D01*
X499500Y339000D01*
X491248Y356748D02*
X492500Y358000D01*
X491248Y354744D02*
Y356748D01*
X492500Y358000D02*
X497500D01*
X499500Y356000D01*
Y339000D02*
Y356000D01*
X491000Y354496D02*
X491248Y354744D01*
X492650Y355350D02*
X493799Y356500D01*
X492650Y352645D02*
Y355350D01*
X491002Y350998D02*
X492650Y352645D01*
X494500Y334500D02*
Y347500D01*
X491500Y333500D02*
X492681Y334681D01*
Y349173D01*
X491000Y397500D02*
Y416243D01*
X496757Y422000D01*
X522000D01*
X492500Y415621D02*
X497379Y420500D01*
X494000Y415000D02*
X498000Y419000D01*
X494000Y402000D02*
Y415000D01*
X492500Y400000D02*
Y415621D01*
X523942Y373500D02*
X529000Y368442D01*
X515000Y370000D02*
X522442D01*
X515000Y373500D02*
X523942D01*
X527500Y341879D02*
Y367442D01*
X523292Y371650D02*
X527500Y367442D01*
X529000Y341257D02*
Y368442D01*
X513350Y371650D02*
X523292D01*
X508000Y324500D02*
X526000Y342500D01*
X462000Y410868D02*
Y417000D01*
X463414Y411454D02*
Y416000D01*
X479150Y397850D02*
Y414150D01*
X496000Y423500D02*
X513500D01*
X495166Y425000D02*
X506000D01*
X484500Y412000D02*
X496000Y423500D01*
X482850Y397650D02*
Y412683D01*
X495166Y425000D01*
X494000Y402000D02*
X497000Y399000D01*
X492500Y400000D02*
X493500Y399000D01*
X491000Y397500D02*
X493000Y395500D01*
X497000D01*
X482850Y397650D02*
X484500Y396000D01*
X479150Y397850D02*
X481000Y396000D01*
X462000Y410868D02*
X476619Y396249D01*
X477251D02*
X477500Y396000D01*
X463414Y411454D02*
X475202Y399667D01*
X476619Y396249D02*
X477251D01*
X515543Y413564D02*
X522000Y407107D01*
Y400500D02*
Y407107D01*
X518500Y397000D02*
X522000Y400500D01*
X502500Y397000D02*
X518500D01*
X500500Y399000D02*
X502500Y397000D01*
X519500Y395500D02*
X524343Y400343D01*
Y413564D01*
X500500Y395500D02*
X519500D01*
X416379Y325000D02*
X420379Y329000D01*
X415757Y326500D02*
X419757Y330500D01*
X415136Y328000D02*
X419136Y332000D01*
X420379Y329000D02*
X442636D01*
X419757Y330500D02*
X442015D01*
X421000Y327500D02*
X443257D01*
X419136Y332000D02*
X441393D01*
X442015Y330500D02*
X446515Y335000D01*
X442636Y329000D02*
X447136Y333500D01*
X447061Y324939D02*
X449621Y327500D01*
X443879Y326000D02*
X448379Y330500D01*
X443257Y327500D02*
X447757Y332000D01*
X441393D02*
X445893Y336500D01*
X444500Y324500D02*
X449000Y329000D01*
X477500Y335121D02*
Y349850D01*
X471000Y333500D02*
X474500Y337000D01*
X469150Y374850D02*
X474500Y369500D01*
X468000Y373000D02*
X473000Y368000D01*
X467350Y371150D02*
X471500Y367000D01*
X470000Y376500D02*
X476000Y370500D01*
X469000Y336500D02*
X471500Y339000D01*
Y367000D01*
X470000Y335000D02*
X473000Y338000D01*
X474500Y337000D02*
Y369500D01*
X476000Y336000D02*
Y370500D01*
X473000Y338000D02*
Y368000D01*
X472000Y332000D02*
X476000Y336000D01*
X477500Y349850D02*
X477650Y350000D01*
X472879Y330500D02*
X477500Y335121D01*
X492000Y332000D02*
X494500Y334500D01*
X445893Y336500D02*
X469000D01*
X446515Y335000D02*
X470000D01*
X447136Y333500D02*
X471000D01*
X478621Y332000D02*
X492000D01*
X478000Y333500D02*
X491500D01*
X447757Y332000D02*
X472000D01*
X449621Y327500D02*
X474121D01*
X448379Y330500D02*
X472879D01*
X449000Y329000D02*
X473500D01*
X474121Y327500D02*
X478621Y332000D01*
X473500Y329000D02*
X478000Y333500D01*
X475379Y324500D02*
X479879Y329000D01*
X474757Y326000D02*
X479257Y330500D01*
X477097Y324096D02*
X480500Y327500D01*
X479257Y330500D02*
X505515D01*
X480500Y327500D02*
X506757D01*
X479879Y329000D02*
X506136D01*
X507379Y326000D02*
X524500Y343121D01*
X506136Y329000D02*
X521500Y344364D01*
X506757Y327500D02*
X523000Y343743D01*
X505515Y330500D02*
X520000Y344985D01*
X506724Y321103D02*
X527500Y341879D01*
X523000Y343743D02*
Y358500D01*
X521500Y344364D02*
Y357500D01*
X520000Y344985D02*
Y356500D01*
X515000Y359500D02*
X517000D01*
X520000Y356500D01*
X517850Y361150D02*
X521500Y357500D01*
X511500Y359500D02*
X513150Y361150D01*
X517850D01*
X515000Y366500D02*
X523000Y358500D01*
X511500Y370000D02*
X513350Y368150D01*
X511500Y373500D02*
X513350Y371650D01*
X434000Y374000D02*
X437000Y371000D01*
X439500D01*
X441500Y373000D01*
X435013Y360278D02*
X454778D01*
X423161Y369630D02*
Y407839D01*
X433558Y359232D02*
X456232D01*
X424929Y370362D02*
X435013Y360278D01*
X421393Y368897D02*
X432826Y357464D01*
X456964D01*
X424929Y370362D02*
Y408571D01*
X432000Y373291D02*
X437220Y368071D01*
X454778Y360278D02*
X457000Y362500D01*
X426697Y371094D02*
Y409303D01*
X454045Y362045D02*
X456150Y364150D01*
X421393Y368897D02*
Y407107D01*
X426697Y371094D02*
X435745Y362045D01*
X437220Y368071D02*
X452571D01*
X435745Y362045D02*
X454045D01*
X423161Y369630D02*
X433558Y359232D01*
X435755Y364535D02*
X454036D01*
X436487Y366303D02*
X453303D01*
X452571Y368071D02*
X454000Y369500D01*
X457000Y357500D02*
Y357500D01*
X453303Y366303D02*
X454650Y367650D01*
X456232Y359232D02*
X457500Y360500D01*
X456964Y357464D02*
X457000Y357500D01*
X454036Y364535D02*
X455500Y366000D01*
X454000Y369500D02*
X463000D01*
X454650Y367650D02*
X464650D01*
X455500Y366000D02*
X463000D01*
X456150Y364150D02*
X464650D01*
X457500Y360500D02*
X464500D01*
X457000Y362500D02*
X463000D01*
X458500Y359000D02*
X466500D01*
X457000Y357500D02*
X458500Y359000D01*
X464650Y367650D02*
X466500Y369500D01*
X464650Y364150D02*
X466500Y366000D01*
X464500Y360500D02*
X466500Y362500D01*
X464850Y371150D02*
X467350D01*
X463000Y373000D02*
X464850Y371150D01*
X466500Y373000D02*
X468000D01*
X466500Y376500D02*
X470000D01*
X463000D02*
X464650Y374850D01*
X469150D01*
X384209Y362000D02*
X399556D01*
X382732Y360523D02*
X384209Y362000D01*
X382732Y354952D02*
Y360523D01*
X383832Y353332D02*
Y360067D01*
X384664Y360900D01*
X399100D01*
X382000Y354220D02*
X382732Y354952D01*
X382000Y351500D02*
X383832Y353332D01*
D50*
X576968Y340476D02*
D03*
Y362524D02*
D03*
D89*
X409449Y399574D02*
X409449D01*
X386248Y412622D02*
X398098D01*
X408440Y402280D01*
X397601Y411422D02*
X409449Y399574D01*
X409253Y402280D02*
X409454Y402079D01*
X408440Y402280D02*
X409253D01*
X386745Y411422D02*
X397601D01*
X370762Y396945D02*
X371412Y397595D01*
Y398795D02*
X372421D01*
X370478Y399445D02*
X370762D01*
X371412Y397595D02*
X372918D01*
X370762Y399445D02*
X371412Y398795D01*
X372918Y397595D02*
X386745Y411422D01*
X372421Y398795D02*
X386248Y412622D01*
X370478Y396945D02*
X370762D01*
D91*
X387500Y357500D02*
D03*
X397500Y347500D02*
D03*
X387500D02*
D03*
X397500Y357500D02*
D03*
D92*
X576724Y430000D02*
D03*
X566724D02*
D03*
X556724D02*
D03*
X546724D02*
D03*
X576724Y320000D02*
D03*
X566724D02*
D03*
X556724D02*
D03*
X546724D02*
D03*
X526724Y430000D02*
D03*
X516724D02*
D03*
X506724D02*
D03*
X496724D02*
D03*
X346724D02*
D03*
X356724D02*
D03*
X366724D02*
D03*
X376724D02*
D03*
X386724D02*
D03*
X396724D02*
D03*
X406724D02*
D03*
X416724D02*
D03*
X426724D02*
D03*
X436724D02*
D03*
X446724D02*
D03*
X456724D02*
D03*
X466724D02*
D03*
X476724D02*
D03*
X486724D02*
D03*
X526724Y320000D02*
D03*
X516724D02*
D03*
X506724D02*
D03*
X496724D02*
D03*
X346724D02*
D03*
X356724D02*
D03*
X366724D02*
D03*
X376724D02*
D03*
X386724D02*
D03*
X396724D02*
D03*
X406724D02*
D03*
X416724D02*
D03*
X426724D02*
D03*
X436724D02*
D03*
X446724D02*
D03*
X456724D02*
D03*
X466724D02*
D03*
X476724D02*
D03*
X486724D02*
D03*
D93*
X536724Y430000D02*
D03*
Y320000D02*
D03*
X336724Y430000D02*
D03*
Y320000D02*
D03*
D94*
X351095Y386872D02*
D03*
Y409628D02*
D03*
Y340372D02*
D03*
Y363128D02*
D03*
D95*
X336724Y381242D02*
D03*
Y415258D02*
D03*
Y334742D02*
D03*
Y368758D02*
D03*
D96*
X353181Y381242D02*
D03*
Y415258D02*
D03*
Y334742D02*
D03*
Y368758D02*
D03*
D97*
X431000Y337500D02*
D03*
X426149Y344895D02*
D03*
Y347738D02*
D03*
X401500Y363000D02*
D03*
X400000Y342000D02*
D03*
X382000Y345500D02*
D03*
X407000Y336000D02*
D03*
X402565Y355608D02*
D03*
X387500Y342500D02*
D03*
X402500Y346000D02*
D03*
X466283Y383028D02*
D03*
X409454Y402079D02*
D03*
X576968Y362524D02*
D03*
X569000Y362547D02*
D03*
X584500D02*
D03*
Y340500D02*
D03*
X569000D02*
D03*
X576968Y340476D02*
D03*
X329500Y396500D02*
D03*
Y401500D02*
D03*
X332000Y399000D02*
D03*
Y404000D02*
D03*
X329500Y406500D02*
D03*
Y411500D02*
D03*
X332000Y409000D02*
D03*
Y394000D02*
D03*
Y389000D02*
D03*
X329500Y391500D02*
D03*
Y386500D02*
D03*
Y340000D02*
D03*
Y345000D02*
D03*
X332000Y342500D02*
D03*
Y347500D02*
D03*
Y362500D02*
D03*
X329500Y365000D02*
D03*
Y360000D02*
D03*
X332000Y357500D02*
D03*
Y352500D02*
D03*
X329500Y355000D02*
D03*
Y350000D02*
D03*
X437500Y406000D02*
D03*
X452500Y422000D02*
D03*
X422000D02*
D03*
X386000Y404000D02*
D03*
X391381Y398429D02*
D03*
X484500Y399500D02*
D03*
X481000D02*
D03*
X477500D02*
D03*
X503200Y344079D02*
D03*
X511000Y339500D02*
D03*
X516500Y352000D02*
D03*
X495000Y367000D02*
D03*
X488500Y363500D02*
D03*
X501000Y368500D02*
D03*
Y375000D02*
D03*
Y380500D02*
D03*
Y384500D02*
D03*
X488000Y385500D02*
D03*
X492500Y381000D02*
D03*
X488000Y374500D02*
D03*
X493000Y375000D02*
D03*
X455500Y380477D02*
D03*
X426000Y353000D02*
D03*
Y357500D02*
D03*
X422000Y350500D02*
D03*
X418000D02*
D03*
X422000Y355000D02*
D03*
X418000D02*
D03*
X437000Y385500D02*
D03*
X413410Y369883D02*
D03*
X370666Y393520D02*
D03*
X377140Y398200D02*
D03*
X369198Y404567D02*
D03*
X375500Y411500D02*
D03*
X397793Y415602D02*
D03*
X395500Y409500D02*
D03*
X397944Y406281D02*
D03*
X367500Y378500D02*
D03*
X409449Y399574D02*
D03*
X378692Y412617D02*
D03*
X375500Y413500D02*
D03*
X494504Y350996D02*
D03*
X496502Y336002D02*
D03*
X496500Y339500D02*
D03*
X491000Y354496D02*
D03*
X491002Y350998D02*
D03*
X487502Y354498D02*
D03*
X487500Y351000D02*
D03*
X484000Y354500D02*
D03*
X494507Y354493D02*
D03*
X489500Y346000D02*
D03*
X515424Y391402D02*
D03*
X532877Y371954D02*
D03*
X527924Y371902D02*
D03*
X530424Y374402D02*
D03*
X522000Y368000D02*
D03*
X525424Y374402D02*
D03*
X359500Y336000D02*
D03*
X362000D02*
D03*
Y341000D02*
D03*
X359500Y367500D02*
D03*
X362000D02*
D03*
Y362500D02*
D03*
X359500Y381500D02*
D03*
X362000D02*
D03*
Y384000D02*
D03*
Y386500D02*
D03*
Y389000D02*
D03*
Y412500D02*
D03*
X359500Y415000D02*
D03*
X362000D02*
D03*
X396000Y352500D02*
D03*
X399000D02*
D03*
X466500Y416000D02*
D03*
X467000Y410500D02*
D03*
X500500Y395500D02*
D03*
X469500Y346000D02*
D03*
X477650Y350000D02*
D03*
X490500Y339500D02*
D03*
X479500Y340000D02*
D03*
X462500D02*
D03*
X515000Y373500D02*
D03*
X524000Y365500D02*
D03*
X419500Y371500D02*
D03*
X401025Y417382D02*
D03*
X407541Y417294D02*
D03*
X441500Y373000D02*
D03*
X437500D02*
D03*
X442000Y403500D02*
D03*
X497000Y395500D02*
D03*
X431000Y334500D02*
D03*
X466500Y359000D02*
D03*
Y376500D02*
D03*
X507000Y339500D02*
D03*
X425500Y362000D02*
D03*
X459000Y356500D02*
D03*
Y374000D02*
D03*
X463000Y362500D02*
D03*
X466500D02*
D03*
X463000Y366000D02*
D03*
X466500D02*
D03*
Y373000D02*
D03*
X463000D02*
D03*
X466500Y369500D02*
D03*
X463000Y376500D02*
D03*
Y369500D02*
D03*
X464750Y346271D02*
D03*
X493500Y399000D02*
D03*
X497000D02*
D03*
X500500D02*
D03*
X481000Y396000D02*
D03*
X484500D02*
D03*
X477500D02*
D03*
X459000Y402700D02*
D03*
X443945Y374829D02*
D03*
X437500Y377000D02*
D03*
X446500Y399000D02*
D03*
Y403500D02*
D03*
X511500Y366500D02*
D03*
Y370000D02*
D03*
X484000Y351000D02*
D03*
X459000Y415000D02*
D03*
X456500Y409500D02*
D03*
X515000Y359500D02*
D03*
X511500D02*
D03*
X515000Y363000D02*
D03*
X511500D02*
D03*
X510500Y380500D02*
D03*
X511500Y377000D02*
D03*
X518500Y368000D02*
D03*
X515000Y370000D02*
D03*
Y366500D02*
D03*
X511500Y373500D02*
D03*
X515000Y377000D02*
D03*
X456500Y384000D02*
D03*
X382000Y351500D02*
D03*
Y354000D02*
D03*
X422000Y337000D02*
D03*
Y341500D02*
D03*
X447500Y340000D02*
D03*
X421500Y364000D02*
D03*
X362000Y338500D02*
D03*
X370000D02*
D03*
Y343000D02*
D03*
Y346000D02*
D03*
Y360500D02*
D03*
X362000Y365000D02*
D03*
X370000D02*
D03*
X405754Y384095D02*
D03*
X379920Y399350D02*
D03*
X377144Y395137D02*
D03*
X375578Y390343D02*
D03*
X395500Y404500D02*
D03*
Y407000D02*
D03*
X397818Y375970D02*
D03*
X401000Y377787D02*
D03*
X400907Y398120D02*
D03*
X403209Y400703D02*
D03*
X400972Y404719D02*
D03*
X378736Y417353D02*
D03*
X370478Y396945D02*
D03*
Y399445D02*
D03*
X467000Y340000D02*
D03*
X487000Y410000D02*
D03*
X471000Y410500D02*
D03*
X475500Y413000D02*
D03*
X515000Y401500D02*
D03*
X512543Y407197D02*
D03*
X496771Y403851D02*
D03*
X511500Y404000D02*
D03*
X509500Y412000D02*
D03*
X499000D02*
D03*
X504134Y406312D02*
D03*
X537877Y376955D02*
D03*
X522924Y376902D02*
D03*
X527924D02*
D03*
X513000Y387900D02*
D03*
X517924Y388902D02*
D03*
X522924D02*
D03*
X527924D02*
D03*
X532924D02*
D03*
X548000Y383000D02*
D03*
X547877Y356955D02*
D03*
Y361954D02*
D03*
Y366954D02*
D03*
Y371954D02*
D03*
Y376955D02*
D03*
X547924Y388902D02*
D03*
Y393902D02*
D03*
Y398902D02*
D03*
X560377Y344455D02*
D03*
X557877Y341954D02*
D03*
X555377Y344455D02*
D03*
X552877Y346954D02*
D03*
Y341954D02*
D03*
X547877D02*
D03*
X550377Y344455D02*
D03*
X547877Y346954D02*
D03*
X545377Y344455D02*
D03*
X542877Y341954D02*
D03*
X540377Y344455D02*
D03*
X537877Y346954D02*
D03*
X559924Y411402D02*
D03*
X557424Y413902D02*
D03*
X554924Y411402D02*
D03*
X552424Y413902D02*
D03*
X547424Y408902D02*
D03*
X552424D02*
D03*
X549924Y411402D02*
D03*
X547424Y413902D02*
D03*
X544924Y411402D02*
D03*
X542424Y413902D02*
D03*
X539924Y411402D02*
D03*
X537424Y408902D02*
D03*
X535424Y406402D02*
D03*
X537924Y403902D02*
D03*
X535424Y401402D02*
D03*
Y396402D02*
D03*
X537924Y398902D02*
D03*
Y393902D02*
D03*
X535424Y391402D02*
D03*
X537924Y388902D02*
D03*
X540377Y349454D02*
D03*
X535377D02*
D03*
Y354454D02*
D03*
X537877Y351955D02*
D03*
Y356955D02*
D03*
X535377Y359454D02*
D03*
Y364455D02*
D03*
X537877Y366954D02*
D03*
Y361954D02*
D03*
X535377Y369455D02*
D03*
Y374454D02*
D03*
X537877Y371954D02*
D03*
X550424Y401402D02*
D03*
X539924Y406402D02*
D03*
X525424Y379402D02*
D03*
X555377Y354454D02*
D03*
X550377D02*
D03*
X535377Y379454D02*
D03*
X520424Y386402D02*
D03*
X525424D02*
D03*
X530424D02*
D03*
X535424D02*
D03*
X540424Y401402D02*
D03*
X545424D02*
D03*
X540424Y396402D02*
D03*
X545424D02*
D03*
Y391402D02*
D03*
X540424D02*
D03*
X545424Y386402D02*
D03*
X540424D02*
D03*
X545377Y379454D02*
D03*
X540377D02*
D03*
X545377Y374454D02*
D03*
X540377D02*
D03*
Y369455D02*
D03*
X545377D02*
D03*
Y354454D02*
D03*
X540377D02*
D03*
Y359454D02*
D03*
Y364455D02*
D03*
X545377Y359454D02*
D03*
Y364455D02*
D03*
X515500Y385400D02*
D03*
Y380400D02*
D03*
X510500Y385400D02*
D03*
X532175Y376792D02*
D03*
X518775D02*
D03*
D105*
X387500Y357500D02*
D03*
X524343Y413564D02*
D03*
X515543D02*
D03*
X397500Y347500D02*
D03*
Y357500D02*
D03*
X387500Y347500D02*
D03*
M02*
