M48
;Layer_Color=9474304
;FILE_FORMAT=2:5
INCH,LZ
;TYPE=PLATED
T1F00S00C0.00800
T3F00S00C0.02559
T4F00S00C0.03000
T5F00S00C0.03543
%
T01
X03295Y034
Y0345
X0332Y03425
Y03475
Y03525
Y03575
Y03625
X03295Y0365
Y036
Y0355
Y035
Y03865
X0332Y0389
Y0394
X03295Y03965
Y04015
X0332Y0399
Y0404
X03295Y04065
Y04115
X0332Y0409
X03295Y03915
X0362Y0389
Y03865
Y0384
Y03815
X03595
X03675Y03785
X037Y0365
Y03605
X0362Y03625
Y0365
Y03675
X03595
X0362Y0341
Y03385
Y0336
X03595
X037Y03385
Y0343
Y0346
X0382Y03455
Y03515
Y0354
X0396Y03525
X0399
X0402565Y0355608
X04015Y0363
X0401Y0377787
X0397818Y037597
X0405754Y0384095
X0400907Y039812
X0403209Y0400703
X0400972Y0404719
X0397944Y0406281
X03955Y0407
Y04095
Y04045
X0386Y0404
X037992Y039935
X037714Y03982
X0377144Y0395137
X0375578Y0390343
X0370666Y039352
X0370478Y0396945
Y0399445
X0369198Y0404567
X03755Y04115
Y04135
X0378692Y0412617
X0378736Y0417353
X0362Y0415
Y04125
X03595Y0415
X0397793Y0415602
X0401025Y0417382
X0407541Y0417294
X0409454Y0402079
X0409449Y0399574
X0391381Y0398429
X041341Y0369883
X04195Y03715
X04215Y0364
X04255Y0362
X0426Y03575
Y0353
X0426149Y0347738
Y0344895
X0422Y03415
Y0337
X0431Y03375
Y03345
X04475Y034
X04625
X0467
X046475Y0346271
X04665Y0359
Y03625
X0463
Y0366
X04665
Y03695
Y0373
Y03765
X0463
Y0373
Y03695
X0459Y0374
X04555Y0380477
X04565Y0384
X0466283Y0383028
X0459Y04027
X04565Y04095
X0459Y0415
X04665Y0416
X0467Y04105
X04525Y0422
X04465Y04035
X0442
X04375Y0406
X04465Y0399
X0437Y03855
X04375Y0377
Y0373
X04415
X0443945Y0374829
X0459Y03565
X0422Y0355
X0418
Y03505
X0422
X04025Y0346
X04Y0342
X0407Y0336
X03875Y03425
X0422Y0422
X0471Y04105
X04755Y0413
X0487Y041
X04845Y03995
X0481
X04775
Y0396
X0481
X04845
X04935Y0399
X0497
Y03955
X05005
Y0399
X0496771Y0403851
X0504134Y0406312
X0512543Y0407197
X05115Y0404
X0515Y04015
X0515424Y0391402
X0517924Y0388902
X0522924
X0527924
X0532924
X0535424Y0391402
Y0396402
Y0401402
Y0406402
X0537424Y0408902
X0539924Y0411402
X0544924
X0547424Y0408902
X0552424
X0554924Y0411402
X0559924
X0557424Y0413902
X0552424
X0549924Y0411402
X0547424Y0413902
X0542424
X0539924Y0406402
X0537924Y0403902
Y0398902
Y0393902
Y0388902
X0535424Y0386402
X0530424
X0525424
X0520424
X05155Y03854
X0513Y03879
X05105Y03854
Y03805
X05115Y0377
Y03735
X0515
Y037
X05115
Y03665
Y0363
Y03595
X0515
Y0363
Y03665
X05185Y0368
X0522
X0524Y03655
X0527924Y0371902
X0530424Y0374402
X0532175Y0376792
X0527924Y0376902
X0525424Y0374402
X0522924Y0376902
X0518775Y0376792
X0515Y0377
X05155Y03804
X0525424Y0379402
X0535377Y0379454
X0537877Y0376955
X0535377Y0374454
X0532877Y0371954
X0535377Y0369455
Y0364455
Y0359454
Y0354454
Y0349454
X0537877Y0346954
X0540377Y0344455
X0545377
X0547877Y0341954
X0552877
X0557877
X0560377Y0344455
X0555377
X0552877Y0346954
X0550377Y0344455
X0547877Y0346954
Y0356955
Y0361954
Y0366954
Y0371954
Y0376955
X0545377Y0379454
X0540377
Y0374454
X0537877Y0371954
Y0366954
Y0361954
Y0356955
Y0351955
X0540377Y0349454
Y0354454
X0545377
X0550377
X0555377
X0545377Y0359454
X0540377
Y0364455
Y0369455
X0545377
Y0374454
Y0364455
X0548Y0383
X0547924Y0388902
Y0393902
Y0398902
X0550424Y0401402
X0545424
X0540424
Y0396402
X0545424
Y0391402
X0540424
Y0386402
X0545424
X0501Y03845
Y03805
Y0375
Y03685
X0495Y0367
X04885Y03635
X0487502Y0354498
X0491Y0354496
X0491002Y0350998
X0494504Y0350996
X0494507Y0354493
X04875Y0351
X0484
Y03545
X047765Y035
X04795Y034
X04905Y03395
X04965
X0496502Y0336002
X0507Y03395
X0511
X05032Y0344079
X04895Y0346
X04695
X0488Y03745
X0493Y0375
X04925Y0381
X0488Y03855
X0499Y0412
X05095
X05165Y0352
X0542877Y0341954
X0569Y03405
X0576968Y0340476
X05845Y03405
Y0362547
X0576968Y0362524
X0569Y0362547
T03
X0351095Y0340372
Y0363128
Y0386872
Y0409628
T04
X03875Y03475
Y03575
X03975
Y03475
X0496724Y032
X0506724
X0516724
X0526724
Y043
X0516724
X0506724
X0496724
T05
X0336724Y032
X0346724
X0356724
X0366724
X0376724
X0386724
X0396724
X0406724
X0416724
X0426724
X0436724
X0446724
X0456724
X0466724
Y043
X0456724
X0446724
X0436724
X0426724
X0416724
X0406724
X0396724
X0386724
X0376724
X0366724
X0356724
X0346724
X0336724
X0476724
X0486724
X0536724
X0546724
X0556724
X0566724
X0576724
Y032
X0566724
X0556724
X0546724
X0536724
X0486724
X0476724
M30
