G04*
G04 #@! TF.GenerationSoftware,Altium Limited,Altium Designer,21.1.1 (26)*
G04*
G04 Layer_Physical_Order=1*
G04 Layer_Color=255*
%FSLAX25Y25*%
%MOIN*%
G70*
G04*
G04 #@! TF.SameCoordinates,D03CA9B7-62B2-491D-8750-CE627D1449E0*
G04*
G04*
G04 #@! TF.FilePolarity,Positive*
G04*
G01*
G75*
%ADD15C,0.01000*%
%ADD16C,0.00600*%
%ADD17C,0.00800*%
%ADD20C,0.00500*%
%ADD23R,0.01575X0.01968*%
%ADD24O,0.07087X0.01100*%
%ADD25O,0.01100X0.07087*%
%ADD26R,0.01968X0.01575*%
%ADD28R,0.04000X0.00800*%
%ADD29R,0.00800X0.04000*%
%ADD30R,0.03000X0.03000*%
%ADD31R,0.04134X0.07874*%
%ADD32R,0.02500X0.03000*%
%ADD33R,0.07874X0.04134*%
G04:AMPARAMS|DCode=34|XSize=39.37mil|YSize=17.72mil|CornerRadius=4.43mil|HoleSize=0mil|Usage=FLASHONLY|Rotation=270.000|XOffset=0mil|YOffset=0mil|HoleType=Round|Shape=RoundedRectangle|*
%AMROUNDEDRECTD34*
21,1,0.03937,0.00886,0,0,270.0*
21,1,0.03051,0.01772,0,0,270.0*
1,1,0.00886,-0.00443,-0.01526*
1,1,0.00886,-0.00443,0.01526*
1,1,0.00886,0.00443,0.01526*
1,1,0.00886,0.00443,-0.01526*
%
%ADD34ROUNDEDRECTD34*%
%ADD35R,0.05000X0.03500*%
%ADD36R,0.02953X0.02362*%
%ADD37R,0.05500X0.04000*%
%ADD38R,0.03000X0.03000*%
%ADD39R,0.03150X0.02953*%
%ADD40R,0.00984X0.03150*%
%ADD41R,0.03150X0.00984*%
%ADD42R,0.06693X0.06693*%
%ADD43R,0.03858X0.13386*%
%ADD44R,0.05512X0.04724*%
%ADD45R,0.03500X0.03500*%
%ADD46R,0.01102X0.02165*%
%ADD47R,0.01575X0.02362*%
%ADD48R,0.03000X0.02500*%
%ADD49R,0.23622X0.04724*%
%ADD50R,0.19685X0.04724*%
%ADD51R,0.05709X0.01181*%
%ADD52R,0.04724X0.05906*%
G04:AMPARAMS|DCode=53|XSize=15.75mil|YSize=74.8mil|CornerRadius=3.94mil|HoleSize=0mil|Usage=FLASHONLY|Rotation=90.000|XOffset=0mil|YOffset=0mil|HoleType=Round|Shape=RoundedRectangle|*
%AMROUNDEDRECTD53*
21,1,0.01575,0.06693,0,0,90.0*
21,1,0.00787,0.07480,0,0,90.0*
1,1,0.00787,0.03347,0.00394*
1,1,0.00787,0.03347,-0.00394*
1,1,0.00787,-0.03347,-0.00394*
1,1,0.00787,-0.03347,0.00394*
%
%ADD53ROUNDEDRECTD53*%
%ADD58R,0.25600X0.25600*%
%ADD89C,0.00750*%
%ADD90C,0.01155*%
%ADD91C,0.03000*%
%ADD92C,0.06693*%
%ADD93R,0.06693X0.06693*%
%ADD94C,0.02559*%
G04:AMPARAMS|DCode=95|XSize=39.37mil|YSize=62.99mil|CornerRadius=14.76mil|HoleSize=0mil|Usage=FLASHONLY|Rotation=270.000|XOffset=0mil|YOffset=0mil|HoleType=Round|Shape=RoundedRectangle|*
%AMROUNDEDRECTD95*
21,1,0.03937,0.03347,0,0,270.0*
21,1,0.00984,0.06299,0,0,270.0*
1,1,0.02953,-0.01673,-0.00492*
1,1,0.02953,-0.01673,0.00492*
1,1,0.02953,0.01673,0.00492*
1,1,0.02953,0.01673,-0.00492*
%
%ADD95ROUNDEDRECTD95*%
G04:AMPARAMS|DCode=96|XSize=39.37mil|YSize=82.68mil|CornerRadius=14.76mil|HoleSize=0mil|Usage=FLASHONLY|Rotation=270.000|XOffset=0mil|YOffset=0mil|HoleType=Round|Shape=RoundedRectangle|*
%AMROUNDEDRECTD96*
21,1,0.03937,0.05315,0,0,270.0*
21,1,0.00984,0.08268,0,0,270.0*
1,1,0.02953,-0.02657,-0.00492*
1,1,0.02953,-0.02657,0.00492*
1,1,0.02953,0.02657,0.00492*
1,1,0.02953,0.02657,-0.00492*
%
%ADD96ROUNDEDRECTD96*%
%ADD97C,0.01800*%
G36*
X582795Y433994D02*
X583792Y433581D01*
X584649Y432924D01*
X585306Y432068D01*
X585719Y431070D01*
X585797Y430478D01*
X585858Y430000D01*
X585858Y430000D01*
X585858Y429508D01*
Y354212D01*
X562839D01*
Y352446D01*
X557835D01*
Y352637D01*
X555166D01*
Y352446D01*
X554050D01*
Y352700D01*
X550350D01*
Y349500D01*
X554050D01*
Y350554D01*
X555166D01*
Y350363D01*
X557835D01*
Y350554D01*
X562839D01*
Y348788D01*
X585858D01*
Y320000D01*
X585859Y319994D01*
X585719Y318930D01*
X585306Y317932D01*
X584649Y317076D01*
X583792Y316419D01*
X582795Y316005D01*
X582202Y315928D01*
X581724Y315867D01*
X581724Y315867D01*
X581233Y315867D01*
X579258D01*
X579124Y316367D01*
X579393Y316522D01*
X580202Y317331D01*
X580775Y318322D01*
X581071Y319428D01*
Y319500D01*
X572378D01*
Y319428D01*
X572674Y318322D01*
X573246Y317331D01*
X574056Y316522D01*
X574325Y316367D01*
X574191Y315867D01*
X569258D01*
X569124Y316367D01*
X569393Y316522D01*
X570202Y317331D01*
X570775Y318322D01*
X571071Y319428D01*
Y319500D01*
X562378D01*
Y319428D01*
X562674Y318322D01*
X563246Y317331D01*
X564056Y316522D01*
X564325Y316367D01*
X564191Y315867D01*
X557512D01*
X557446Y316367D01*
X558151Y316556D01*
X558994Y317042D01*
X559682Y317730D01*
X560169Y318573D01*
X560421Y319513D01*
Y320487D01*
X560169Y321427D01*
X559682Y322270D01*
X558994Y322958D01*
X558151Y323445D01*
X557211Y323696D01*
X556238D01*
X555298Y323445D01*
X554601Y323042D01*
X552684Y324959D01*
X552224Y325149D01*
X545269D01*
X539459Y330959D01*
X539000Y331149D01*
X530769D01*
X517649Y344269D01*
Y346892D01*
X518075Y347071D01*
Y347071D01*
X521925D01*
Y348133D01*
X523575D01*
Y347071D01*
X527425D01*
Y350724D01*
X523575D01*
Y349662D01*
X521925D01*
Y350724D01*
X519157D01*
X517750Y352131D01*
Y352249D01*
X517560Y352708D01*
X517208Y353060D01*
X516749Y353250D01*
X516251D01*
X515792Y353060D01*
X515440Y352708D01*
X515250Y352249D01*
X514750Y352063D01*
X513649Y353164D01*
Y356731D01*
X514119Y357201D01*
X516350D01*
X516809Y357391D01*
X517459Y358041D01*
X517649Y358500D01*
Y360500D01*
X517459Y360959D01*
X516609Y361809D01*
X516379Y361904D01*
X516148Y362184D01*
X516146Y362499D01*
X516250Y362751D01*
Y363249D01*
X516060Y363708D01*
X515708Y364060D01*
X515249Y364250D01*
X514751D01*
X514693Y364226D01*
X513759Y365159D01*
X513300Y365349D01*
X512824D01*
X512681Y365590D01*
X512583Y365849D01*
X512750Y366251D01*
Y366749D01*
X513080Y367249D01*
X513297Y367285D01*
X513774Y366807D01*
X513750Y366749D01*
Y366251D01*
X513940Y365792D01*
X514292Y365440D01*
X514751Y365250D01*
X515249D01*
X515708Y365440D01*
X516060Y365792D01*
X516213Y366162D01*
X516540Y366298D01*
X516750Y366332D01*
X518792Y364289D01*
X518666Y363984D01*
X518666D01*
Y361709D01*
X519728D01*
X520077Y361209D01*
X520000Y361000D01*
X519746Y360732D01*
X519459Y360637D01*
X518666D01*
Y358363D01*
X519351D01*
Y356826D01*
X518075D01*
Y353174D01*
X521925D01*
Y356826D01*
X520649D01*
Y358363D01*
X521334D01*
Y360349D01*
X521484Y360787D01*
X521484Y361075D01*
X521484Y361559D01*
X521334Y361997D01*
Y363984D01*
X520649D01*
Y364000D01*
X520459Y364459D01*
X518669Y366250D01*
X518702Y366460D01*
X518838Y366787D01*
X519208Y366940D01*
X519560Y367292D01*
X519750Y367751D01*
Y368249D01*
X519560Y368708D01*
X519208Y369060D01*
X519163Y369078D01*
Y370166D01*
X519637D01*
Y372834D01*
X517363D01*
Y372263D01*
X516863Y372056D01*
X516609Y372309D01*
X516379Y372404D01*
X516148Y372684D01*
X516146Y372999D01*
X516250Y373251D01*
Y373749D01*
X516060Y374208D01*
X515708Y374560D01*
X515249Y374750D01*
X514751D01*
X514693Y374726D01*
X513687Y375732D01*
X513227Y375922D01*
X512897D01*
X512788Y376041D01*
X512614Y376422D01*
X512750Y376751D01*
Y377249D01*
X513044Y377811D01*
X513162Y377840D01*
X513275Y377807D01*
X513774Y377307D01*
X513750Y377249D01*
Y376751D01*
X513940Y376292D01*
X514292Y375940D01*
X514751Y375750D01*
X515249D01*
X515708Y375940D01*
X516060Y376292D01*
X516250Y376751D01*
Y377249D01*
X516060Y377708D01*
X515708Y378060D01*
X515249Y378250D01*
X514751D01*
X514693Y378226D01*
X513715Y379203D01*
X513256Y379393D01*
X511868D01*
X511749Y379548D01*
X511602Y379893D01*
X511750Y380251D01*
Y380749D01*
X511560Y381208D01*
X511339Y381428D01*
X511525Y381928D01*
X517465D01*
Y381763D01*
X520134D01*
Y381955D01*
X521150D01*
Y381000D01*
X524850D01*
Y384200D01*
X521150D01*
Y383846D01*
X520134D01*
Y384038D01*
X517465D01*
Y383820D01*
X508150D01*
Y383949D01*
X505150D01*
Y384949D01*
X508150D01*
Y385367D01*
X508254Y385388D01*
X508469Y385531D01*
X510088Y387151D01*
X510332Y387199D01*
X510613Y387387D01*
X510801Y387668D01*
X510867Y388000D01*
Y391641D01*
X515613Y396387D01*
X515800Y396668D01*
X515866Y397000D01*
Y400599D01*
X516060Y400792D01*
X516250Y401251D01*
Y401749D01*
X516108Y402091D01*
X516140Y402163D01*
X516334Y402591D01*
X516334Y402591D01*
X516334Y402591D01*
Y404866D01*
X513665D01*
Y402591D01*
X513665D01*
X513857Y402171D01*
X513892Y402091D01*
X513750Y401749D01*
Y401251D01*
X513940Y400792D01*
X514133Y400599D01*
Y397359D01*
X509387Y392613D01*
X509199Y392332D01*
X509133Y392000D01*
Y391864D01*
X508633Y391815D01*
X508612Y391921D01*
X508469Y392136D01*
X505498Y395106D01*
Y400561D01*
X506469Y401531D01*
X506612Y401746D01*
X506663Y402000D01*
Y402591D01*
X507137D01*
Y404546D01*
X507150Y404610D01*
Y404660D01*
X508812Y406322D01*
X508956Y406537D01*
X509006Y406791D01*
Y410609D01*
X508956Y410862D01*
X508812Y411077D01*
X508227Y411662D01*
X508012Y411806D01*
X507893Y411830D01*
Y413606D01*
X504241D01*
Y410544D01*
X507179D01*
X507243Y410531D01*
X507484D01*
X507681Y410334D01*
Y407065D01*
X506019Y405404D01*
X505923Y405260D01*
X504863D01*
Y402591D01*
X504947D01*
X505154Y402091D01*
X504614Y401552D01*
X504304Y401339D01*
X503928Y401547D01*
X503383Y402091D01*
X503409Y402591D01*
X503409D01*
Y405260D01*
X502934D01*
Y407394D01*
X503759D01*
Y410456D01*
X500107D01*
Y407394D01*
X501609D01*
Y405260D01*
X501134D01*
Y402591D01*
X501609D01*
Y402266D01*
X501659Y402012D01*
X501803Y401797D01*
X503073Y400527D01*
Y395146D01*
X501661Y393735D01*
X501528Y393747D01*
X501161Y393902D01*
Y394421D01*
X501208Y394440D01*
X501560Y394792D01*
X501750Y395251D01*
Y395749D01*
X501560Y396208D01*
X501208Y396560D01*
X500749Y396750D01*
X500251D01*
X499729Y397063D01*
X499686Y397268D01*
X500193Y397774D01*
X500251Y397750D01*
X500749D01*
X501208Y397940D01*
X501560Y398292D01*
X501750Y398751D01*
Y399249D01*
X501560Y399708D01*
X501208Y400060D01*
X500749Y400250D01*
X500251D01*
X499792Y400060D01*
X499440Y399708D01*
X499250Y399249D01*
Y398751D01*
X499274Y398693D01*
X498331Y397750D01*
X498141Y397291D01*
Y396834D01*
X497924Y396696D01*
X497641Y396587D01*
X497249Y396750D01*
X496751D01*
X496299Y397098D01*
X496264Y397346D01*
X496693Y397774D01*
X496751Y397750D01*
X497249D01*
X497708Y397940D01*
X498060Y398292D01*
X498250Y398751D01*
Y399249D01*
X498060Y399708D01*
X497708Y400060D01*
X497249Y400250D01*
X496751D01*
X496292Y400060D01*
X495940Y399708D01*
X495750Y399249D01*
Y398751D01*
X495774Y398693D01*
X494891Y397809D01*
X494701Y397350D01*
Y396301D01*
X494201Y396034D01*
X494149Y396068D01*
Y397916D01*
X494208Y397940D01*
X494560Y398292D01*
X494750Y398751D01*
Y399249D01*
X494560Y399708D01*
X494208Y400060D01*
X493749Y400250D01*
X493251D01*
X492792Y400060D01*
X492659Y399927D01*
X492159Y400134D01*
Y403418D01*
X492159Y403418D01*
X492101Y403711D01*
X491935Y403959D01*
X491850Y404044D01*
Y406663D01*
X488150D01*
Y406220D01*
X486100D01*
Y407704D01*
X479900D01*
X479665Y408106D01*
Y409200D01*
X479665Y409200D01*
X479606Y409493D01*
X479441Y409741D01*
X478941Y410241D01*
X478693Y410406D01*
X478456Y410454D01*
X478358Y410615D01*
X478260Y410965D01*
X479282Y411987D01*
X481500D01*
X481584Y412004D01*
X486100D01*
Y416704D01*
X479900D01*
Y413721D01*
X478924D01*
X478592Y413655D01*
X478311Y413467D01*
X476625Y411781D01*
X474151D01*
Y408081D01*
X477851D01*
X478135Y407699D01*
Y407045D01*
X477851Y406663D01*
X474151D01*
Y404745D01*
X472334D01*
Y404866D01*
X470796D01*
X470713Y404883D01*
X469867D01*
Y411141D01*
X471495Y412769D01*
X471683Y413050D01*
X471748Y413382D01*
Y413950D01*
X472732D01*
Y417650D01*
X469032D01*
Y416867D01*
X467401D01*
X467208Y417060D01*
X466749Y417250D01*
X466251D01*
X465792Y417060D01*
X465440Y416708D01*
X465250Y416249D01*
Y415751D01*
X465440Y415292D01*
X465792Y414940D01*
X466251Y414750D01*
X466749D01*
X467208Y414940D01*
X467401Y415133D01*
X469032D01*
Y413950D01*
X469517D01*
X469724Y413450D01*
X468387Y412113D01*
X468199Y411832D01*
X468133Y411500D01*
Y404883D01*
X467296D01*
X467212Y404866D01*
X465666D01*
Y402591D01*
X468334D01*
Y403149D01*
X468516D01*
X468848Y403215D01*
X469000Y403317D01*
X469152Y403215D01*
X469484Y403149D01*
X469666D01*
Y402591D01*
X470540D01*
Y402393D01*
X470590Y402139D01*
X470734Y401924D01*
X471865Y400793D01*
X472080Y400649D01*
X472334Y400599D01*
X476124D01*
X476240Y400455D01*
X476395Y400099D01*
X476250Y399749D01*
Y399251D01*
X476274Y399193D01*
X475391Y398309D01*
X475201Y397850D01*
Y394133D01*
X475391Y393673D01*
X476152Y392913D01*
Y388800D01*
X475700D01*
Y388348D01*
X471500D01*
Y388338D01*
X470436D01*
X465081Y393693D01*
Y403612D01*
X465025Y403895D01*
X464865Y404135D01*
X461595Y407405D01*
X461355Y407565D01*
X461072Y407621D01*
X456427D01*
X456145Y407565D01*
X455905Y407405D01*
X451977Y403477D01*
X451817Y403237D01*
X451761Y402954D01*
Y399106D01*
X449394Y396739D01*
X444261D01*
X438663Y402337D01*
X438664Y402384D01*
X438820Y402837D01*
X440921D01*
X440940Y402792D01*
X441292Y402440D01*
X441751Y402250D01*
X442249D01*
X442708Y402440D01*
X443060Y402792D01*
X443250Y403251D01*
Y403749D01*
X443060Y404208D01*
X442708Y404560D01*
X442249Y404750D01*
X441751D01*
X441292Y404560D01*
X440940Y404208D01*
X440921Y404163D01*
X419774D01*
X414702Y409236D01*
X414487Y409379D01*
X414233Y409430D01*
X413897D01*
Y415787D01*
X409063D01*
Y412739D01*
X407834D01*
Y413137D01*
X405166D01*
Y410863D01*
X405761D01*
Y409491D01*
X405407Y409137D01*
X405230Y409137D01*
X404828Y409251D01*
X404727Y409285D01*
X404500Y409379D01*
X399500D01*
X399232Y409268D01*
X399163Y409100D01*
X396650D01*
Y404900D01*
X399121D01*
Y403197D01*
X398791Y402834D01*
X398621Y402834D01*
X396516D01*
Y400166D01*
X396294Y399758D01*
X392431Y395895D01*
X389830D01*
X389810Y395916D01*
Y397707D01*
X389795Y397781D01*
Y399555D01*
X391601D01*
Y401047D01*
X392101D01*
Y401547D01*
X394676D01*
Y402516D01*
X392101D01*
Y403516D01*
X394676D01*
Y404484D01*
X392101D01*
Y405484D01*
X394676D01*
Y406453D01*
X392101D01*
Y406953D01*
X391601D01*
Y408445D01*
X389795D01*
Y410019D01*
X389810Y410093D01*
Y414666D01*
X390366D01*
Y417335D01*
X388283D01*
Y417500D01*
X388172Y417768D01*
X387904Y417879D01*
X383500D01*
X383232Y417768D01*
X383121Y417500D01*
X383121Y414879D01*
X372500D01*
X372232Y414768D01*
X372121Y414500D01*
X372121Y412600D01*
X370900D01*
Y408400D01*
X372121D01*
X372121Y405000D01*
X372150Y404930D01*
Y402650D01*
X375850D01*
X376235Y402373D01*
Y399063D01*
X376081Y398908D01*
X375890Y398449D01*
Y397952D01*
X376081Y397492D01*
X376432Y397141D01*
X376892Y396950D01*
X377389D01*
X377849Y397141D01*
X378200Y397492D01*
X378391Y397952D01*
Y398449D01*
X378200Y398908D01*
X378053Y399055D01*
X378261Y399555D01*
X379399D01*
Y401047D01*
X380399D01*
Y399555D01*
X382205D01*
Y397922D01*
X382181Y397799D01*
Y395379D01*
X379500D01*
X379232Y395268D01*
X379121Y395000D01*
Y378000D01*
X379232Y377732D01*
X379500Y377621D01*
X383500D01*
X383768Y377732D01*
X383879Y378000D01*
Y380843D01*
X387621Y384585D01*
X388121Y384378D01*
Y378000D01*
X388232Y377732D01*
X388500Y377621D01*
X396000D01*
X396268Y377732D01*
X396379Y378000D01*
Y387621D01*
X404500D01*
X404768Y387732D01*
X404872Y387984D01*
X405055Y388219D01*
X405169Y388363D01*
X405379Y388363D01*
X407834D01*
Y388761D01*
X409063D01*
Y386213D01*
X413897D01*
Y386492D01*
X414359Y386684D01*
X426512Y374531D01*
X426727Y374388D01*
X426980Y374337D01*
X435225D01*
X436269Y373294D01*
X436250Y373249D01*
Y372751D01*
X436440Y372292D01*
X436569Y372163D01*
X436362Y371663D01*
X432984D01*
Y372334D01*
X430709D01*
Y369666D01*
X432984D01*
Y370337D01*
X439500D01*
X439754Y370388D01*
X439969Y370531D01*
X441206Y371769D01*
X441251Y371750D01*
X441749D01*
X442208Y371940D01*
X442560Y372292D01*
X442750Y372751D01*
Y373249D01*
X442560Y373708D01*
X442208Y374060D01*
X441749Y374250D01*
X441251D01*
X440792Y374060D01*
X440440Y373708D01*
X440250Y373249D01*
Y372751D01*
X440269Y372706D01*
X439225Y371663D01*
X438638D01*
X438431Y372163D01*
X438560Y372292D01*
X438750Y372751D01*
Y373249D01*
X438560Y373708D01*
X438208Y374060D01*
X437749Y374250D01*
X437251D01*
X437206Y374231D01*
X435969Y375469D01*
X435754Y375612D01*
X435500Y375663D01*
X427255D01*
X414564Y388353D01*
X414349Y388497D01*
X414096Y388547D01*
X413897D01*
Y394787D01*
X409241D01*
X408900Y394904D01*
X408677Y395063D01*
X408188Y395552D01*
X407985Y395756D01*
X407835Y396193D01*
Y398180D01*
X405166D01*
X404879Y398561D01*
Y403135D01*
X405166Y403516D01*
X407834D01*
Y405791D01*
X405166D01*
X404879Y406172D01*
Y406481D01*
X405166Y406863D01*
X405379Y406863D01*
X407834D01*
Y409137D01*
X407239D01*
Y410863D01*
X407834D01*
Y411261D01*
X409063D01*
Y407213D01*
X413897D01*
Y407458D01*
X414397Y407665D01*
X418998Y403065D01*
X418985Y402924D01*
X418830Y402565D01*
X410630D01*
X410604Y402570D01*
X410514Y402787D01*
X410162Y403138D01*
X409703Y403329D01*
X409205D01*
X408746Y403138D01*
X408394Y402787D01*
X408204Y402327D01*
Y401830D01*
X408394Y401371D01*
X408634Y401131D01*
X408701Y400822D01*
X408632Y400525D01*
X408389Y400282D01*
X408199Y399822D01*
Y399325D01*
X408389Y398866D01*
X408741Y398514D01*
X409200Y398324D01*
X409697D01*
X410157Y398514D01*
X410508Y398866D01*
X410699Y399325D01*
Y399684D01*
X410719Y399704D01*
X437251D01*
X442859Y394095D01*
X443099Y393935D01*
X443382Y393879D01*
X450273D01*
X450556Y393935D01*
X450796Y394095D01*
X454405Y397705D01*
X454565Y397944D01*
X454621Y398227D01*
Y402076D01*
X457306Y404761D01*
X460194D01*
X462221Y402734D01*
Y392814D01*
X462277Y392531D01*
X462437Y392291D01*
X469117Y385612D01*
X468927Y385111D01*
X467995D01*
X467501Y385605D01*
X467286Y385749D01*
X467033Y385799D01*
X465463D01*
X465209Y385749D01*
X464994Y385605D01*
X463851Y384462D01*
X463707Y384247D01*
X463657Y383993D01*
Y383103D01*
X460796Y380243D01*
X460334Y380434D01*
Y381594D01*
X457665D01*
Y381222D01*
X456523D01*
X456208Y381536D01*
X455749Y381727D01*
X455251D01*
X454792Y381536D01*
X454497Y381241D01*
X453251D01*
Y382529D01*
X453190Y382839D01*
X453015Y383101D01*
X452752Y383276D01*
X452443Y383338D01*
X451557D01*
X451248Y383276D01*
X450985Y383101D01*
X450810Y382839D01*
X450749Y382529D01*
Y379478D01*
X450810Y379169D01*
X450985Y378907D01*
X451248Y378731D01*
X451557Y378670D01*
X452443D01*
X452752Y378731D01*
X453015Y378907D01*
X453190Y379169D01*
X453251Y379478D01*
Y379712D01*
X454497D01*
X454792Y379417D01*
X455251Y379227D01*
X455749D01*
X456208Y379417D01*
X456483Y379692D01*
X457392D01*
X457596Y379192D01*
X457443Y378912D01*
X454531Y376000D01*
X454388Y375785D01*
X454337Y375531D01*
Y369775D01*
X450225Y365663D01*
X433621D01*
X432999Y366284D01*
X432984Y366295D01*
Y367834D01*
X430709D01*
Y365166D01*
X432243D01*
X432878Y364531D01*
X433093Y364388D01*
X433347Y364337D01*
X450500D01*
X450590Y364355D01*
X450879Y363916D01*
X450677Y363663D01*
X432846D01*
X432593Y363612D01*
X432378Y363469D01*
X432243Y363334D01*
X430709D01*
Y360666D01*
X432984D01*
Y362205D01*
X432999Y362216D01*
X433121Y362337D01*
X451000D01*
X451254Y362388D01*
X451390Y362479D01*
X451709Y362091D01*
X449531Y359913D01*
X449388Y359698D01*
X449337Y359444D01*
Y358417D01*
X445713D01*
Y353663D01*
X445713Y353583D01*
X445521Y353163D01*
X444275D01*
X441331Y356106D01*
X441116Y356250D01*
X440863Y356300D01*
X433983D01*
X432984Y357300D01*
Y358834D01*
X430709D01*
Y356453D01*
X430559Y356016D01*
X430559Y355728D01*
Y354484D01*
X430559D01*
X430709Y354334D01*
Y351953D01*
X430559Y351516D01*
X430559Y351228D01*
X430559Y350365D01*
X430059Y349984D01*
X429787Y349984D01*
X429308Y349834D01*
X427363D01*
Y348999D01*
X426863Y348792D01*
X426857Y348797D01*
X426398Y348988D01*
X425900D01*
X425441Y348797D01*
X425089Y348446D01*
X424899Y347986D01*
Y347489D01*
X425089Y347030D01*
X425441Y346678D01*
X425661Y346587D01*
Y346045D01*
X425441Y345954D01*
X425089Y345602D01*
X424899Y345143D01*
Y344646D01*
X425089Y344186D01*
X425441Y343835D01*
X425900Y343644D01*
X426398D01*
X426857Y343835D01*
X426863Y343840D01*
X427363Y343633D01*
Y342666D01*
X429637D01*
Y345334D01*
X428082D01*
X427963Y345383D01*
X427299D01*
X427209Y345602D01*
X426857Y345954D01*
X426637Y346045D01*
Y346587D01*
X426857Y346678D01*
X427209Y347030D01*
X427260Y347153D01*
X428013D01*
X428077Y347165D01*
X429637D01*
Y348668D01*
X430000Y349000D01*
X430137Y349137D01*
X430602Y349046D01*
X430709Y349002D01*
Y347165D01*
X432984D01*
Y348521D01*
X434184D01*
X434438Y348572D01*
X434653Y348715D01*
X436357Y350419D01*
X440545D01*
X442075Y348889D01*
Y346174D01*
X445925D01*
Y349826D01*
X443538D01*
X443531Y349837D01*
X443798Y350337D01*
X449730D01*
X449751Y350305D01*
X449484Y349805D01*
X449275D01*
Y346152D01*
X453125D01*
Y349805D01*
X451863D01*
Y350300D01*
X451812Y350554D01*
X451669Y350769D01*
X451100Y351337D01*
X451286Y351837D01*
X455725D01*
X456037Y351525D01*
Y349805D01*
X454775D01*
Y346152D01*
X456063D01*
X456500Y346000D01*
X456500Y345652D01*
X456500Y344000D01*
X456123Y343703D01*
X454775D01*
Y340050D01*
X455406D01*
X455613Y339550D01*
X452225Y336163D01*
X437275D01*
X433469Y339969D01*
X433254Y340112D01*
X433000Y340163D01*
X427500D01*
X427246Y340112D01*
X427031Y339969D01*
X423712Y336649D01*
X423678Y336657D01*
X423250Y336894D01*
Y337249D01*
X423060Y337708D01*
X422708Y338060D01*
X422249Y338250D01*
X421751D01*
X421292Y338060D01*
X420997Y337765D01*
X420465D01*
Y338334D01*
X418190D01*
Y335666D01*
X420465D01*
Y336235D01*
X420997D01*
X421292Y335940D01*
X421650Y335792D01*
X421854Y335430D01*
X421911Y335250D01*
X421860Y335163D01*
X418000D01*
X417746Y335112D01*
X417531Y334969D01*
X417002Y334440D01*
X416593Y334728D01*
X416644Y334981D01*
Y335666D01*
X417119D01*
Y338334D01*
X416644D01*
Y340166D01*
X417119D01*
Y342835D01*
X415782D01*
X415515Y343335D01*
X415517Y343337D01*
X423225D01*
X425531Y341031D01*
X425746Y340888D01*
X426000Y340837D01*
X434100D01*
X437906Y337031D01*
X438121Y336888D01*
X438375Y336837D01*
X449500D01*
X449754Y336888D01*
X449969Y337031D01*
X451669Y338731D01*
X451812Y338946D01*
X451863Y339200D01*
Y340050D01*
X453125D01*
Y343703D01*
X449275D01*
Y340050D01*
X450537D01*
Y339475D01*
X449226Y338163D01*
X438650D01*
X437203Y339609D01*
X437394Y340071D01*
X440425D01*
Y341133D01*
X442075D01*
Y340071D01*
X445925D01*
X446266Y339713D01*
X446440Y339292D01*
X446792Y338940D01*
X447251Y338750D01*
X447749D01*
X448208Y338940D01*
X448560Y339292D01*
X448750Y339751D01*
Y340249D01*
X448560Y340708D01*
X448208Y341060D01*
X448139Y341088D01*
Y341244D01*
X448081Y341537D01*
X447915Y341785D01*
X447262Y342438D01*
X447014Y342604D01*
X446721Y342662D01*
X445925D01*
Y343724D01*
X442075D01*
Y342662D01*
X440425D01*
Y343724D01*
X436575D01*
Y340890D01*
X436113Y340699D01*
X434844Y341969D01*
X434629Y342112D01*
X434375Y342163D01*
X426274D01*
X423969Y344469D01*
X423754Y344612D01*
X423500Y344663D01*
X414705D01*
X414451Y344612D01*
X414236Y344469D01*
X413031Y343264D01*
X412888Y343049D01*
X412837Y342795D01*
Y342486D01*
X412337Y342281D01*
X412141Y342480D01*
X412172Y342983D01*
X412187Y342993D01*
X412386Y343291D01*
X412456Y343642D01*
X412386Y343993D01*
X412187Y344291D01*
X412118Y344337D01*
Y344915D01*
X412187Y344961D01*
X412386Y345259D01*
X412456Y345610D01*
X412386Y345961D01*
X412187Y346259D01*
X412118Y346305D01*
Y346884D01*
X412187Y346930D01*
X412386Y347228D01*
X412456Y347579D01*
X412386Y347930D01*
X412187Y348228D01*
X412402Y348685D01*
X412604Y348885D01*
X414211D01*
X415337Y347758D01*
X415552Y347615D01*
X415806Y347564D01*
X415914D01*
X415953Y347367D01*
X416117Y347121D01*
X416363Y346957D01*
X416653Y346899D01*
X423347D01*
X423637Y346957D01*
X423883Y347121D01*
X424047Y347367D01*
X424105Y347657D01*
Y348445D01*
X424047Y348735D01*
X423883Y348981D01*
X423637Y349145D01*
X423347Y349203D01*
X416653D01*
X416363Y349145D01*
X416117Y348981D01*
X416001Y348970D01*
X414954Y350016D01*
X414739Y350160D01*
X414486Y350210D01*
X412664D01*
X412459Y350710D01*
X412604Y350853D01*
X414524D01*
X414778Y350904D01*
X414993Y351047D01*
X415344Y351399D01*
X415488Y351614D01*
X415538Y351867D01*
Y356537D01*
X416038Y356689D01*
X416117Y356570D01*
X416363Y356406D01*
X416653Y356348D01*
X423347D01*
X423637Y356406D01*
X423883Y356570D01*
X424047Y356816D01*
X424105Y357106D01*
Y357894D01*
X424047Y358184D01*
X423883Y358430D01*
X423637Y358594D01*
X423347Y358652D01*
X416653D01*
X416363Y358594D01*
X416117Y358430D01*
X415953Y358184D01*
X415949Y358163D01*
X415227D01*
X414973Y358112D01*
X414758Y357969D01*
X414407Y357617D01*
X414263Y357402D01*
X414213Y357149D01*
Y352179D01*
X412166D01*
X412118Y352211D01*
Y352789D01*
X412187Y352835D01*
X412386Y353133D01*
X412456Y353484D01*
X412386Y353835D01*
X412459Y354204D01*
X412656Y354335D01*
X412998Y354848D01*
X413019Y354953D01*
X408545D01*
Y355953D01*
X413019D01*
X412998Y356058D01*
X412656Y356570D01*
X412459Y356701D01*
X412386Y357070D01*
X412456Y357421D01*
X412386Y357772D01*
X412187Y358070D01*
X412118Y358116D01*
Y358695D01*
X412187Y358741D01*
X412386Y359039D01*
X412456Y359390D01*
X412386Y359741D01*
X412187Y360039D01*
X412118Y360085D01*
Y360663D01*
X412187Y360709D01*
X412386Y361007D01*
X412456Y361358D01*
X412386Y361709D01*
X412330Y361793D01*
X412454Y362349D01*
X412486Y362391D01*
X412618Y362445D01*
X413531Y361531D01*
X413746Y361388D01*
X414000Y361337D01*
X422601D01*
X422855Y361388D01*
X423069Y361531D01*
X423750Y362212D01*
X424250Y362005D01*
Y361751D01*
X424440Y361292D01*
X424792Y360940D01*
X425251Y360750D01*
X425749D01*
X426208Y360940D01*
X426560Y361292D01*
X426579Y361337D01*
X427363D01*
Y360666D01*
X429637D01*
Y363334D01*
X427363D01*
Y362663D01*
X426579D01*
X426560Y362708D01*
X426208Y363060D01*
X425749Y363250D01*
X425495D01*
X425288Y363750D01*
X426691Y365153D01*
X428013D01*
X428077Y365166D01*
X429637D01*
Y367834D01*
X427363D01*
Y366478D01*
X426417D01*
X426163Y366428D01*
X425948Y366284D01*
X423204Y363540D01*
X422861Y363700D01*
X422750Y363793D01*
Y364249D01*
X422560Y364708D01*
X422208Y365060D01*
X421749Y365250D01*
X421251D01*
X420965Y365131D01*
X420465Y365335D01*
Y365335D01*
X418190D01*
X418190Y362666D01*
X417692Y362663D01*
X417617D01*
X417119Y362666D01*
Y365335D01*
X414844D01*
Y364663D01*
X414275D01*
X412969Y365969D01*
X412754Y366112D01*
X412500Y366163D01*
X405816D01*
X405562Y366112D01*
X405347Y365969D01*
X404711Y365332D01*
X404293Y365529D01*
X404244Y365573D01*
Y371538D01*
X404175Y371889D01*
X404042Y372087D01*
X404161Y372445D01*
X404264Y372587D01*
X422476D01*
X424531Y370531D01*
X424746Y370388D01*
X425000Y370337D01*
X427363D01*
Y369666D01*
X429637D01*
Y372334D01*
X427363D01*
Y371663D01*
X425275D01*
X423219Y373718D01*
X423004Y373862D01*
X422750Y373912D01*
X397773D01*
X397519Y373862D01*
X397304Y373718D01*
X396953Y373367D01*
X396809Y373152D01*
X396759Y372898D01*
Y372166D01*
X396726Y372118D01*
X396148D01*
X396102Y372187D01*
X395804Y372386D01*
X395453Y372456D01*
X395102Y372386D01*
X394804Y372187D01*
X394758Y372118D01*
X394179D01*
X394133Y372187D01*
X393835Y372386D01*
X393484Y372456D01*
X393133Y372386D01*
X392835Y372187D01*
X392789Y372118D01*
X392211D01*
X392165Y372187D01*
X391867Y372386D01*
X391516Y372456D01*
X391165Y372386D01*
X390867Y372187D01*
X390821Y372118D01*
X390242D01*
X390196Y372187D01*
X389898Y372386D01*
X389547Y372456D01*
X389196Y372386D01*
X388898Y372187D01*
X388852Y372118D01*
X388274D01*
X388228Y372187D01*
X387930Y372386D01*
X387579Y372456D01*
X387228Y372386D01*
X386930Y372187D01*
X386884Y372118D01*
X386305D01*
X386259Y372187D01*
X385961Y372386D01*
X385610Y372456D01*
X385259Y372386D01*
X384891Y372459D01*
X384759Y372656D01*
X384246Y372998D01*
X384142Y373019D01*
Y368545D01*
Y364071D01*
X384246Y364091D01*
X384759Y364434D01*
X384891Y364631D01*
X385259Y364704D01*
X385610Y364634D01*
X385961Y364704D01*
X386259Y364903D01*
X386305Y364972D01*
X386884D01*
X386930Y364903D01*
X387228Y364704D01*
X387579Y364634D01*
X387930Y364704D01*
X388228Y364903D01*
X388274Y364972D01*
X388852D01*
X388898Y364903D01*
X389196Y364704D01*
X389547Y364634D01*
X389898Y364704D01*
X390196Y364903D01*
X390242Y364972D01*
X390821D01*
X390867Y364903D01*
X391165Y364704D01*
X391516Y364634D01*
X391867Y364704D01*
X392165Y364903D01*
X392211Y364972D01*
X392789D01*
X392835Y364903D01*
X393133Y364704D01*
X393484Y364634D01*
X393835Y364704D01*
X394133Y364903D01*
X394179Y364972D01*
X394758D01*
X394804Y364903D01*
X395102Y364704D01*
X395453Y364634D01*
X395804Y364704D01*
X396102Y364903D01*
X396148Y364972D01*
X396726D01*
X396772Y364903D01*
X397070Y364704D01*
X397421Y364634D01*
X397772Y364704D01*
X398070Y364903D01*
X398116Y364972D01*
X398695D01*
X398741Y364903D01*
X399039Y364704D01*
X399390Y364634D01*
X399741Y364704D01*
X400039Y364903D01*
X400515Y364767D01*
X400766Y364515D01*
Y364034D01*
X400440Y363708D01*
X400250Y363249D01*
Y362751D01*
X400440Y362292D01*
X400792Y361940D01*
X401251Y361750D01*
X401749D01*
X401933Y361826D01*
X402483Y361577D01*
X402496Y361560D01*
X402517Y361454D01*
X399610Y358547D01*
X399220Y358548D01*
X399017Y358599D01*
X398548Y359068D01*
X397868Y359350D01*
X397132D01*
X396452Y359068D01*
X395932Y358548D01*
X395650Y357868D01*
Y357132D01*
X395932Y356452D01*
X396452Y355932D01*
X397132Y355650D01*
X397868D01*
X398548Y355932D01*
X398837Y356221D01*
X399337Y356014D01*
Y355000D01*
X399388Y354746D01*
X399531Y354531D01*
X401047Y353016D01*
X401262Y352872D01*
X401516Y352821D01*
X404923D01*
X404972Y352789D01*
Y352211D01*
X404903Y352165D01*
X404704Y351867D01*
X404634Y351516D01*
X404704Y351165D01*
X404903Y350867D01*
X404972Y350821D01*
Y350242D01*
X404903Y350196D01*
X404704Y349898D01*
X404634Y349547D01*
X404704Y349196D01*
X404903Y348898D01*
X404972Y348852D01*
Y348274D01*
X404903Y348228D01*
X404704Y347930D01*
X404634Y347579D01*
X404704Y347228D01*
X404903Y346930D01*
X404972Y346884D01*
Y346305D01*
X404903Y346259D01*
X404704Y345961D01*
X404634Y345610D01*
X404704Y345259D01*
X404903Y344961D01*
X404972Y344915D01*
Y344337D01*
X404903Y344291D01*
X404704Y343993D01*
X404688Y343913D01*
X404145Y343748D01*
X403456Y344438D01*
Y345188D01*
X403560Y345292D01*
X403750Y345751D01*
Y346249D01*
X403560Y346708D01*
X403208Y347060D01*
X402749Y347250D01*
X402251D01*
X401792Y347060D01*
X401440Y346708D01*
X401250Y346249D01*
Y345751D01*
X401440Y345292D01*
X401732Y345000D01*
X401727Y344638D01*
X401685Y344443D01*
X401427Y344281D01*
X401370Y344293D01*
X398619D01*
X398365Y344242D01*
X398150Y344098D01*
X396953Y342901D01*
X396809Y342686D01*
X396759Y342432D01*
Y340076D01*
X396726Y340028D01*
X396148D01*
X396102Y340097D01*
X395804Y340296D01*
X395453Y340366D01*
X395102Y340296D01*
X394804Y340097D01*
X394758Y340028D01*
X394179D01*
X394133Y340097D01*
X393835Y340296D01*
X393484Y340366D01*
X393133Y340296D01*
X392835Y340097D01*
X392789Y340028D01*
X392211D01*
X392165Y340097D01*
X391867Y340296D01*
X391516Y340366D01*
X391165Y340296D01*
X390867Y340097D01*
X390821Y340028D01*
X390242D01*
X390196Y340097D01*
X389898Y340296D01*
X389547Y340366D01*
X389196Y340296D01*
X388898Y340097D01*
X388852Y340028D01*
X388274D01*
X388228Y340097D01*
X387930Y340296D01*
X387579Y340366D01*
X387228Y340296D01*
X386930Y340097D01*
X386884Y340028D01*
X386305D01*
X386259Y340097D01*
X385961Y340296D01*
X385610Y340366D01*
X385259Y340296D01*
X384961Y340097D01*
X384915Y340028D01*
X384337D01*
X384291Y340097D01*
X383993Y340296D01*
X383824Y340330D01*
X383628Y340813D01*
X383627Y340840D01*
X384624Y341837D01*
X386421D01*
X386440Y341792D01*
X386792Y341440D01*
X387251Y341250D01*
X387749D01*
X388208Y341440D01*
X388560Y341792D01*
X388750Y342251D01*
Y342749D01*
X388560Y343208D01*
X388208Y343560D01*
X387749Y343750D01*
X387251D01*
X386792Y343560D01*
X386440Y343208D01*
X386421Y343163D01*
X384693D01*
X384620Y343234D01*
X384440Y343663D01*
X384481Y343724D01*
X384531Y343977D01*
Y360132D01*
X384481Y360385D01*
X384337Y360600D01*
X381142Y363795D01*
X380927Y363939D01*
X380673Y363989D01*
X380077D01*
X379800Y364175D01*
X379448Y364244D01*
X373462D01*
X373111Y364175D01*
X372813Y363976D01*
X372614Y363678D01*
X372544Y363327D01*
X372614Y362976D01*
X372813Y362678D01*
X372882Y362632D01*
Y362053D01*
X372813Y362007D01*
X372614Y361709D01*
X372544Y361358D01*
X372614Y361007D01*
X372813Y360709D01*
X372882Y360663D01*
Y360085D01*
X372813Y360039D01*
X372614Y359741D01*
X372544Y359390D01*
X372614Y359039D01*
X372813Y358741D01*
X372882Y358695D01*
Y358116D01*
X372813Y358070D01*
X372614Y357772D01*
X372544Y357421D01*
X372614Y357070D01*
X372813Y356772D01*
X372882Y356726D01*
Y356148D01*
X372813Y356102D01*
X372614Y355804D01*
X372544Y355453D01*
X372614Y355102D01*
X372813Y354804D01*
X372882Y354758D01*
Y354179D01*
X372813Y354133D01*
X372614Y353835D01*
X372544Y353484D01*
X372614Y353133D01*
X372813Y352835D01*
X372882Y352789D01*
Y352211D01*
X372813Y352165D01*
X372614Y351867D01*
X372544Y351516D01*
X372557Y351449D01*
X372097Y351203D01*
X371306Y351994D01*
Y352744D01*
X371240Y353076D01*
X371052Y353357D01*
X368925Y355484D01*
Y356213D01*
X368909Y356296D01*
Y357834D01*
X366634D01*
Y355166D01*
X367192D01*
Y355125D01*
X367258Y354793D01*
X367446Y354512D01*
X368162Y353796D01*
X367970Y353334D01*
X366634D01*
Y350666D01*
X367880D01*
X371561Y346985D01*
X371842Y346797D01*
X372173Y346731D01*
X372620D01*
X372762Y346384D01*
X372794Y346231D01*
X372614Y345961D01*
X372544Y345610D01*
X372614Y345259D01*
X372541Y344890D01*
X372344Y344759D01*
X372002Y344247D01*
X371981Y344142D01*
X376455D01*
Y343142D01*
X371981D01*
X372002Y343037D01*
X372121Y342858D01*
X372020Y342442D01*
X371913Y342270D01*
X371742Y342157D01*
X369651Y340065D01*
X369503Y339844D01*
X369333Y339822D01*
X369007Y339834D01*
Y339834D01*
X366732D01*
Y337166D01*
X369007D01*
Y337166D01*
X369507Y337351D01*
X369751Y337250D01*
X370249D01*
X370708Y337440D01*
X371060Y337792D01*
X371250Y338251D01*
Y338749D01*
X371060Y339208D01*
X371008Y339260D01*
X372600Y340851D01*
X373072D01*
X373111Y340826D01*
X373462Y340756D01*
X379049D01*
X379172Y340612D01*
X379366Y340256D01*
X379337Y340109D01*
Y331500D01*
X379388Y331246D01*
X379531Y331031D01*
X381031Y329531D01*
X381246Y329388D01*
X381500Y329337D01*
X413500D01*
X413754Y329388D01*
X413969Y329531D01*
X418274Y333837D01*
X422500D01*
X422754Y333888D01*
X422969Y334031D01*
X427774Y338837D01*
X429862D01*
X430069Y338337D01*
X429940Y338208D01*
X429750Y337749D01*
Y337251D01*
X429940Y336792D01*
X430292Y336440D01*
X430751Y336250D01*
X430842D01*
X430863Y336212D01*
X430588Y335683D01*
X430292Y335560D01*
X429940Y335208D01*
X429750Y334749D01*
Y334251D01*
X429940Y333792D01*
X430292Y333440D01*
X430751Y333250D01*
X431249D01*
X431708Y333440D01*
X432060Y333792D01*
X432250Y334251D01*
Y334513D01*
X433069D01*
X435541Y332041D01*
X436000Y331851D01*
X490000D01*
X490459Y332041D01*
X494791Y336372D01*
X494889Y336346D01*
X495253Y336127D01*
Y335753D01*
X495443Y335294D01*
X495659Y335078D01*
X491731Y331149D01*
X417500D01*
X417041Y330959D01*
X414731Y328649D01*
X376500D01*
X376041Y328459D01*
X370085Y322504D01*
X369440Y322512D01*
X368994Y322958D01*
X368151Y323445D01*
X367211Y323696D01*
X366238D01*
X365298Y323445D01*
X364455Y322958D01*
X363767Y322270D01*
X363280Y321427D01*
X363028Y320487D01*
Y319513D01*
X363280Y318573D01*
X363767Y317730D01*
X364455Y317042D01*
X365298Y316556D01*
X366002Y316367D01*
X365936Y315867D01*
X357512D01*
X357447Y316367D01*
X358151Y316556D01*
X358994Y317042D01*
X359682Y317730D01*
X360169Y318573D01*
X360421Y319513D01*
Y320487D01*
X360169Y321427D01*
X359682Y322270D01*
X358994Y322958D01*
X358151Y323445D01*
X357211Y323696D01*
X356238D01*
X355298Y323445D01*
X354455Y322958D01*
X353766Y322270D01*
X353280Y321427D01*
X353028Y320487D01*
Y319513D01*
X353280Y318573D01*
X353766Y317730D01*
X354455Y317042D01*
X355298Y316556D01*
X356002Y316367D01*
X355937Y315867D01*
X347512D01*
X347446Y316367D01*
X348151Y316556D01*
X348994Y317042D01*
X349682Y317730D01*
X350169Y318573D01*
X350421Y319513D01*
Y320487D01*
X350169Y321427D01*
X349682Y322270D01*
X348994Y322958D01*
X348151Y323445D01*
X347211Y323696D01*
X346238D01*
X345298Y323445D01*
X344455Y322958D01*
X343766Y322270D01*
X343280Y321427D01*
X343028Y320487D01*
Y319513D01*
X343280Y318573D01*
X343766Y317730D01*
X344455Y317042D01*
X345298Y316556D01*
X346002Y316367D01*
X345936Y315867D01*
X340573D01*
X340421Y316303D01*
X340421Y316367D01*
Y323696D01*
X333028D01*
Y316367D01*
X333028Y316303D01*
X332876Y315867D01*
X331724D01*
X331718Y315865D01*
X330654Y316005D01*
X329657Y316419D01*
X328800Y317076D01*
X328143Y317932D01*
X327730Y318930D01*
X327652Y319522D01*
X327591Y320000D01*
X327591Y320000D01*
X327591Y320492D01*
Y430000D01*
X327590Y430006D01*
X327730Y431070D01*
X328143Y432068D01*
X328800Y432924D01*
X329657Y433581D01*
X330654Y433994D01*
X331246Y434072D01*
X331724Y434133D01*
X331724Y434133D01*
X332216Y434133D01*
X332876D01*
X333028Y433697D01*
X333028Y433633D01*
Y426303D01*
X340421D01*
Y433633D01*
X340421Y433697D01*
X340573Y434133D01*
X345936D01*
X346002Y433633D01*
X345298Y433444D01*
X344455Y432958D01*
X343766Y432270D01*
X343280Y431427D01*
X343028Y430487D01*
Y429513D01*
X343280Y428573D01*
X343766Y427730D01*
X344455Y427042D01*
X345298Y426555D01*
X346238Y426303D01*
X347211D01*
X348151Y426555D01*
X348994Y427042D01*
X349682Y427730D01*
X350169Y428573D01*
X350421Y429513D01*
Y430487D01*
X350169Y431427D01*
X349682Y432270D01*
X348994Y432958D01*
X348151Y433444D01*
X347446Y433633D01*
X347512Y434133D01*
X355937D01*
X356002Y433633D01*
X355298Y433444D01*
X354455Y432958D01*
X353766Y432270D01*
X353280Y431427D01*
X353028Y430487D01*
Y429513D01*
X353280Y428573D01*
X353766Y427730D01*
X354455Y427042D01*
X355298Y426555D01*
X356238Y426303D01*
X357211D01*
X358151Y426555D01*
X358994Y427042D01*
X359682Y427730D01*
X360169Y428573D01*
X360421Y429513D01*
Y430487D01*
X360169Y431427D01*
X359682Y432270D01*
X358994Y432958D01*
X358151Y433444D01*
X357447Y433633D01*
X357512Y434133D01*
X364191D01*
X364325Y433633D01*
X364056Y433478D01*
X363246Y432669D01*
X362674Y431678D01*
X362378Y430572D01*
Y430500D01*
X371071D01*
Y430572D01*
X370775Y431678D01*
X370202Y432669D01*
X369393Y433478D01*
X369124Y433633D01*
X369258Y434133D01*
X374191D01*
X374325Y433633D01*
X374056Y433478D01*
X373246Y432669D01*
X372674Y431678D01*
X372378Y430572D01*
Y430500D01*
X381071D01*
Y430572D01*
X380775Y431678D01*
X380202Y432669D01*
X379393Y433478D01*
X379124Y433633D01*
X379258Y434133D01*
X385936D01*
X386002Y433633D01*
X385298Y433444D01*
X384455Y432958D01*
X383767Y432270D01*
X383280Y431427D01*
X383028Y430487D01*
Y429513D01*
X383280Y428573D01*
X383767Y427730D01*
X384455Y427042D01*
X385298Y426555D01*
X386238Y426303D01*
X387211D01*
X388151Y426555D01*
X388994Y427042D01*
X389682Y427730D01*
X390169Y428573D01*
X390421Y429513D01*
Y430487D01*
X390169Y431427D01*
X389682Y432270D01*
X388994Y432958D01*
X388151Y433444D01*
X387446Y433633D01*
X387512Y434133D01*
X395936D01*
X396002Y433633D01*
X395298Y433444D01*
X394455Y432958D01*
X393766Y432270D01*
X393280Y431427D01*
X393028Y430487D01*
Y429513D01*
X393280Y428573D01*
X393766Y427730D01*
X394455Y427042D01*
X395298Y426555D01*
X396238Y426303D01*
X397211D01*
X398151Y426555D01*
X398994Y427042D01*
X399682Y427730D01*
X400169Y428573D01*
X400421Y429513D01*
Y430487D01*
X400169Y431427D01*
X399682Y432270D01*
X398994Y432958D01*
X398151Y433444D01*
X397446Y433633D01*
X397512Y434133D01*
X405936D01*
X406002Y433633D01*
X405298Y433444D01*
X404455Y432958D01*
X403766Y432270D01*
X403280Y431427D01*
X403028Y430487D01*
Y429513D01*
X403280Y428573D01*
X403766Y427730D01*
X404455Y427042D01*
X405298Y426555D01*
X406238Y426303D01*
X407211D01*
X408151Y426555D01*
X408994Y427042D01*
X409682Y427730D01*
X410169Y428573D01*
X410421Y429513D01*
Y430487D01*
X410169Y431427D01*
X409682Y432270D01*
X408994Y432958D01*
X408151Y433444D01*
X407446Y433633D01*
X407512Y434133D01*
X415937D01*
X416002Y433633D01*
X415298Y433444D01*
X414455Y432958D01*
X413766Y432270D01*
X413280Y431427D01*
X413028Y430487D01*
Y429513D01*
X413280Y428573D01*
X413766Y427730D01*
X414455Y427042D01*
X415298Y426555D01*
X416238Y426303D01*
X417211D01*
X418151Y426555D01*
X418994Y427042D01*
X419682Y427730D01*
X420169Y428573D01*
X420421Y429513D01*
Y430487D01*
X420169Y431427D01*
X419682Y432270D01*
X418994Y432958D01*
X418151Y433444D01*
X417447Y433633D01*
X417512Y434133D01*
X425937D01*
X426002Y433633D01*
X425298Y433444D01*
X424455Y432958D01*
X423767Y432270D01*
X423280Y431427D01*
X423028Y430487D01*
Y429513D01*
X423280Y428573D01*
X423767Y427730D01*
X424455Y427042D01*
X425298Y426555D01*
X426238Y426303D01*
X427211D01*
X428151Y426555D01*
X428994Y427042D01*
X429682Y427730D01*
X430169Y428573D01*
X430421Y429513D01*
Y430487D01*
X430169Y431427D01*
X429682Y432270D01*
X428994Y432958D01*
X428151Y433444D01*
X427447Y433633D01*
X427512Y434133D01*
X435936D01*
X436002Y433633D01*
X435298Y433444D01*
X434455Y432958D01*
X433767Y432270D01*
X433280Y431427D01*
X433028Y430487D01*
Y429513D01*
X433280Y428573D01*
X433767Y427730D01*
X434455Y427042D01*
X435298Y426555D01*
X436238Y426303D01*
X437211D01*
X438151Y426555D01*
X438994Y427042D01*
X439682Y427730D01*
X440169Y428573D01*
X440421Y429513D01*
Y430487D01*
X440169Y431427D01*
X439682Y432270D01*
X438994Y432958D01*
X438151Y433444D01*
X437446Y433633D01*
X437512Y434133D01*
X445936D01*
X446002Y433633D01*
X445298Y433444D01*
X444455Y432958D01*
X443766Y432270D01*
X443280Y431427D01*
X443028Y430487D01*
Y429513D01*
X443280Y428573D01*
X443766Y427730D01*
X444455Y427042D01*
X445298Y426555D01*
X446238Y426303D01*
X447211D01*
X448151Y426555D01*
X448994Y427042D01*
X449682Y427730D01*
X450169Y428573D01*
X450421Y429513D01*
Y430487D01*
X450169Y431427D01*
X449682Y432270D01*
X448994Y432958D01*
X448151Y433444D01*
X447446Y433633D01*
X447512Y434133D01*
X455936D01*
X456002Y433633D01*
X455298Y433444D01*
X454455Y432958D01*
X453766Y432270D01*
X453280Y431427D01*
X453028Y430487D01*
Y429513D01*
X453280Y428573D01*
X453766Y427730D01*
X454455Y427042D01*
X455298Y426555D01*
X456238Y426303D01*
X457211D01*
X458151Y426555D01*
X458994Y427042D01*
X459682Y427730D01*
X460169Y428573D01*
X460421Y429513D01*
Y430487D01*
X460169Y431427D01*
X459682Y432270D01*
X458994Y432958D01*
X458151Y433444D01*
X457446Y433633D01*
X457512Y434133D01*
X465937D01*
X466002Y433633D01*
X465298Y433444D01*
X464455Y432958D01*
X463766Y432270D01*
X463280Y431427D01*
X463028Y430487D01*
Y429513D01*
X463280Y428573D01*
X463766Y427730D01*
X464455Y427042D01*
X465298Y426555D01*
X466238Y426303D01*
X467211D01*
X468151Y426555D01*
X468994Y427042D01*
X469682Y427730D01*
X470169Y428573D01*
X470421Y429513D01*
Y430487D01*
X470169Y431427D01*
X469682Y432270D01*
X468994Y432958D01*
X468151Y433444D01*
X467447Y433633D01*
X467512Y434133D01*
X475937D01*
X476002Y433633D01*
X475298Y433444D01*
X474455Y432958D01*
X473767Y432270D01*
X473280Y431427D01*
X473028Y430487D01*
Y429513D01*
X473280Y428573D01*
X473767Y427730D01*
X474455Y427042D01*
X475298Y426555D01*
X476238Y426303D01*
X477211D01*
X478151Y426555D01*
X478994Y427042D01*
X479682Y427730D01*
X480169Y428573D01*
X480421Y429513D01*
Y430487D01*
X480169Y431427D01*
X479682Y432270D01*
X478994Y432958D01*
X478151Y433444D01*
X477447Y433633D01*
X477512Y434133D01*
X485936D01*
X486002Y433633D01*
X485298Y433444D01*
X484455Y432958D01*
X483767Y432270D01*
X483280Y431427D01*
X483028Y430487D01*
Y429513D01*
X483280Y428573D01*
X483767Y427730D01*
X484455Y427042D01*
X485298Y426555D01*
X486238Y426303D01*
X487211D01*
X488151Y426555D01*
X488994Y427042D01*
X489682Y427730D01*
X490169Y428573D01*
X490421Y429513D01*
Y430487D01*
X490169Y431427D01*
X489682Y432270D01*
X488994Y432958D01*
X488151Y433444D01*
X487446Y433633D01*
X487512Y434133D01*
X495936D01*
X496002Y433633D01*
X495298Y433444D01*
X494455Y432958D01*
X493766Y432270D01*
X493280Y431427D01*
X493028Y430487D01*
Y429513D01*
X493280Y428573D01*
X493766Y427730D01*
X494455Y427042D01*
X495298Y426555D01*
X496238Y426303D01*
X497211D01*
X498151Y426555D01*
X498994Y427042D01*
X499682Y427730D01*
X500169Y428573D01*
X500421Y429513D01*
Y430487D01*
X500169Y431427D01*
X499682Y432270D01*
X498994Y432958D01*
X498151Y433444D01*
X497446Y433633D01*
X497512Y434133D01*
X505936D01*
X506002Y433633D01*
X505298Y433444D01*
X504455Y432958D01*
X503766Y432270D01*
X503280Y431427D01*
X503028Y430487D01*
Y429513D01*
X503280Y428573D01*
X503766Y427730D01*
X504455Y427042D01*
X505298Y426555D01*
X506238Y426303D01*
X507211D01*
X508151Y426555D01*
X508994Y427042D01*
X509682Y427730D01*
X510169Y428573D01*
X510421Y429513D01*
Y430487D01*
X510169Y431427D01*
X509682Y432270D01*
X508994Y432958D01*
X508151Y433444D01*
X507446Y433633D01*
X507512Y434133D01*
X515937D01*
X516002Y433633D01*
X515298Y433444D01*
X514455Y432958D01*
X513766Y432270D01*
X513280Y431427D01*
X513028Y430487D01*
Y429513D01*
X513280Y428573D01*
X513766Y427730D01*
X514455Y427042D01*
X515298Y426555D01*
X516238Y426303D01*
X517211D01*
X518151Y426555D01*
X518994Y427042D01*
X519682Y427730D01*
X520169Y428573D01*
X520421Y429513D01*
Y430487D01*
X520169Y431427D01*
X519682Y432270D01*
X518994Y432958D01*
X518151Y433444D01*
X517447Y433633D01*
X517512Y434133D01*
X525937D01*
X526002Y433633D01*
X525298Y433444D01*
X524455Y432958D01*
X523767Y432270D01*
X523280Y431427D01*
X523028Y430487D01*
Y429513D01*
X523280Y428573D01*
X523767Y427730D01*
X524455Y427042D01*
X525298Y426555D01*
X526238Y426303D01*
X527211D01*
X528151Y426555D01*
X528994Y427042D01*
X529682Y427730D01*
X530169Y428573D01*
X530421Y429513D01*
Y430487D01*
X530169Y431427D01*
X529682Y432270D01*
X528994Y432958D01*
X528151Y433444D01*
X527447Y433633D01*
X527512Y434133D01*
X532876D01*
X533028Y433697D01*
X533028Y433633D01*
Y426303D01*
X540421D01*
Y433633D01*
X540421Y433697D01*
X540573Y434133D01*
X545936D01*
X546002Y433633D01*
X545298Y433444D01*
X544455Y432958D01*
X543766Y432270D01*
X543280Y431427D01*
X543028Y430487D01*
Y429513D01*
X543280Y428573D01*
X543766Y427730D01*
X544455Y427042D01*
X545298Y426555D01*
X546238Y426303D01*
X547211D01*
X548151Y426555D01*
X548994Y427042D01*
X549682Y427730D01*
X550169Y428573D01*
X550421Y429513D01*
Y430487D01*
X550169Y431427D01*
X549682Y432270D01*
X548994Y432958D01*
X548151Y433444D01*
X547446Y433633D01*
X547512Y434133D01*
X554191D01*
X554325Y433633D01*
X554056Y433478D01*
X553246Y432669D01*
X552674Y431678D01*
X552378Y430572D01*
Y430500D01*
X561071D01*
Y430572D01*
X560775Y431678D01*
X560202Y432669D01*
X559393Y433478D01*
X559124Y433633D01*
X559258Y434133D01*
X564191D01*
X564325Y433633D01*
X564056Y433478D01*
X563246Y432669D01*
X562674Y431678D01*
X562378Y430572D01*
Y430500D01*
X571071D01*
Y430572D01*
X570775Y431678D01*
X570202Y432669D01*
X569393Y433478D01*
X569124Y433633D01*
X569258Y434133D01*
X574191D01*
X574325Y433633D01*
X574056Y433478D01*
X573246Y432669D01*
X572674Y431678D01*
X572378Y430572D01*
Y430500D01*
X581071D01*
Y430572D01*
X580775Y431678D01*
X580202Y432669D01*
X579393Y433478D01*
X579124Y433633D01*
X579258Y434133D01*
X581724D01*
X581731Y434135D01*
X582795Y433994D01*
D02*
G37*
G36*
X387904Y412666D02*
X381500D01*
Y408500D01*
X377000D01*
Y405769D01*
X376820Y405649D01*
X376351Y405180D01*
X376231Y405000D01*
X372500D01*
X372500Y414500D01*
X383500D01*
X383500Y417500D01*
X387904D01*
Y412666D01*
D02*
G37*
G36*
X404500Y388000D02*
X396000D01*
Y378000D01*
X388500D01*
X388500Y392500D01*
X399500D01*
X399500Y409000D01*
X404500D01*
Y388000D01*
D02*
G37*
G36*
X387500Y385000D02*
X383500Y381000D01*
Y378000D01*
X379500D01*
Y395000D01*
X387500D01*
Y385000D01*
D02*
G37*
G36*
X467641Y378735D02*
X467657Y378575D01*
X466807Y377726D01*
X466749Y377750D01*
X466251D01*
X465792Y377560D01*
X465440Y377208D01*
X465250Y376749D01*
Y376251D01*
X465440Y375792D01*
X465226Y375299D01*
X464650D01*
X464191Y375109D01*
X463307Y374226D01*
X463249Y374250D01*
X462751D01*
X462292Y374060D01*
X461940Y373708D01*
X461750Y373249D01*
Y372751D01*
X461854Y372499D01*
X461580Y371999D01*
X461350D01*
X460891Y371809D01*
X460541Y371459D01*
X460351Y371000D01*
Y368587D01*
X460334Y368094D01*
X457739D01*
X457437Y368500D01*
X457469Y368531D01*
X457612Y368746D01*
X457663Y369000D01*
Y374435D01*
X459065Y375837D01*
X460395D01*
X460648Y375888D01*
X460863Y376031D01*
X461250Y376418D01*
X461750Y376251D01*
X461940Y375792D01*
X462292Y375440D01*
X462751Y375250D01*
X463249D01*
X463708Y375440D01*
X464060Y375792D01*
X464250Y376251D01*
Y376749D01*
X464226Y376807D01*
X466493Y379075D01*
X467509D01*
X467641Y378735D01*
D02*
G37*
G36*
X464901Y366701D02*
X465250Y366249D01*
Y365751D01*
X465440Y365292D01*
X465226Y364799D01*
X464650D01*
X464191Y364609D01*
X463307Y363726D01*
X463249Y363750D01*
X462751D01*
X462292Y363560D01*
X461940Y363208D01*
X461750Y362749D01*
Y362251D01*
X461940Y361792D01*
X462292Y361440D01*
X462751Y361250D01*
X463249D01*
X463708Y361440D01*
X464060Y361792D01*
X464250Y362251D01*
Y362749D01*
X464226Y362807D01*
X464654Y363236D01*
X464901Y363201D01*
X465250Y362749D01*
Y362251D01*
X465440Y361792D01*
X465792Y361440D01*
X466251Y361250D01*
X466749D01*
X467208Y361440D01*
X467511Y361743D01*
X467621Y361746D01*
X467821Y361312D01*
X467823Y361242D01*
X466807Y360226D01*
X466749Y360250D01*
X466251D01*
X465792Y360060D01*
X465440Y359708D01*
X465250Y359249D01*
Y358751D01*
X465440Y358292D01*
X465792Y357940D01*
X466251Y357750D01*
X466749D01*
X467208Y357940D01*
X467560Y358292D01*
X467750Y358751D01*
Y359249D01*
X467726Y359307D01*
X471038Y362620D01*
X471500Y362428D01*
Y361652D01*
X473085D01*
Y353811D01*
X466871Y347597D01*
X466746Y347409D01*
X465666D01*
X465666Y347409D01*
X465181Y347446D01*
X464999Y347521D01*
X464501D01*
X464319Y347446D01*
X463835Y347409D01*
X463835Y347409D01*
X463835Y347409D01*
X461166D01*
Y345134D01*
X463835D01*
X463835Y345134D01*
X464319Y345097D01*
X464501Y345021D01*
X464999D01*
X465181Y345097D01*
X465666Y345134D01*
X465666Y345134D01*
X465666Y345134D01*
X468334D01*
Y346475D01*
X468351Y346559D01*
Y346625D01*
X474314Y352588D01*
X474314Y352588D01*
X474373Y352677D01*
X474463Y352737D01*
X477314Y355588D01*
X477710Y355475D01*
X477814Y355400D01*
Y351426D01*
X477638Y351250D01*
X477401D01*
X476942Y351060D01*
X476590Y350708D01*
X476400Y350249D01*
Y349751D01*
X476590Y349292D01*
X476942Y348940D01*
X477401Y348750D01*
X477899D01*
X478358Y348940D01*
X478451Y349033D01*
X478951Y348826D01*
Y347405D01*
X476637D01*
Y347409D01*
X474363D01*
Y344740D01*
X474837D01*
Y343365D01*
X474775Y343303D01*
X470288D01*
Y336697D01*
X475712D01*
Y342366D01*
X475969Y342622D01*
X476112Y342837D01*
X476163Y343091D01*
Y344740D01*
X476637D01*
Y346080D01*
X479262D01*
X479516Y346130D01*
X479731Y346274D01*
X479826Y346369D01*
X480155Y346583D01*
X480514Y346372D01*
X480596Y346290D01*
X480811Y346146D01*
X481065Y346096D01*
X482320D01*
Y344740D01*
X482794D01*
Y343126D01*
X482845Y342872D01*
X482988Y342657D01*
X483280Y342366D01*
Y336697D01*
X488704D01*
Y343303D01*
X484217D01*
X484120Y343400D01*
Y344740D01*
X484594D01*
Y347409D01*
X483034D01*
X482970Y347422D01*
X481376D01*
Y351979D01*
X481876Y352186D01*
X482769Y351294D01*
X482750Y351249D01*
Y350751D01*
X482940Y350292D01*
X483292Y349940D01*
X483751Y349750D01*
X484249D01*
X484708Y349940D01*
X485060Y350292D01*
X485250Y350751D01*
Y351249D01*
X485060Y351708D01*
X484708Y352060D01*
X484249Y352250D01*
X483751D01*
X483706Y352231D01*
X483108Y352829D01*
X483135Y352964D01*
X483705Y353269D01*
X483751Y353250D01*
X484249D01*
X484637Y353411D01*
X484929Y353297D01*
X485137Y353162D01*
Y352700D01*
X485188Y352446D01*
X485331Y352231D01*
X486269Y351294D01*
X486250Y351249D01*
Y350751D01*
X486440Y350292D01*
X486792Y349940D01*
X487251Y349750D01*
X487749D01*
X488208Y349940D01*
X488560Y350292D01*
X488750Y350751D01*
Y351249D01*
X488560Y351708D01*
X488208Y352060D01*
X487749Y352250D01*
X487251D01*
X487206Y352231D01*
X486741Y352696D01*
X486774Y352905D01*
X487254Y353248D01*
X487751D01*
X488034Y353365D01*
X488534Y353109D01*
Y352816D01*
X488725Y352357D01*
X489776Y351305D01*
X489752Y351247D01*
Y350749D01*
X489943Y350290D01*
X490294Y349938D01*
X490446Y349875D01*
Y348797D01*
X490636Y348338D01*
X491065Y347909D01*
X490858Y347409D01*
X490666D01*
Y345447D01*
X490516Y344984D01*
X490516Y344696D01*
X490516Y344212D01*
X490666Y343774D01*
Y341788D01*
X492219D01*
X492927Y341080D01*
Y337759D01*
X489317Y334149D01*
X436769D01*
X436402Y334517D01*
X436721Y334905D01*
X436746Y334888D01*
X437000Y334837D01*
X452500D01*
X452754Y334888D01*
X452969Y335031D01*
X457169Y339231D01*
X457312Y339446D01*
X457363Y339700D01*
Y340050D01*
X458625D01*
Y343415D01*
X458775Y343853D01*
X458775Y344141D01*
X458775Y346002D01*
X458625Y346502D01*
Y349805D01*
X457363D01*
Y351800D01*
X457312Y352054D01*
X457169Y352269D01*
X456469Y352969D01*
X456254Y353112D01*
X456000Y353163D01*
X454479D01*
X454287Y353583D01*
X454287Y353663D01*
Y358417D01*
X450663D01*
Y359170D01*
X455809Y364316D01*
X457240D01*
X457666Y364137D01*
Y361863D01*
X460334D01*
Y364137D01*
X460710Y364438D01*
X460959Y364541D01*
X461459Y365041D01*
X461482Y365097D01*
X461607Y365150D01*
X462056Y365176D01*
X462292Y364940D01*
X462751Y364750D01*
X463249D01*
X463708Y364940D01*
X464060Y365292D01*
X464250Y365751D01*
Y366249D01*
X464226Y366307D01*
X464654Y366736D01*
X464901Y366701D01*
D02*
G37*
G36*
X502541Y348541D02*
X503000Y348351D01*
X510110D01*
X511851Y346610D01*
Y341879D01*
X512041Y341420D01*
X526075Y327385D01*
Y323653D01*
X525298Y323445D01*
X524455Y322958D01*
X523767Y322270D01*
X523280Y321427D01*
X523028Y320487D01*
Y319513D01*
X523280Y318573D01*
X523767Y317730D01*
X524455Y317042D01*
X525298Y316556D01*
X526002Y316367D01*
X525937Y315867D01*
X517512D01*
X517447Y316367D01*
X518151Y316556D01*
X518994Y317042D01*
X519682Y317730D01*
X520169Y318573D01*
X520421Y319513D01*
Y320487D01*
X520169Y321427D01*
X519682Y322270D01*
X518994Y322958D01*
X518151Y323445D01*
X517211Y323696D01*
X516238D01*
X515298Y323445D01*
X514455Y322958D01*
X513766Y322270D01*
X513280Y321427D01*
X513028Y320487D01*
Y319513D01*
X513280Y318573D01*
X513766Y317730D01*
X514455Y317042D01*
X515298Y316556D01*
X516002Y316367D01*
X515937Y315867D01*
X507512D01*
X507446Y316367D01*
X508151Y316556D01*
X508994Y317042D01*
X509682Y317730D01*
X510169Y318573D01*
X510421Y319513D01*
Y320487D01*
X510169Y321427D01*
X509682Y322270D01*
X508994Y322958D01*
X508151Y323445D01*
X507211Y323696D01*
X506238D01*
X505298Y323445D01*
X504455Y322958D01*
X503766Y322270D01*
X503280Y321427D01*
X503028Y320487D01*
Y319513D01*
X503280Y318573D01*
X503766Y317730D01*
X504455Y317042D01*
X505298Y316556D01*
X506002Y316367D01*
X505936Y315867D01*
X497512D01*
X497446Y316367D01*
X498151Y316556D01*
X498994Y317042D01*
X499682Y317730D01*
X500169Y318573D01*
X500421Y319513D01*
Y320487D01*
X500169Y321427D01*
X499682Y322270D01*
X498994Y322958D01*
X498151Y323445D01*
X497211Y323696D01*
X496238D01*
X495298Y323445D01*
X494455Y322958D01*
X493766Y322270D01*
X493280Y321427D01*
X493028Y320487D01*
Y319513D01*
X493280Y318573D01*
X493766Y317730D01*
X494455Y317042D01*
X495298Y316556D01*
X496002Y316367D01*
X495936Y315867D01*
X487512D01*
X487446Y316367D01*
X488151Y316556D01*
X488994Y317042D01*
X489682Y317730D01*
X490169Y318573D01*
X490421Y319513D01*
Y320487D01*
X490169Y321427D01*
X489682Y322270D01*
X488994Y322958D01*
X488151Y323445D01*
X487211Y323696D01*
X486238D01*
X485298Y323445D01*
X484455Y322958D01*
X483767Y322270D01*
X483280Y321427D01*
X483028Y320487D01*
Y319513D01*
X483280Y318573D01*
X483767Y317730D01*
X484455Y317042D01*
X485298Y316556D01*
X486002Y316367D01*
X485936Y315867D01*
X477512D01*
X477447Y316367D01*
X478151Y316556D01*
X478994Y317042D01*
X479682Y317730D01*
X480169Y318573D01*
X480421Y319513D01*
Y320487D01*
X480169Y321427D01*
X479682Y322270D01*
X478994Y322958D01*
X478151Y323445D01*
X477211Y323696D01*
X476238D01*
X475298Y323445D01*
X474455Y322958D01*
X473767Y322270D01*
X473280Y321427D01*
X473028Y320487D01*
Y319513D01*
X473280Y318573D01*
X473767Y317730D01*
X474455Y317042D01*
X475298Y316556D01*
X476002Y316367D01*
X475937Y315867D01*
X467512D01*
X467447Y316367D01*
X468151Y316556D01*
X468994Y317042D01*
X469682Y317730D01*
X470169Y318573D01*
X470421Y319513D01*
Y320487D01*
X470169Y321427D01*
X469682Y322270D01*
X468994Y322958D01*
X468151Y323445D01*
X467211Y323696D01*
X466238D01*
X465298Y323445D01*
X464455Y322958D01*
X463766Y322270D01*
X463280Y321427D01*
X463028Y320487D01*
Y319513D01*
X463280Y318573D01*
X463766Y317730D01*
X464455Y317042D01*
X465298Y316556D01*
X466002Y316367D01*
X465937Y315867D01*
X457512D01*
X457446Y316367D01*
X458151Y316556D01*
X458994Y317042D01*
X459682Y317730D01*
X460169Y318573D01*
X460421Y319513D01*
Y320487D01*
X460169Y321427D01*
X459682Y322270D01*
X458994Y322958D01*
X458151Y323445D01*
X457211Y323696D01*
X456238D01*
X455298Y323445D01*
X454455Y322958D01*
X453766Y322270D01*
X453280Y321427D01*
X453028Y320487D01*
Y319513D01*
X453280Y318573D01*
X453766Y317730D01*
X454455Y317042D01*
X455298Y316556D01*
X456002Y316367D01*
X455936Y315867D01*
X447512D01*
X447446Y316367D01*
X448151Y316556D01*
X448994Y317042D01*
X449682Y317730D01*
X450169Y318573D01*
X450421Y319513D01*
Y320487D01*
X450169Y321427D01*
X449682Y322270D01*
X448994Y322958D01*
X448151Y323445D01*
X447211Y323696D01*
X446238D01*
X445298Y323445D01*
X444455Y322958D01*
X443766Y322270D01*
X443280Y321427D01*
X443028Y320487D01*
Y319513D01*
X443280Y318573D01*
X443766Y317730D01*
X444455Y317042D01*
X445298Y316556D01*
X446002Y316367D01*
X445936Y315867D01*
X437512D01*
X437446Y316367D01*
X438151Y316556D01*
X438994Y317042D01*
X439682Y317730D01*
X440169Y318573D01*
X440421Y319513D01*
Y320487D01*
X440169Y321427D01*
X439682Y322270D01*
X438994Y322958D01*
X438151Y323445D01*
X437211Y323696D01*
X436238D01*
X435298Y323445D01*
X434455Y322958D01*
X433767Y322270D01*
X433280Y321427D01*
X433028Y320487D01*
Y319513D01*
X433280Y318573D01*
X433767Y317730D01*
X434455Y317042D01*
X435298Y316556D01*
X436002Y316367D01*
X435936Y315867D01*
X427512D01*
X427447Y316367D01*
X428151Y316556D01*
X428994Y317042D01*
X429682Y317730D01*
X430169Y318573D01*
X430421Y319513D01*
Y320487D01*
X430169Y321427D01*
X429682Y322270D01*
X428994Y322958D01*
X428151Y323445D01*
X427211Y323696D01*
X426238D01*
X425298Y323445D01*
X424455Y322958D01*
X423767Y322270D01*
X423280Y321427D01*
X423028Y320487D01*
Y319513D01*
X423280Y318573D01*
X423767Y317730D01*
X424455Y317042D01*
X425298Y316556D01*
X426002Y316367D01*
X425937Y315867D01*
X417512D01*
X417447Y316367D01*
X418151Y316556D01*
X418994Y317042D01*
X419682Y317730D01*
X420169Y318573D01*
X420421Y319513D01*
Y320487D01*
X420169Y321427D01*
X419682Y322270D01*
X418994Y322958D01*
X418151Y323445D01*
X417211Y323696D01*
X416238D01*
X415298Y323445D01*
X414455Y322958D01*
X413766Y322270D01*
X413280Y321427D01*
X413028Y320487D01*
Y319513D01*
X413280Y318573D01*
X413766Y317730D01*
X414455Y317042D01*
X415298Y316556D01*
X416002Y316367D01*
X415937Y315867D01*
X407512D01*
X407446Y316367D01*
X408151Y316556D01*
X408994Y317042D01*
X409682Y317730D01*
X410169Y318573D01*
X410421Y319513D01*
Y320487D01*
X410169Y321427D01*
X409682Y322270D01*
X408994Y322958D01*
X408151Y323445D01*
X407211Y323696D01*
X406238D01*
X405298Y323445D01*
X404455Y322958D01*
X403766Y322270D01*
X403280Y321427D01*
X403028Y320487D01*
Y319513D01*
X403280Y318573D01*
X403766Y317730D01*
X404455Y317042D01*
X405298Y316556D01*
X406002Y316367D01*
X405936Y315867D01*
X397512D01*
X397446Y316367D01*
X398151Y316556D01*
X398994Y317042D01*
X399682Y317730D01*
X400169Y318573D01*
X400421Y319513D01*
Y320487D01*
X400169Y321427D01*
X399682Y322270D01*
X398994Y322958D01*
X398151Y323445D01*
X397211Y323696D01*
X396238D01*
X395298Y323445D01*
X394455Y322958D01*
X393766Y322270D01*
X393280Y321427D01*
X393028Y320487D01*
Y319513D01*
X393280Y318573D01*
X393766Y317730D01*
X394455Y317042D01*
X395298Y316556D01*
X396002Y316367D01*
X395936Y315867D01*
X387512D01*
X387446Y316367D01*
X388151Y316556D01*
X388994Y317042D01*
X389682Y317730D01*
X390169Y318573D01*
X390421Y319513D01*
Y320487D01*
X390169Y321427D01*
X389682Y322270D01*
X388994Y322958D01*
X388151Y323445D01*
X387211Y323696D01*
X386238D01*
X385298Y323445D01*
X384455Y322958D01*
X383767Y322270D01*
X383280Y321427D01*
X383028Y320487D01*
Y319513D01*
X383280Y318573D01*
X383767Y317730D01*
X384455Y317042D01*
X385298Y316556D01*
X386002Y316367D01*
X385936Y315867D01*
X377512D01*
X377447Y316367D01*
X378151Y316556D01*
X378994Y317042D01*
X379682Y317730D01*
X380169Y318573D01*
X380421Y319513D01*
Y320487D01*
X380169Y321427D01*
X379682Y322270D01*
X378994Y322958D01*
X378151Y323445D01*
X377374Y323653D01*
Y325455D01*
X377769Y325851D01*
X415621D01*
X416081Y326041D01*
X418390Y328351D01*
X493000D01*
X493459Y328541D01*
X498959Y334041D01*
X499149Y334500D01*
Y337500D01*
X498985Y337896D01*
X499089Y338170D01*
X499229Y338396D01*
X502100D01*
Y338735D01*
X505997D01*
X506292Y338440D01*
X506751Y338250D01*
X507249D01*
X507708Y338440D01*
X508060Y338792D01*
X508250Y339251D01*
Y339749D01*
X508060Y340208D01*
X507765Y340503D01*
Y345134D01*
X510334D01*
Y347409D01*
X507666D01*
Y347210D01*
X507500Y346765D01*
X507207Y346707D01*
X506959Y346541D01*
X506922Y346503D01*
X506781Y346597D01*
X506488Y346655D01*
X506334D01*
Y347409D01*
X503666D01*
Y345134D01*
X505341D01*
X505381Y345126D01*
X505381Y345126D01*
X506171D01*
X506235Y345062D01*
Y340503D01*
X505997Y340265D01*
X502100D01*
Y341808D01*
X502250Y342246D01*
X502250Y342534D01*
X502250Y343246D01*
X502100Y343691D01*
Y347096D01*
X501265D01*
Y348500D01*
X501265Y348500D01*
X501206Y348793D01*
X501041Y349041D01*
X498308Y351774D01*
X498344Y352030D01*
X498875Y352207D01*
X502541Y348541D01*
D02*
G37*
%LPC*%
G36*
X581071Y429500D02*
X577224D01*
Y425654D01*
X577297D01*
X578402Y425950D01*
X579393Y426522D01*
X580202Y427331D01*
X580775Y428322D01*
X581071Y429428D01*
Y429500D01*
D02*
G37*
G36*
X576224D02*
X572378D01*
Y429428D01*
X572674Y428322D01*
X573246Y427331D01*
X574056Y426522D01*
X575047Y425950D01*
X576152Y425654D01*
X576224D01*
Y429500D01*
D02*
G37*
G36*
X571071D02*
X567224D01*
Y425654D01*
X567297D01*
X568402Y425950D01*
X569393Y426522D01*
X570202Y427331D01*
X570775Y428322D01*
X571071Y429428D01*
Y429500D01*
D02*
G37*
G36*
X566224D02*
X562378D01*
Y429428D01*
X562674Y428322D01*
X563246Y427331D01*
X564056Y426522D01*
X565047Y425950D01*
X566152Y425654D01*
X566224D01*
Y429500D01*
D02*
G37*
G36*
X561071D02*
X557224D01*
Y425654D01*
X557297D01*
X558402Y425950D01*
X559393Y426522D01*
X560202Y427331D01*
X560775Y428322D01*
X561071Y429428D01*
Y429500D01*
D02*
G37*
G36*
X556224D02*
X552378D01*
Y429428D01*
X552674Y428322D01*
X553246Y427331D01*
X554056Y426522D01*
X555047Y425950D01*
X556152Y425654D01*
X556224D01*
Y429500D01*
D02*
G37*
G36*
X381071D02*
X377224D01*
Y425654D01*
X377297D01*
X378402Y425950D01*
X379393Y426522D01*
X380202Y427331D01*
X380775Y428322D01*
X381071Y429428D01*
Y429500D01*
D02*
G37*
G36*
X376224D02*
X372378D01*
Y429428D01*
X372674Y428322D01*
X373246Y427331D01*
X374056Y426522D01*
X375047Y425950D01*
X376152Y425654D01*
X376224D01*
Y429500D01*
D02*
G37*
G36*
X371071D02*
X367224D01*
Y425654D01*
X367297D01*
X368402Y425950D01*
X369393Y426522D01*
X370202Y427331D01*
X370775Y428322D01*
X371071Y429428D01*
Y429500D01*
D02*
G37*
G36*
X366224D02*
X362378D01*
Y429428D01*
X362674Y428322D01*
X363246Y427331D01*
X364056Y426522D01*
X365047Y425950D01*
X366152Y425654D01*
X366224D01*
Y429500D01*
D02*
G37*
G36*
X437500Y415485D02*
Y413000D01*
X438914D01*
Y414026D01*
X438802Y414589D01*
X438483Y415066D01*
X438006Y415385D01*
X437500Y415485D01*
D02*
G37*
G36*
X436500D02*
X435994Y415385D01*
X435517Y415066D01*
X435198Y414589D01*
X435086Y414026D01*
Y413000D01*
X436500D01*
Y415485D01*
D02*
G37*
G36*
X355839Y417612D02*
X350524D01*
X349811Y417470D01*
X349207Y417067D01*
X348803Y416463D01*
X348661Y415750D01*
Y414766D01*
X348803Y414053D01*
X349207Y413449D01*
X349811Y413045D01*
X350524Y412904D01*
X355839D01*
X356551Y413045D01*
X357155Y413449D01*
X357559Y414053D01*
X357701Y414766D01*
Y415750D01*
X357559Y416463D01*
X357155Y417067D01*
X356551Y417470D01*
X355839Y417612D01*
D02*
G37*
G36*
X338398D02*
X335051D01*
X334339Y417470D01*
X333734Y417067D01*
X333331Y416463D01*
X333189Y415750D01*
Y414766D01*
X333331Y414053D01*
X333734Y413449D01*
X334339Y413045D01*
X335051Y412904D01*
X338398D01*
X339110Y413045D01*
X339714Y413449D01*
X340118Y414053D01*
X340260Y414766D01*
Y415750D01*
X340118Y416463D01*
X339714Y417067D01*
X339110Y417470D01*
X338398Y417612D01*
D02*
G37*
G36*
X459249Y416250D02*
X458751D01*
X458292Y416060D01*
X457940Y415708D01*
X457750Y415249D01*
Y414751D01*
X457861Y414484D01*
X457666Y413984D01*
X457666D01*
Y411709D01*
X460334D01*
Y413984D01*
X460334Y413984D01*
X460139Y414484D01*
X460250Y414751D01*
Y415249D01*
X460060Y415708D01*
X459708Y416060D01*
X459249Y416250D01*
D02*
G37*
G36*
X438914Y412000D02*
X437500D01*
Y409515D01*
X438006Y409615D01*
X438483Y409934D01*
X438802Y410411D01*
X438914Y410974D01*
Y412000D01*
D02*
G37*
G36*
X436500D02*
X435086D01*
Y410974D01*
X435198Y410411D01*
X435517Y409934D01*
X435994Y409615D01*
X436500Y409515D01*
Y412000D01*
D02*
G37*
G36*
X368100Y412600D02*
X363900D01*
Y411367D01*
X363000D01*
X362668Y411301D01*
X362387Y411113D01*
X360627Y409353D01*
X359988D01*
Y409427D01*
X353579D01*
Y408172D01*
X352650D01*
X352443Y408672D01*
X352476Y408705D01*
X352724Y409304D01*
Y409952D01*
X352476Y410551D01*
X352017Y411009D01*
X351419Y411258D01*
X350770D01*
X350171Y411009D01*
X349713Y410551D01*
X349465Y409952D01*
Y409304D01*
X349713Y408705D01*
X349746Y408672D01*
X349539Y408172D01*
X346305D01*
X345973Y408106D01*
X345692Y407918D01*
X344887Y407113D01*
X344699Y406832D01*
X344633Y406500D01*
Y390000D01*
X344699Y389668D01*
X344887Y389387D01*
X345079Y389195D01*
X344887Y389003D01*
X344699Y388721D01*
X344633Y388390D01*
Y361391D01*
X344699Y361059D01*
X344869Y360805D01*
X344699Y360551D01*
X344633Y360219D01*
Y343281D01*
X344699Y342949D01*
X344887Y342668D01*
X345473Y342082D01*
X345754Y341894D01*
X346086Y341828D01*
X349539D01*
X349746Y341328D01*
X349713Y341295D01*
X349465Y340696D01*
Y340048D01*
X349713Y339449D01*
X350171Y338991D01*
X350770Y338742D01*
X351419D01*
X352017Y338991D01*
X352476Y339449D01*
X352724Y340048D01*
Y340696D01*
X352535Y341153D01*
X352732Y341563D01*
X352821Y341657D01*
X353112Y341696D01*
X353579Y341229D01*
Y340573D01*
X359988D01*
X359988Y343920D01*
X360488Y344075D01*
X362031Y342531D01*
X362246Y342388D01*
X362500Y342337D01*
X363287D01*
Y341666D01*
X365562D01*
Y344334D01*
X363287D01*
Y343663D01*
X362774D01*
X361108Y345329D01*
X360893Y345473D01*
X360640Y345523D01*
X360313D01*
X359988Y345888D01*
X359988Y346301D01*
X359988Y347857D01*
X360488Y347992D01*
X361503Y346977D01*
X361743Y346817D01*
X362026Y346761D01*
X363287D01*
Y346166D01*
X365562D01*
Y348834D01*
X363287D01*
Y348239D01*
X362332D01*
X361558Y349013D01*
X362101Y349556D01*
X362262Y349796D01*
X362318Y350079D01*
Y352812D01*
X362416Y352911D01*
X363267D01*
X363273Y352905D01*
Y352412D01*
X363287Y352341D01*
Y350666D01*
X365562D01*
Y353334D01*
X364727D01*
X364695Y353493D01*
X364535Y353733D01*
X364364Y353905D01*
X364145Y354250D01*
X364364Y354595D01*
X364535Y354767D01*
X364695Y355007D01*
X364727Y355166D01*
X365562D01*
Y357834D01*
X363287D01*
Y356159D01*
X363273Y356088D01*
Y355595D01*
X363267Y355589D01*
X361613D01*
X361330Y355533D01*
X361090Y355373D01*
X360822Y355104D01*
X360295D01*
X359988Y355411D01*
Y355643D01*
X360313Y356009D01*
X360648D01*
X360902Y356059D01*
X361117Y356203D01*
X361469Y356554D01*
X361612Y356769D01*
X361663Y357023D01*
Y359226D01*
X362275Y359837D01*
X363287D01*
Y359166D01*
X365562D01*
Y361834D01*
X363287D01*
Y361163D01*
X362000D01*
X361746Y361112D01*
X361531Y360969D01*
X360531Y359969D01*
X360488Y359903D01*
X359988Y360055D01*
Y362927D01*
X353579D01*
Y362271D01*
X353112Y361804D01*
X352821Y361843D01*
X352732Y361937D01*
X352535Y362347D01*
X352724Y362804D01*
Y363452D01*
X352476Y364051D01*
X352017Y364509D01*
X351419Y364757D01*
X350770D01*
X350171Y364509D01*
X349713Y364051D01*
X349465Y363452D01*
Y362804D01*
X349713Y362205D01*
X349746Y362172D01*
X349539Y361672D01*
X346445D01*
X346367Y361750D01*
Y388031D01*
X346664Y388328D01*
X349539D01*
X349746Y387828D01*
X349713Y387795D01*
X349465Y387196D01*
Y386548D01*
X349713Y385949D01*
X350171Y385491D01*
X350770Y385243D01*
X351419D01*
X352017Y385491D01*
X352476Y385949D01*
X352724Y386548D01*
Y387196D01*
X352535Y387653D01*
X352732Y388063D01*
X352821Y388157D01*
X353112Y388196D01*
X353579Y387729D01*
Y387073D01*
X359988D01*
X359988Y390344D01*
X360341Y390698D01*
X363287D01*
Y390165D01*
X365562D01*
Y392834D01*
X363287D01*
Y392023D01*
X360313D01*
X359988Y392388D01*
X359988Y392801D01*
X359988Y394269D01*
X359988Y394640D01*
X360121Y394774D01*
X360404Y394830D01*
X360644Y394990D01*
X362565Y396911D01*
X363071D01*
X363077Y396905D01*
Y396413D01*
X363091Y396341D01*
Y394666D01*
X365366D01*
Y397335D01*
X364531D01*
X364499Y397494D01*
X364339Y397734D01*
X364167Y397905D01*
X363949Y398250D01*
X364167Y398595D01*
X364339Y398767D01*
X364499Y399007D01*
X364531Y399166D01*
X365366D01*
Y401835D01*
X363091D01*
Y400490D01*
X362591Y400282D01*
X361532Y401341D01*
X361293Y401501D01*
X361010Y401558D01*
X360341D01*
X359988Y401911D01*
Y402143D01*
X360313Y402508D01*
X360671D01*
X360925Y402559D01*
X361140Y402703D01*
X362774Y404337D01*
X363287D01*
Y403665D01*
X365562D01*
Y406334D01*
X363287D01*
Y405662D01*
X362500D01*
X362246Y405612D01*
X362031Y405468D01*
X360627Y404064D01*
X360065Y404112D01*
X359988Y404199D01*
X359988Y404612D01*
X359988Y406222D01*
X359988Y407020D01*
X360587Y407620D01*
X360986D01*
X361318Y407686D01*
X361599Y407873D01*
X363359Y409633D01*
X363900D01*
Y408400D01*
X368100D01*
Y412600D01*
D02*
G37*
G36*
X452443Y414834D02*
X451557D01*
X451248Y414773D01*
X450985Y414597D01*
X450810Y414335D01*
X450749Y414026D01*
Y410974D01*
X450810Y410665D01*
X450985Y410403D01*
X451248Y410227D01*
X451557Y410166D01*
X452443D01*
X452752Y410227D01*
X453015Y410403D01*
X453154Y410612D01*
X454451D01*
X455269Y409794D01*
X455250Y409749D01*
Y409251D01*
X455440Y408792D01*
X455792Y408440D01*
X456251Y408250D01*
X456749D01*
X457166Y408423D01*
X457666Y408363D01*
X457666Y408363D01*
X460334D01*
Y410637D01*
X457666D01*
Y410637D01*
X457166Y410577D01*
X456749Y410750D01*
X456251D01*
X456206Y410731D01*
X455194Y411743D01*
X454979Y411887D01*
X454726Y411937D01*
X453251D01*
Y414026D01*
X453190Y414335D01*
X453015Y414597D01*
X452752Y414773D01*
X452443Y414834D01*
D02*
G37*
G36*
X394676Y408445D02*
X392601D01*
Y407453D01*
X394676D01*
Y408445D01*
D02*
G37*
G36*
X549050Y406700D02*
X545350D01*
Y405860D01*
X544234D01*
Y405866D01*
X541566D01*
Y403591D01*
X541954D01*
Y387637D01*
X541566D01*
Y385363D01*
X544234D01*
Y387637D01*
X543846D01*
Y403591D01*
X544234D01*
Y403968D01*
X545350D01*
Y403500D01*
X549050D01*
Y406700D01*
D02*
G37*
G36*
X447443Y414834D02*
X446557D01*
X446248Y414773D01*
X445985Y414597D01*
X445810Y414335D01*
X445749Y414026D01*
Y410974D01*
X445810Y410665D01*
X445985Y410403D01*
X446248Y410227D01*
X446337Y410210D01*
Y407500D01*
X446388Y407246D01*
X446531Y407031D01*
X447837Y405725D01*
Y404638D01*
X447337Y404430D01*
X447208Y404560D01*
X446749Y404750D01*
X446251D01*
X446206Y404731D01*
X442663Y408275D01*
Y410210D01*
X442752Y410227D01*
X443015Y410403D01*
X443190Y410665D01*
X443251Y410974D01*
Y414026D01*
X443190Y414335D01*
X443015Y414597D01*
X442752Y414773D01*
X442443Y414834D01*
X441557D01*
X441248Y414773D01*
X440985Y414597D01*
X440810Y414335D01*
X440749Y414026D01*
Y410974D01*
X440810Y410665D01*
X440985Y410403D01*
X441248Y410227D01*
X441337Y410210D01*
Y408000D01*
X441388Y407746D01*
X441531Y407531D01*
X445269Y403794D01*
X445250Y403749D01*
Y403251D01*
X445440Y402792D01*
X445792Y402440D01*
X446251Y402250D01*
X446749D01*
X447208Y402440D01*
X447337Y402569D01*
X447837Y402362D01*
Y400774D01*
X447148Y400085D01*
X446749Y400250D01*
X446251D01*
X445792Y400060D01*
X445440Y399708D01*
X445250Y399249D01*
Y398751D01*
X445440Y398292D01*
X445792Y397940D01*
X446251Y397750D01*
X446749D01*
X447208Y397940D01*
X447560Y398292D01*
X447750Y398751D01*
Y398860D01*
X447891Y398954D01*
X448969Y400031D01*
X449112Y400246D01*
X449163Y400500D01*
Y406000D01*
X449112Y406254D01*
X448969Y406469D01*
X447663Y407774D01*
Y410210D01*
X447752Y410227D01*
X448015Y410403D01*
X448190Y410665D01*
X448251Y410974D01*
Y414026D01*
X448190Y414335D01*
X448015Y414597D01*
X447752Y414773D01*
X447443Y414834D01*
D02*
G37*
G36*
X394676Y400547D02*
X392601D01*
Y399555D01*
X394676D01*
Y400547D01*
D02*
G37*
G36*
X459249Y403950D02*
X458751D01*
X458292Y403760D01*
X457940Y403408D01*
X457750Y402949D01*
Y402451D01*
X457940Y401992D01*
X458292Y401640D01*
X458337Y401621D01*
Y399364D01*
X457665D01*
Y397090D01*
X460334D01*
Y399364D01*
X459663D01*
Y401621D01*
X459708Y401640D01*
X460060Y401992D01*
X460250Y402451D01*
Y402949D01*
X460060Y403408D01*
X459708Y403760D01*
X459249Y403950D01*
D02*
G37*
G36*
X368712Y401835D02*
X366438D01*
Y399166D01*
X367667D01*
X368409Y398424D01*
X368379Y397846D01*
X368370Y397840D01*
X367864Y397335D01*
X366438D01*
Y394666D01*
X368712D01*
Y395816D01*
X369150Y396244D01*
X369418Y396237D01*
X369770Y395885D01*
X370229Y395695D01*
X370726D01*
X371186Y395885D01*
X371538Y396237D01*
X371728Y396696D01*
Y397193D01*
X371538Y397653D01*
X371300Y397891D01*
X371230Y398195D01*
X371300Y398499D01*
X371538Y398737D01*
X371728Y399196D01*
Y399693D01*
X371538Y400153D01*
X371186Y400504D01*
X370726Y400695D01*
X370229D01*
X369770Y400504D01*
X369418Y400153D01*
X368939Y400243D01*
X368712Y400437D01*
Y401835D01*
D02*
G37*
G36*
X431417Y394787D02*
X426583D01*
Y386213D01*
X431417D01*
Y389295D01*
X431917Y389502D01*
X435750Y385669D01*
Y385251D01*
X435940Y384792D01*
X436292Y384440D01*
X436751Y384250D01*
X437249D01*
X437708Y384440D01*
X438060Y384792D01*
X438250Y385251D01*
Y385749D01*
X438060Y386208D01*
X437708Y386560D01*
X437249Y386750D01*
X436831D01*
X432541Y391041D01*
X432293Y391207D01*
X432000Y391265D01*
X431417D01*
Y394787D01*
D02*
G37*
G36*
X536197Y384333D02*
X534394D01*
Y383846D01*
X533534D01*
Y384038D01*
X530865D01*
Y383846D01*
X529850D01*
Y384200D01*
X526150D01*
Y381000D01*
X529850D01*
Y381955D01*
X530865D01*
Y381763D01*
X533534D01*
Y381955D01*
X534394D01*
Y381467D01*
X536197D01*
Y382676D01*
X536241Y382900D01*
X536197Y383124D01*
Y384333D01*
D02*
G37*
G36*
X374334Y391637D02*
X371666D01*
Y389363D01*
X372235D01*
Y387326D01*
X371075D01*
Y383674D01*
X374925D01*
Y387326D01*
X373765D01*
Y389363D01*
X374334D01*
Y391637D01*
D02*
G37*
G36*
X540606Y384333D02*
X538803D01*
Y383124D01*
X538759Y382900D01*
X538803Y382676D01*
Y381467D01*
X540606D01*
Y381954D01*
X541565D01*
Y381820D01*
X541566D01*
Y381763D01*
X544235D01*
Y384037D01*
X544234D01*
Y384094D01*
X541565D01*
Y383846D01*
X540606D01*
Y384333D01*
D02*
G37*
G36*
X579083Y415911D02*
X572488D01*
X572221Y415800D01*
X572110Y415532D01*
Y380872D01*
X569914D01*
Y415532D01*
X569803Y415800D01*
X569536Y415911D01*
X563040D01*
X562772Y415800D01*
X562661Y415532D01*
Y405970D01*
X558512D01*
X558323Y405892D01*
X557834Y405866D01*
X557834Y405866D01*
X557834Y405866D01*
X555166D01*
Y405674D01*
X554050D01*
Y406700D01*
X550350D01*
Y403500D01*
X554050D01*
Y403783D01*
X555166D01*
Y403591D01*
X557834D01*
X557834Y403591D01*
X558334Y403712D01*
X558512Y403638D01*
X565008D01*
X565276Y403749D01*
X565387Y404017D01*
Y413382D01*
X567484D01*
Y378623D01*
X567594Y378355D01*
X567862Y378244D01*
X574359D01*
X574626Y378355D01*
X574737Y378623D01*
Y413382D01*
X576834D01*
Y378524D01*
X576945Y378257D01*
X577213Y378146D01*
X583807D01*
X584075Y378257D01*
X584186Y378524D01*
Y405985D01*
X584075Y406253D01*
X583807Y406364D01*
X582036D01*
X581768Y406253D01*
X581657Y405985D01*
Y388662D01*
Y380773D01*
X579462D01*
Y415532D01*
X579351Y415800D01*
X579083Y415911D01*
D02*
G37*
G36*
X374925Y381224D02*
X371075D01*
Y379265D01*
X368503D01*
X368208Y379560D01*
X367749Y379750D01*
X367251D01*
X366792Y379560D01*
X366440Y379208D01*
X366250Y378749D01*
Y378251D01*
X366440Y377792D01*
X366792Y377440D01*
X367251Y377250D01*
X367749D01*
X368208Y377440D01*
X368503Y377735D01*
X371075D01*
Y377571D01*
X374925D01*
Y381224D01*
D02*
G37*
G36*
X355839Y383596D02*
X350524D01*
X349811Y383455D01*
X349207Y383051D01*
X348803Y382447D01*
X348661Y381734D01*
Y380750D01*
X348803Y380037D01*
X349207Y379433D01*
X349811Y379030D01*
X350524Y378888D01*
X355839D01*
X356551Y379030D01*
X357155Y379433D01*
X357559Y380037D01*
X357701Y380750D01*
Y381734D01*
X357559Y382447D01*
X357155Y383051D01*
X356551Y383455D01*
X355839Y383596D01*
D02*
G37*
G36*
X338398D02*
X335051D01*
X334339Y383455D01*
X333734Y383051D01*
X333331Y382447D01*
X333189Y381734D01*
Y380750D01*
X333331Y380037D01*
X333734Y379433D01*
X334339Y379030D01*
X335051Y378888D01*
X338398D01*
X339110Y379030D01*
X339714Y379433D01*
X340118Y380037D01*
X340260Y380750D01*
Y381734D01*
X340118Y382447D01*
X339714Y383051D01*
X339110Y383455D01*
X338398Y383596D01*
D02*
G37*
G36*
X460334Y396018D02*
X457665D01*
Y393743D01*
X458337D01*
Y392774D01*
X452726Y387163D01*
X443500D01*
X443246Y387112D01*
X443031Y386969D01*
X441531Y385469D01*
X441388Y385254D01*
X441337Y385000D01*
Y383294D01*
X441248Y383276D01*
X440985Y383101D01*
X440810Y382839D01*
X440749Y382529D01*
Y379478D01*
X440810Y379169D01*
X440985Y378907D01*
X441248Y378731D01*
X441557Y378670D01*
X442443D01*
X442752Y378731D01*
X443015Y378907D01*
X443190Y379169D01*
X443251Y379478D01*
Y382529D01*
X443190Y382839D01*
X443015Y383101D01*
X442752Y383276D01*
X442663Y383294D01*
Y384725D01*
X443775Y385837D01*
X453000D01*
X453254Y385888D01*
X453469Y386031D01*
X459468Y392031D01*
X459612Y392246D01*
X459662Y392500D01*
Y393743D01*
X460334D01*
Y396018D01*
D02*
G37*
G36*
X437443Y383338D02*
X436557D01*
X436248Y383276D01*
X435985Y383101D01*
X435810Y382839D01*
X435749Y382529D01*
Y379478D01*
X435810Y379169D01*
X435985Y378907D01*
X436248Y378731D01*
X436337Y378714D01*
Y377825D01*
X436386Y377578D01*
X436250Y377249D01*
Y376751D01*
X436440Y376292D01*
X436792Y375940D01*
X437251Y375750D01*
X437749D01*
X438208Y375940D01*
X438560Y376292D01*
X438750Y376751D01*
Y377249D01*
X438560Y377708D01*
X438208Y378060D01*
X437749Y378250D01*
X437751Y378623D01*
X437768Y378742D01*
X438015Y378907D01*
X438190Y379169D01*
X438251Y379478D01*
Y382529D01*
X438190Y382839D01*
X438015Y383101D01*
X437752Y383276D01*
X437443Y383338D01*
D02*
G37*
G36*
X447443D02*
X446557D01*
X446248Y383276D01*
X445985Y383101D01*
X445810Y382839D01*
X445749Y382529D01*
Y379478D01*
X445810Y379169D01*
X445968Y378933D01*
X443577Y376542D01*
X443433Y376327D01*
X443383Y376074D01*
Y375949D01*
X443237Y375888D01*
X442885Y375537D01*
X442695Y375077D01*
Y374580D01*
X442885Y374121D01*
X443237Y373769D01*
X443696Y373579D01*
X444194D01*
X444653Y373769D01*
X445005Y374121D01*
X445195Y374580D01*
Y375077D01*
X445005Y375537D01*
X444725Y375816D01*
X447123Y378214D01*
X447266Y378429D01*
X447314Y378670D01*
X447443D01*
X447752Y378731D01*
X448015Y378907D01*
X448190Y379169D01*
X448251Y379478D01*
Y382529D01*
X448190Y382839D01*
X448015Y383101D01*
X447752Y383276D01*
X447443Y383338D01*
D02*
G37*
G36*
X383142Y373019D02*
X383037Y372998D01*
X382524Y372656D01*
X382393Y372459D01*
X382024Y372386D01*
X381673Y372456D01*
X381322Y372386D01*
X381024Y372187D01*
X380825Y371889D01*
X380756Y371538D01*
Y369310D01*
X373545D01*
X373252Y369251D01*
X373004Y369086D01*
X370169Y366250D01*
X369751D01*
X369507Y366149D01*
X369007Y366334D01*
Y366334D01*
X366732D01*
Y363666D01*
X369007D01*
Y363666D01*
X369507Y363851D01*
X369751Y363750D01*
X370249D01*
X370708Y363940D01*
X371060Y364292D01*
X371250Y364751D01*
Y365169D01*
X373862Y367780D01*
X380756D01*
Y365552D01*
X380825Y365200D01*
X381024Y364903D01*
X381322Y364704D01*
X381673Y364634D01*
X382024Y364704D01*
X382393Y364631D01*
X382524Y364434D01*
X383037Y364091D01*
X383142Y364071D01*
Y368545D01*
Y373019D01*
D02*
G37*
G36*
X413659Y371133D02*
X413161D01*
X412702Y370942D01*
X412350Y370591D01*
X412160Y370131D01*
Y369634D01*
X412350Y369175D01*
X412702Y368823D01*
X413161Y368633D01*
X413659D01*
X413793Y368688D01*
X413938Y368544D01*
X414186Y368378D01*
X414479Y368320D01*
X414844Y368008D01*
Y367166D01*
X417119D01*
Y369834D01*
X415668D01*
X415594Y369849D01*
X414796D01*
X414660Y369985D01*
Y370131D01*
X414470Y370591D01*
X414118Y370942D01*
X413659Y371133D01*
D02*
G37*
G36*
X355839Y371112D02*
X350524D01*
X349811Y370970D01*
X349207Y370567D01*
X348803Y369963D01*
X348661Y369250D01*
Y368266D01*
X348803Y367553D01*
X349207Y366949D01*
X349811Y366545D01*
X350524Y366404D01*
X355839D01*
X356551Y366545D01*
X357155Y366949D01*
X357559Y367553D01*
X357701Y368266D01*
Y369250D01*
X357559Y369963D01*
X357155Y370567D01*
X356551Y370970D01*
X355839Y371112D01*
D02*
G37*
G36*
X338398D02*
X335051D01*
X334339Y370970D01*
X333734Y370567D01*
X333331Y369963D01*
X333189Y369250D01*
Y368266D01*
X333331Y367553D01*
X333734Y366949D01*
X334339Y366545D01*
X335051Y366404D01*
X338398D01*
X339110Y366545D01*
X339714Y366949D01*
X340118Y367553D01*
X340260Y368266D01*
Y369250D01*
X340118Y369963D01*
X339714Y370567D01*
X339110Y370970D01*
X338398Y371112D01*
D02*
G37*
G36*
X524249Y366750D02*
X523751D01*
X523292Y366560D01*
X522940Y366208D01*
X522750Y365749D01*
Y365251D01*
X522940Y364792D01*
X523292Y364440D01*
X523751Y364250D01*
X523776D01*
X524166Y363984D01*
X524166Y363788D01*
Y361709D01*
X526834D01*
Y363984D01*
X526149D01*
Y364000D01*
X525959Y364459D01*
X525226Y365193D01*
X525250Y365251D01*
Y365749D01*
X525060Y366208D01*
X524708Y366560D01*
X524249Y366750D01*
D02*
G37*
G36*
X387868Y359350D02*
X387132D01*
X386452Y359068D01*
X385932Y358548D01*
X385650Y357868D01*
Y357132D01*
X385932Y356452D01*
X386452Y355932D01*
X387132Y355650D01*
X387868D01*
X388548Y355932D01*
X389068Y356452D01*
X389350Y357132D01*
Y357868D01*
X389068Y358548D01*
X388548Y359068D01*
X387868Y359350D01*
D02*
G37*
G36*
X526834Y360637D02*
X524166D01*
Y358363D01*
X524851D01*
Y356826D01*
X523575D01*
Y353174D01*
X527425D01*
Y356826D01*
X526149D01*
Y358363D01*
X526834D01*
Y360637D01*
D02*
G37*
G36*
X399249Y353750D02*
X398751D01*
X398292Y353560D01*
X397940Y353208D01*
X397750Y352749D01*
Y352251D01*
X397940Y351792D01*
X398292Y351440D01*
X398751Y351250D01*
X399249D01*
X399708Y351440D01*
X400060Y351792D01*
X400250Y352251D01*
Y352749D01*
X400060Y353208D01*
X399708Y353560D01*
X399249Y353750D01*
D02*
G37*
G36*
X544234Y380494D02*
X541566D01*
Y378220D01*
X541955D01*
Y352637D01*
X541566D01*
Y350363D01*
X544235D01*
Y350554D01*
X545350D01*
Y349500D01*
X549050D01*
Y352700D01*
X545350D01*
Y352446D01*
X544235D01*
Y352637D01*
X543846D01*
Y378220D01*
X544234D01*
Y380494D01*
D02*
G37*
G36*
X440425Y349826D02*
X436575D01*
Y348663D01*
X436361D01*
X436108Y348612D01*
X435893Y348469D01*
X432771Y345347D01*
X432334D01*
X432270Y345334D01*
X430709D01*
Y342666D01*
X432984D01*
Y344021D01*
X433045D01*
X433299Y344072D01*
X433514Y344215D01*
X436113Y346815D01*
X436575Y346623D01*
Y346174D01*
X440425D01*
Y349826D01*
D02*
G37*
G36*
X387868Y349350D02*
X387132D01*
X386452Y349068D01*
X385932Y348548D01*
X385650Y347868D01*
Y347132D01*
X385932Y346452D01*
X386452Y345932D01*
X387132Y345650D01*
X387868D01*
X388548Y345932D01*
X389068Y346452D01*
X389350Y347132D01*
Y347868D01*
X389068Y348548D01*
X388548Y349068D01*
X387868Y349350D01*
D02*
G37*
G36*
X368909Y348834D02*
X366634D01*
Y346166D01*
X367827D01*
X368342Y345651D01*
X368590Y345485D01*
X368883Y345427D01*
X368884D01*
X368940Y345292D01*
X369292Y344940D01*
X369751Y344750D01*
X370249D01*
X370708Y344940D01*
X371060Y345292D01*
X371250Y345751D01*
Y346249D01*
X371060Y346708D01*
X370708Y347060D01*
X370249Y347250D01*
X369751D01*
X369339Y347079D01*
X369113Y347211D01*
X368909Y347384D01*
Y348834D01*
D02*
G37*
G36*
X355839Y337096D02*
X350524D01*
X349811Y336955D01*
X349207Y336551D01*
X348803Y335947D01*
X348661Y335234D01*
Y334250D01*
X348803Y333537D01*
X349207Y332933D01*
X349811Y332530D01*
X350524Y332388D01*
X355839D01*
X356551Y332530D01*
X357155Y332933D01*
X357559Y333537D01*
X357701Y334250D01*
Y335234D01*
X357559Y335947D01*
X357155Y336551D01*
X356551Y336955D01*
X355839Y337096D01*
D02*
G37*
G36*
X338398D02*
X335051D01*
X334339Y336955D01*
X333734Y336551D01*
X333331Y335947D01*
X333189Y335234D01*
Y334250D01*
X333331Y333537D01*
X333734Y332933D01*
X334339Y332530D01*
X335051Y332388D01*
X338398D01*
X339110Y332530D01*
X339714Y332933D01*
X340118Y333537D01*
X340260Y334250D01*
Y335234D01*
X340118Y335947D01*
X339714Y336551D01*
X339110Y336955D01*
X338398Y337096D01*
D02*
G37*
G36*
X577297Y324346D02*
X577224D01*
Y320500D01*
X581071D01*
Y320572D01*
X580775Y321678D01*
X580202Y322669D01*
X579393Y323478D01*
X578402Y324050D01*
X577297Y324346D01*
D02*
G37*
G36*
X576224D02*
X576152D01*
X575047Y324050D01*
X574056Y323478D01*
X573246Y322669D01*
X572674Y321678D01*
X572378Y320572D01*
Y320500D01*
X576224D01*
Y324346D01*
D02*
G37*
G36*
X567297D02*
X567224D01*
Y320500D01*
X571071D01*
Y320572D01*
X570775Y321678D01*
X570202Y322669D01*
X569393Y323478D01*
X568402Y324050D01*
X567297Y324346D01*
D02*
G37*
G36*
X566224D02*
X566152D01*
X565047Y324050D01*
X564056Y323478D01*
X563246Y322669D01*
X562674Y321678D01*
X562378Y320572D01*
Y320500D01*
X566224D01*
Y324346D01*
D02*
G37*
%LPD*%
G36*
X579083Y380395D02*
X582036D01*
Y388662D01*
Y405985D01*
X583807D01*
Y378524D01*
X577213D01*
Y413761D01*
X574359D01*
Y378623D01*
X567862D01*
Y413761D01*
X565008D01*
Y404017D01*
X558512D01*
Y405591D01*
X563040D01*
Y415434D01*
Y415532D01*
X569536D01*
Y380788D01*
Y380493D01*
X572488D01*
Y415434D01*
Y415532D01*
X579083D01*
Y380395D01*
D02*
G37*
%LPC*%
G36*
X460334Y360791D02*
X457666D01*
Y358516D01*
X458235D01*
Y357503D01*
X457940Y357208D01*
X457750Y356749D01*
Y356251D01*
X457940Y355792D01*
X458292Y355440D01*
X458751Y355250D01*
X459249D01*
X459708Y355440D01*
X460060Y355792D01*
X460250Y356251D01*
Y356749D01*
X460060Y357208D01*
X459765Y357503D01*
Y358516D01*
X460334D01*
Y360791D01*
D02*
G37*
%LPD*%
D15*
X400000Y341783D02*
Y342000D01*
X401339Y336474D02*
Y340444D01*
Y336474D02*
X401358Y336455D01*
X400000Y341783D02*
X401339Y340444D01*
X419328Y364000D02*
X421500D01*
X419328Y364000D02*
X419328Y364000D01*
X421500D02*
X421500Y364000D01*
X505091Y408244D02*
X505772Y408925D01*
X504134Y406312D02*
Y406341D01*
X505772Y408925D02*
X506067D01*
X504134Y406341D02*
X505091Y407298D01*
Y408244D01*
X509500Y403968D02*
Y406109D01*
Y403968D02*
X509543Y403925D01*
X509500Y406109D02*
X509643Y406252D01*
Y411857D01*
X471000Y403729D02*
X471150Y403879D01*
X475066D02*
X476001Y404813D01*
X471150Y403879D02*
X475066D01*
X459000Y370500D02*
Y374000D01*
X368059Y391500D02*
X368059Y391500D01*
X370059D02*
X370644Y392086D01*
Y393498D02*
X370666Y393520D01*
X367771Y391500D02*
X368059D01*
X368059Y391500D02*
X370059D01*
X370644Y392086D02*
Y393498D01*
X367771Y405000D02*
X368051Y404720D01*
X369045D02*
X369198Y404567D01*
X368051Y404720D02*
X369045D01*
X469500Y336500D02*
Y346000D01*
Y336500D02*
X470500Y335500D01*
X489000D01*
X490500Y337000D01*
Y339500D01*
X489500Y340717D02*
X490500Y339717D01*
X489500Y340717D02*
Y346000D01*
X490500Y339500D02*
Y339717D01*
X511463Y403963D02*
X511500Y404000D01*
X509543Y403925D02*
X509580Y403963D01*
X511463D01*
X509500Y412000D02*
X509643Y411857D01*
X509347Y412153D02*
Y414153D01*
X508500Y415000D02*
X509347Y414153D01*
Y412153D02*
X509500Y412000D01*
X499586Y415000D02*
X508500D01*
X499000Y414414D02*
X499586Y415000D01*
X499000Y412000D02*
Y414414D01*
X496771Y409771D02*
X499000Y412000D01*
X496771Y403851D02*
Y409771D01*
X496809Y403888D02*
X498691D01*
X496771Y403851D02*
X496809Y403888D01*
X498691D02*
X498728Y403926D01*
X466500Y416000D02*
X470882D01*
X467197Y346271D02*
X467484Y346559D01*
Y346984D02*
X473701Y353201D01*
X473701D01*
X467484Y346559D02*
Y346984D01*
X467000Y346271D02*
X467197D01*
X467004Y403725D02*
X467296Y404016D01*
X468516D01*
X469000Y404500D01*
X469484Y404016D01*
X470713D02*
X471000Y403729D01*
X469484Y404016D02*
X470713D01*
X469000Y404500D02*
Y411500D01*
X470882Y413382D01*
Y416000D01*
X473850Y353350D02*
X476802Y356302D01*
X459000Y384000D02*
X459000Y384000D01*
X456500Y384000D02*
X459000D01*
X419328Y341500D02*
X422000D01*
X422000Y341500D01*
X419328Y341500D02*
X419328Y341500D01*
X368059Y355125D02*
X370439Y352744D01*
Y351635D02*
Y352744D01*
X368059Y355125D02*
Y356213D01*
X367771Y356500D02*
X368059Y356213D01*
X372508Y349566D02*
X376436D01*
X370439Y351635D02*
X372508Y349566D01*
X367771Y351803D02*
X368059Y351516D01*
X372173Y347598D02*
X376436D01*
X367771Y351803D02*
Y352000D01*
X368059Y351516D02*
X368256D01*
X372173Y347598D01*
X376436D02*
X376455Y347579D01*
X376436Y349566D02*
X376455Y349547D01*
X353339Y360805D02*
X356784D01*
X346086D02*
X353339D01*
X354520Y361986D01*
X356784D01*
X353339Y342695D02*
X356784D01*
X353339D02*
X354520Y341514D01*
X356784D01*
X346086Y342695D02*
X353339D01*
X345500Y343281D02*
X346086Y342695D01*
X345500Y343281D02*
Y360219D01*
X346086Y360805D01*
X345500Y361391D02*
Y388390D01*
Y361391D02*
X346086Y360805D01*
X345500Y388390D02*
X346305Y389195D01*
X345500Y390000D02*
Y406500D01*
Y390000D02*
X346305Y389195D01*
X345500Y406500D02*
X346305Y407305D01*
X353339Y389195D02*
X356784D01*
X346305D02*
X353339D01*
X354520Y388014D02*
X356784D01*
X353339Y389195D02*
X354520Y388014D01*
X346305Y407305D02*
X356784D01*
X376547Y406953D02*
X379899D01*
X376000Y407500D02*
X376547Y406953D01*
X383000Y393500D02*
X383047Y393547D01*
Y397799D01*
X385000Y393500D02*
X385016Y393516D01*
Y397799D01*
X386984Y394016D02*
Y397799D01*
Y394016D02*
X387000Y394000D01*
X383047Y410001D02*
Y413453D01*
X383000Y413500D02*
X383047Y413453D01*
X385000Y413500D02*
X385016Y413484D01*
Y410001D02*
Y413484D01*
X386984Y413484D02*
X387000Y413500D01*
X386984Y410001D02*
Y413484D01*
X356784Y408486D02*
X360228D01*
X359047Y407305D02*
X360228Y408486D01*
X360986D01*
X356784Y407305D02*
X359047D01*
X363000Y410500D02*
X366000D01*
X360986Y408486D02*
X363000Y410500D01*
X483000Y405354D02*
X489459D01*
X490000Y404813D01*
X478924Y412854D02*
X481500D01*
X483000Y414354D01*
X476001Y409931D02*
X478924Y412854D01*
X510000Y388000D02*
Y392000D01*
X515000Y397000D01*
Y403729D01*
D16*
X428013Y347815D02*
X428500Y348303D01*
Y348500D01*
X426442Y347815D02*
X428013D01*
X426364Y347738D02*
X426442Y347815D01*
X381769Y339919D02*
X384350Y342500D01*
X401429Y363071D02*
Y368474D01*
X384350Y342500D02*
X387500D01*
X401358Y368545D02*
X401429Y368474D01*
X381769Y336551D02*
Y339919D01*
X401429Y363071D02*
X401500Y363000D01*
X381673Y336455D02*
X381769Y336551D01*
X472334Y401262D02*
X485484D01*
X487153Y393500D02*
Y399593D01*
X485484Y401262D02*
X487153Y399593D01*
X487502Y354498D02*
Y354823D01*
X487925Y355246D01*
X506000Y404122D02*
X506487Y404610D01*
Y404935D02*
X508343Y406791D01*
X506487Y404610D02*
Y404935D01*
X506000Y402000D02*
Y404122D01*
X508343Y406791D02*
Y410609D01*
X471203Y402393D02*
Y403526D01*
X471000Y403729D02*
X471203Y403526D01*
Y402393D02*
X472334Y401262D01*
X419324Y348227D02*
X419500Y348051D01*
X414486Y349547D02*
X415806Y348227D01*
X408545Y349547D02*
X414486D01*
X415806Y348227D02*
X419324D01*
X408545Y351516D02*
X414524D01*
X415227Y357500D02*
X419500D01*
X414875Y351867D02*
Y357149D01*
X414524Y351516D02*
X414875Y351867D01*
Y357149D02*
X415227Y357500D01*
X403500Y361500D02*
Y363184D01*
X400000Y355000D02*
Y358000D01*
X403500Y361500D01*
X400000Y355000D02*
X401516Y353484D01*
X405500Y339500D02*
X412000D01*
X401370Y343630D02*
X405500Y339500D01*
X398619Y343630D02*
X401370D01*
X397421Y342432D02*
X398619Y343630D01*
X397421Y336455D02*
Y342432D01*
X491037Y354533D02*
Y359312D01*
X491075Y359350D01*
X491000Y354496D02*
X491037Y354533D01*
X485800Y352700D02*
Y355200D01*
X484000Y354500D02*
X484182Y354682D01*
X485800Y352700D02*
X487500Y351000D01*
X484182Y354682D02*
Y355663D01*
X486350Y355750D02*
Y359350D01*
X485800Y355200D02*
X486350Y355750D01*
X484182Y355663D02*
X484776Y356257D01*
X427500Y339500D02*
X433000D01*
X418000Y334500D02*
X422500D01*
X427500Y339500D01*
X425500Y362000D02*
X428500D01*
X428500Y362000D01*
X459000Y364979D02*
Y366957D01*
X455534Y364979D02*
X459000D01*
Y363000D02*
Y364979D01*
Y363000D02*
X459000Y363000D01*
X455000Y369500D02*
Y375531D01*
X457969Y378500D02*
X459991D01*
X455000Y375531D02*
X457969Y378500D01*
X457000Y369000D02*
Y374710D01*
X458790Y376500D02*
X460395D01*
X457000Y374710D02*
X458790Y376500D01*
X459991Y378500D02*
X464319Y382829D01*
Y383993D02*
X465463Y385137D01*
X464319Y382829D02*
Y383993D01*
X477650Y350000D02*
Y350325D01*
X478476Y351151D01*
Y359350D01*
X479613Y347094D02*
Y356432D01*
X475971Y346743D02*
X479262D01*
X475500Y346271D02*
X475971Y346743D01*
X479262D02*
X479613Y347094D01*
X475500Y343091D02*
Y346271D01*
X480714Y347110D02*
X481065Y346759D01*
X482970D01*
X480714Y347110D02*
Y355976D01*
X483457Y343126D02*
Y346271D01*
X482970Y346759D02*
X483457Y346271D01*
X442000Y385000D02*
X443500Y386500D01*
X442000Y381004D02*
Y385000D01*
X443500Y386500D02*
X453000D01*
X459000Y392500D01*
Y394880D01*
X425000Y371000D02*
X428500D01*
X422750Y373250D02*
X425000Y371000D01*
X397773Y373250D02*
X422750D01*
X411480Y389651D02*
X413247Y387884D01*
X426980Y375000D02*
X435500D01*
X411480Y389651D02*
Y390500D01*
X413247Y387884D02*
X414096D01*
X426980Y375000D01*
X465463Y385137D02*
X467033D01*
X467721Y384449D02*
X473850D01*
X467033Y385137D02*
X467721Y384449D01*
X439500Y371000D02*
X441500Y373000D01*
X431847Y371000D02*
X439500D01*
X435500Y375000D02*
X437500Y373000D01*
X459000Y394880D02*
X459077Y394804D01*
X419500Y403500D02*
X442000D01*
X414233Y408767D02*
X419500Y403500D01*
X413172Y408767D02*
X414233D01*
X437000Y335500D02*
X452500D01*
X433000Y339500D02*
X437000Y335500D01*
X452500D02*
X456700Y339700D01*
X434375Y341500D02*
X438375Y337500D01*
X449500D01*
X426000Y341500D02*
X434375D01*
X423500Y344000D02*
X426000Y341500D01*
X468672Y381299D02*
X473850D01*
X460395Y376500D02*
X465055Y381160D01*
X468533D01*
X468672Y381299D01*
X397421Y368545D02*
Y372898D01*
X397773Y373250D01*
X426417Y365816D02*
X428013D01*
X414000Y362000D02*
X422601D01*
X426417Y365816D01*
X428013D02*
X428500Y366303D01*
Y366500D01*
X408545Y363327D02*
X412673D01*
X414000Y362000D01*
Y364000D02*
X415981D01*
X405816Y365500D02*
X412500D01*
X414000Y364000D01*
X415981D02*
X415981Y364000D01*
X432846Y363000D02*
X451000D01*
X433347Y365000D02*
X450500D01*
X451000Y363000D02*
X457000Y369000D01*
X450500Y365000D02*
X455000Y369500D01*
X431847Y366303D02*
Y366500D01*
X432334Y365816D02*
X432531D01*
X431847Y366303D02*
X432334Y365816D01*
X432531D02*
X433347Y365000D01*
X431847Y362197D02*
X432334Y362684D01*
X432531D01*
X431847Y362000D02*
Y362197D01*
X432531Y362684D02*
X432846Y363000D01*
X450000Y356000D02*
Y359444D01*
X455534Y364979D01*
X459000Y398227D02*
Y402700D01*
X447248Y399423D02*
X447423D01*
X448500Y400500D02*
Y406000D01*
X446500Y399000D02*
X446825D01*
X447248Y399423D01*
X447423D02*
X448500Y400500D01*
X443945Y374829D02*
X444046Y374929D01*
Y376074D01*
X484776Y356257D02*
Y359350D01*
X437000Y377825D02*
Y381004D01*
Y377825D02*
X437500Y377325D01*
Y377000D02*
Y377325D01*
X442000Y408000D02*
Y412500D01*
Y408000D02*
X446500Y403500D01*
X447000Y407500D02*
X448500Y406000D01*
X447000Y407500D02*
Y412500D01*
X459000Y398227D02*
X459000Y398227D01*
X442000Y381004D02*
X442498Y381502D01*
X446654Y380658D02*
X447000Y381004D01*
X444046Y376074D02*
X446654Y378682D01*
Y380658D01*
X511270Y366730D02*
X511500Y366500D01*
X479951Y359250D02*
X480051Y359350D01*
X480714Y355976D02*
X481526Y356789D01*
X479613Y356432D02*
X479951Y356770D01*
Y359250D01*
X487925Y355246D02*
Y359350D01*
X482125Y352875D02*
X484000Y351000D01*
X482125Y355374D02*
X483201Y356450D01*
X482125Y352875D02*
Y355374D01*
X483201Y356450D02*
Y359350D01*
X481526Y357650D02*
X481626Y357750D01*
Y359350D01*
X481526Y356789D02*
Y357650D01*
X452575Y411274D02*
X454726D01*
X456500Y409500D01*
X459000D01*
X505150Y362402D02*
X505250Y362302D01*
X511270Y359730D02*
X511500Y359500D01*
X505150Y363976D02*
X505250Y363876D01*
X511270Y363230D02*
X511500Y363000D01*
X505150Y365551D02*
X505250Y365451D01*
X505150Y367126D02*
X505250Y367026D01*
X505150Y371850D02*
X505250Y371750D01*
X505150Y368701D02*
X505250Y368601D01*
X505150Y370276D02*
X505250Y370176D01*
X505150Y378150D02*
X505250Y378050D01*
X518500Y368500D02*
Y371500D01*
X452000Y411849D02*
X452575Y411274D01*
X452000Y411849D02*
Y412500D01*
X383868Y343977D02*
Y360132D01*
X380000Y331500D02*
Y340109D01*
X383868Y343977D01*
X376463Y351508D02*
X381992D01*
X382000Y351500D01*
X376455Y351516D02*
X376463Y351508D01*
X381159Y353484D02*
X381675Y354000D01*
X376455Y353484D02*
X381159D01*
X381675Y354000D02*
X382000D01*
X380673Y363327D02*
X383868Y360132D01*
X376455Y363327D02*
X380673D01*
X413500Y330000D02*
X418000Y334500D01*
X381500Y330000D02*
X413500D01*
X456700Y339700D02*
Y341876D01*
X449500Y337500D02*
X451200Y339200D01*
X415981Y334981D02*
Y337000D01*
X396000Y331500D02*
X412500D01*
X415981Y334981D01*
Y337000D02*
Y341500D01*
X395453Y332047D02*
X396000Y331500D01*
X380000D02*
X381500Y330000D01*
X395453Y332047D02*
Y336455D01*
X412000Y339500D02*
X413500Y341000D01*
Y342795D01*
X414705Y344000D02*
X423500D01*
X413500Y342795D02*
X414705Y344000D01*
X451200Y339200D02*
Y341876D01*
X433045Y344684D02*
X436361Y348000D01*
X432334Y344684D02*
X433045D01*
X436361Y348000D02*
X438500D01*
X431847Y344197D02*
X432334Y344684D01*
X434184Y349184D02*
X436082Y351082D01*
X440820D02*
X443902Y348000D01*
X436082Y351082D02*
X440820D01*
X431847Y344000D02*
Y344197D01*
X432334Y349184D02*
X434184D01*
X443902Y348000D02*
X444000D01*
X431847Y348500D02*
Y348697D01*
X432334Y349184D01*
X451200Y347979D02*
Y350300D01*
X450500Y351000D02*
X451200Y350300D01*
X443000Y351000D02*
X450500D01*
X444000Y352500D02*
X456000D01*
X456700Y351800D01*
Y347979D02*
Y351800D01*
X431847Y353197D02*
X432334Y353684D01*
X432531D02*
X432795Y353948D01*
X440052D02*
X443000Y351000D01*
X432795Y353948D02*
X440052D01*
X431847Y353000D02*
Y353197D01*
X432334Y353684D02*
X432531D01*
X431847Y357500D02*
X433709Y355638D01*
X440863D02*
X444000Y352500D01*
X433709Y355638D02*
X440863D01*
X403500Y363184D02*
X405816Y365500D01*
X401516Y353484D02*
X408545D01*
X360640Y344860D02*
X362500Y343000D01*
X364425D01*
X356784Y344860D02*
X360640D01*
X362000Y360500D02*
X364425D01*
X361000Y357023D02*
Y359500D01*
X356784Y356671D02*
X360648D01*
X361000Y357023D01*
Y359500D02*
X362000Y360500D01*
X364285Y391360D02*
X364425Y391500D01*
X356784Y391360D02*
X364285D01*
X362500Y405000D02*
X364425D01*
X360671Y403171D02*
X362500Y405000D01*
X356784Y403171D02*
X360671D01*
X473000Y340591D02*
X475500Y343091D01*
X473000Y340000D02*
Y340591D01*
X483457Y343126D02*
X485992Y340591D01*
Y340000D02*
Y340591D01*
X486802Y393500D02*
X487153D01*
X487474D01*
X487825Y390750D02*
Y393148D01*
X486450D02*
X486802Y393500D01*
X487474D02*
X487825Y393148D01*
X486450Y390750D02*
Y393148D01*
X487825Y390750D02*
X487925Y390650D01*
X486350D02*
X486450Y390750D01*
X506398Y386000D02*
X508000D01*
X510000Y388000D01*
X505250Y387698D02*
X507649D01*
X505150Y387598D02*
X505250Y387698D01*
X507649D02*
X508000Y388050D01*
Y391667D01*
X501933Y408925D02*
X502271Y408587D01*
Y403926D02*
Y408587D01*
X507067Y411370D02*
X507243Y411194D01*
X507758D02*
X508343Y410609D01*
X507243Y411194D02*
X507758D01*
X504836Y394832D02*
Y400836D01*
Y394832D02*
X508000Y391667D01*
X502271Y402266D02*
X503736Y400802D01*
X502098Y393235D02*
X503736Y394872D01*
Y400802D01*
X504836Y400836D02*
X506000Y402000D01*
X502098Y390650D02*
Y393235D01*
X502271Y402266D02*
Y403926D01*
D17*
X403327Y336139D02*
X403465Y336000D01*
X407000D01*
X402565Y355608D02*
X404321Y357364D01*
X403327Y336139D02*
Y336455D01*
X402691Y344121D02*
Y345809D01*
X404321Y357364D02*
X408488D01*
X408545Y357421D01*
X405082Y341731D02*
X408488D01*
X402691Y344121D02*
X405082Y341731D01*
X402500Y346000D02*
X402691Y345809D01*
X408488Y341731D02*
X408545Y341673D01*
X491075Y376575D02*
Y390650D01*
X489500Y375000D02*
X491075Y376575D01*
X403500Y404000D02*
X403771D01*
X404424Y404654D01*
X406500D01*
X406500Y404653D01*
X478900Y403211D02*
Y409200D01*
X479511Y402600D02*
X487195D01*
X478900Y403211D02*
X479511Y402600D01*
X489500Y390650D02*
Y400295D01*
X487195Y402600D02*
X489500Y400295D01*
X490000Y404813D02*
X491395Y403418D01*
Y395410D02*
X492650Y394156D01*
X491395Y395410D02*
Y403418D01*
X476232Y409700D02*
X478400D01*
X476001Y409931D02*
X476232Y409700D01*
X478400D02*
X478900Y409200D01*
X492650Y390650D02*
Y394156D01*
X509430Y381299D02*
X510229Y380500D01*
X505150Y381299D02*
X509430D01*
X510229Y380500D02*
X510500D01*
X497374Y356369D02*
Y359350D01*
X496905Y355900D02*
X497374Y356369D01*
Y351626D02*
Y355431D01*
X496300Y355900D02*
X496905D01*
X497374Y355431D01*
X495799Y356401D02*
Y359350D01*
Y356401D02*
X496300Y355900D01*
X466283Y383028D02*
X466437Y382874D01*
X473850D01*
X386984Y403016D02*
X388953Y401047D01*
X386000Y404000D02*
X386984Y403016D01*
X388953Y401047D02*
X392101D01*
X386984Y403016D02*
X392101D01*
X386984Y404984D02*
X388947Y406947D01*
X386000Y404000D02*
X386984Y404984D01*
X392094Y406947D02*
X392101Y406953D01*
X388947Y406947D02*
X392094D01*
X386984Y404984D02*
X392101D01*
X385016Y403016D02*
X386000Y404000D01*
X383047Y401047D02*
X385016Y403016D01*
X379899Y401047D02*
X383047D01*
X379899Y403016D02*
X385016D01*
X397451Y399833D02*
Y401298D01*
X389513Y395130D02*
X392748D01*
X397451Y401298D02*
X397654Y401500D01*
X392748Y395130D02*
X397451Y399833D01*
X389045Y395599D02*
X389513Y395130D01*
X389045Y395599D02*
Y397707D01*
X459000Y356500D02*
Y359653D01*
X520000Y348898D02*
X525500D01*
X516691Y351809D02*
X516991D01*
X519902Y348898D02*
X520000D01*
X516991Y351809D02*
X519902Y348898D01*
X516500Y352000D02*
X516691Y351809D01*
X452483Y380477D02*
X455500D01*
Y380457D02*
X459000D01*
X452000Y380959D02*
Y381004D01*
Y380959D02*
X452483Y380477D01*
X370191Y339524D02*
X372283Y341616D01*
X376398D01*
X370191Y338691D02*
Y339524D01*
X370000Y338500D02*
X370191Y338691D01*
X376398Y341616D02*
X376455Y341673D01*
X367869Y338500D02*
X370000D01*
X432000Y390500D02*
X437000Y385500D01*
X429000Y390500D02*
X432000D01*
X415981Y368500D02*
Y368697D01*
X414479Y369084D02*
X415594D01*
X413410Y369883D02*
X413681D01*
X415594Y369084D02*
X415981Y368697D01*
X413681Y369883D02*
X414479Y369084D01*
X377000Y398341D02*
X377140Y398200D01*
X377000Y398341D02*
Y404531D01*
X372102Y378500D02*
X373000Y379398D01*
X367500Y378500D02*
X372102D01*
X404314Y397043D02*
X406500D01*
X403771Y396500D02*
X404314Y397043D01*
X403500Y396500D02*
X403771D01*
X406500Y397043D02*
X406500Y397043D01*
X446721Y341898D02*
X447374Y341244D01*
Y340125D02*
Y341244D01*
Y340125D02*
X447500Y340000D01*
X438500Y341898D02*
X446721D01*
X476902Y356402D02*
Y359350D01*
X476802Y356302D02*
X476902Y356402D01*
X464750Y346271D02*
X467000D01*
X462500D02*
X464750D01*
X473850Y353350D02*
Y362402D01*
X473701Y353201D02*
X473850Y353350D01*
X507500Y346000D02*
X508729D01*
X506488Y345891D02*
X507000Y345379D01*
Y345500D02*
X507500Y346000D01*
X507000Y345379D02*
Y345500D01*
X505381Y345891D02*
X506488D01*
X505000Y346271D02*
X505381Y345891D01*
X508729Y346000D02*
X509000Y346271D01*
X497374Y351626D02*
X500500Y348500D01*
Y345246D02*
Y348500D01*
X507000Y339500D02*
Y345379D01*
X501246Y339500D02*
X507000D01*
X500500Y340246D02*
X501246Y339500D01*
X459000Y412847D02*
Y415000D01*
X419328Y337000D02*
X422000D01*
X367771Y347303D02*
X368883Y346191D01*
X369809D01*
X367771Y347303D02*
Y347500D01*
X369809Y346191D02*
X370000Y346000D01*
Y365000D02*
X373545Y368545D01*
X367869Y365000D02*
X370000D01*
X373545Y368545D02*
X381673D01*
X373000Y385500D02*
Y390500D01*
X379884Y405000D02*
X379899Y404984D01*
X377469Y405000D02*
X379884D01*
X377000Y404531D02*
X377469Y405000D01*
X388953Y397799D02*
X389045Y397707D01*
X388953Y410001D02*
X389045Y410093D01*
Y415816D01*
X389229Y416000D01*
X505150Y382874D02*
X507874D01*
D20*
X525500Y355000D02*
Y359500D01*
X520000Y355000D02*
Y359500D01*
X430667Y337500D02*
X431000D01*
X432284Y336215D01*
X427963Y344734D02*
X428500Y344197D01*
X426309Y344734D02*
X427963D01*
X428500Y344000D02*
Y344197D01*
X426149Y344895D02*
X426309Y344734D01*
X433784Y336215D02*
X436500Y333500D01*
X489586D02*
X493576Y337490D01*
X436500Y333500D02*
X489586D01*
X381945Y345555D02*
X382000Y345500D01*
X376455Y345610D02*
X376510Y345555D01*
X381945D01*
X493500Y395330D02*
X494224Y394606D01*
X493500Y395330D02*
Y399000D01*
X370009Y321509D02*
X376500Y328000D01*
X369909Y321509D02*
X370009D01*
X368400Y320000D02*
X369909Y321509D01*
X376500Y328000D02*
X415000D01*
X366724Y320000D02*
X368400D01*
X376724D02*
Y325724D01*
X377500Y326500D02*
X415621D01*
X376724Y325724D02*
X377500Y326500D01*
X475850Y397850D02*
X477500Y399500D01*
X479350Y397850D02*
X481000Y399500D01*
X482850Y397850D02*
X484500Y399500D01*
X517000Y344000D02*
Y348895D01*
X513000Y352895D02*
Y357000D01*
Y352895D02*
X517000Y348895D01*
Y358500D02*
Y360500D01*
X513850Y357850D02*
X516350D01*
X513000Y357000D02*
X513850Y357850D01*
X516350D02*
X517000Y358500D01*
X552224Y324500D02*
X556724Y320000D01*
X545000Y324500D02*
X552224D01*
X539000Y330500D02*
X545000Y324500D01*
X530500Y330500D02*
X539000D01*
X535500Y327500D02*
X536724Y326276D01*
Y320000D02*
Y326276D01*
X529000Y327500D02*
X535500D01*
X517000Y344000D02*
X530500Y330500D01*
X537724Y329000D02*
X546724Y320000D01*
X529621Y329000D02*
X537724D01*
X512500Y341879D02*
X526724Y327654D01*
Y320000D02*
Y327654D01*
X418121Y329000D02*
X493000D01*
X417500Y330500D02*
X492000D01*
X415000Y328000D02*
X417500Y330500D01*
X415621Y326500D02*
X418121Y329000D01*
X496336Y335835D02*
X496502Y336002D01*
X496336Y334836D02*
Y335835D01*
X492000Y330500D02*
X496336Y334836D01*
X493000Y329000D02*
X498500Y334500D01*
X496500Y339500D02*
X498500Y337500D01*
Y334500D02*
Y337500D01*
X494408Y351092D02*
Y352233D01*
Y351092D02*
X494504Y350996D01*
X489184Y352816D02*
X491002Y350998D01*
X491096Y350904D01*
Y348797D02*
X491913Y347979D01*
X491096Y348797D02*
Y350904D01*
X491913Y346358D02*
X492000Y346271D01*
X491913Y346358D02*
Y347979D01*
X489184Y355463D02*
X489500Y355779D01*
X489184Y352816D02*
Y355463D01*
X491145Y353308D02*
Y354355D01*
X491004Y354496D02*
X491145Y354355D01*
X492650Y353992D02*
X494408Y352233D01*
X492650Y353992D02*
Y359350D01*
X492652Y349620D02*
Y351801D01*
X491145Y353308D02*
X492652Y351801D01*
X495803Y346271D02*
X496000D01*
X495266Y346809D02*
X495803Y346271D01*
X495266Y346809D02*
Y347006D01*
X492652Y349620D02*
X495266Y347006D01*
X494224Y359350D02*
X494365Y359209D01*
Y354635D02*
Y359209D01*
Y354635D02*
X494507Y354493D01*
X489500Y355779D02*
Y359350D01*
X430667Y334500D02*
X431000D01*
X515500Y343121D02*
Y348121D01*
X514000Y342500D02*
Y347500D01*
X511000Y350500D02*
X514000Y347500D01*
X510379Y349000D02*
X512500Y346879D01*
X511621Y352000D02*
X515500Y348121D01*
Y343121D02*
X529621Y329000D01*
X512500Y341879D02*
Y346879D01*
X514000Y342500D02*
X529000Y327500D01*
X503000Y349000D02*
X510379D01*
X505500Y352000D02*
X511621D01*
X504500Y350500D02*
X511000D01*
X516150Y361350D02*
X517000Y360500D01*
X512915Y362751D02*
X514317Y361350D01*
X516150D01*
X511500Y363000D02*
X511749Y362751D01*
X512915D01*
X514849Y359651D02*
X515000Y359500D01*
X512168Y361300D02*
X513817Y359651D01*
X510253Y361300D02*
X512168D01*
X513817Y359651D02*
X514849D01*
X520000Y362846D02*
Y364000D01*
X516850Y367150D02*
X520000Y364000D01*
X459000Y364979D02*
X459021Y365000D01*
X463846Y371350D02*
X465331Y372835D01*
X461350Y371350D02*
X463846D01*
X465331Y372835D02*
X466335D01*
X466749Y373249D01*
X459021Y365000D02*
X460500D01*
X461000Y365500D01*
Y371000D01*
X461350Y371350D01*
X465883Y371300D02*
X467300D01*
X463000Y369500D02*
X463125Y369625D01*
X464208D02*
X465883Y371300D01*
X463125Y369625D02*
X464208D01*
X514834Y370166D02*
X515000Y370000D01*
X512199Y371800D02*
X513833Y370166D01*
X509738Y371800D02*
X512199D01*
X513833Y370166D02*
X514834D01*
X511500Y373500D02*
X511595Y373405D01*
X512739D02*
X514294Y371850D01*
X516150D01*
X511595Y373405D02*
X512739D01*
X509648Y373500D02*
X511500D01*
X516150Y371850D02*
X516850Y371150D01*
Y367150D02*
Y371150D01*
X525500Y362846D02*
Y364000D01*
X524000Y365500D02*
X525500Y364000D01*
X495350Y394464D02*
X495799Y394015D01*
X495350Y394464D02*
Y397350D01*
X495799Y390650D02*
Y394015D01*
X494224Y390650D02*
Y394606D01*
X498799Y390800D02*
Y392685D01*
X498791Y397291D02*
X500500Y399000D01*
X498799Y390800D02*
X498949Y390650D01*
X498791Y392693D02*
X498799Y392685D01*
X498791Y392693D02*
Y397291D01*
X500500Y395500D02*
X500512Y395488D01*
Y390662D02*
Y395488D01*
X495350Y397350D02*
X497000Y399000D01*
X497224Y390800D02*
Y395276D01*
X497000Y395500D02*
X497224Y395276D01*
Y390800D02*
X497374Y390650D01*
X500512Y390662D02*
X500524Y390650D01*
X483201D02*
Y394410D01*
X482850Y394760D02*
X483201Y394410D01*
X482850Y394760D02*
Y397850D01*
X481000Y395683D02*
X481626Y395057D01*
Y390650D02*
Y395057D01*
X481000Y395683D02*
Y396000D01*
X479350Y394855D02*
Y397850D01*
X480051Y390650D02*
Y394154D01*
X479350Y394855D02*
X480051Y394154D01*
X478476Y390650D02*
Y393524D01*
X477666Y394335D02*
Y395834D01*
Y394335D02*
X478476Y393524D01*
X476887Y390665D02*
Y393096D01*
X475850Y394133D02*
Y397850D01*
X476887Y390665D02*
X476902Y390650D01*
X475850Y394133D02*
X476887Y393096D01*
X477500Y396000D02*
X477666Y395834D01*
X484638Y390788D02*
Y395862D01*
Y390788D02*
X484776Y390650D01*
X484500Y396000D02*
X484638Y395862D01*
X490000Y332500D02*
X494580Y337080D01*
Y341505D02*
X496000Y342925D01*
X492000D02*
X493576Y341349D01*
Y337490D02*
Y341349D01*
X494580Y337080D02*
Y341505D01*
X513227Y375273D02*
X515000Y373500D01*
X436000Y332500D02*
X490000D01*
X431280Y334500D02*
X431943Y335162D01*
X433337D02*
X436000Y332500D01*
X431000Y334500D02*
X431280D01*
X431943Y335162D02*
X433337D01*
X432284Y336215D02*
X433784D01*
X466500Y359000D02*
X471500Y364000D01*
X473826D01*
X473850Y363976D01*
X468150Y362700D02*
X471001Y365551D01*
X466500Y362500D02*
X466700Y362700D01*
X471001Y365551D02*
X473850D01*
X466700Y362700D02*
X468150D01*
X464650Y364150D02*
X467650D01*
X463000Y362500D02*
X464650Y364150D01*
X467650D02*
X470626Y367126D01*
X473850D01*
X466577Y366077D02*
X467757D01*
X470231Y368551D01*
X473700D01*
X466500Y366000D02*
X466577Y366077D01*
X467486Y367650D02*
X470112Y370276D01*
X473850D01*
X464650Y367650D02*
X467486D01*
X466500Y369500D02*
X466704Y369704D01*
X467629D02*
X469775Y371850D01*
X473850D01*
X466704Y369704D02*
X467629D01*
X467300Y371300D02*
X469425Y373425D01*
X473850D01*
X467499Y373249D02*
X469250Y375000D01*
X473850D01*
X466749Y373249D02*
X467499D01*
X464650Y374650D02*
X467059D01*
X468984Y376575D02*
X473850D01*
X467059Y374650D02*
X468984Y376575D01*
X473700Y368551D02*
X473850Y368701D01*
X463000Y366000D02*
X464650Y367650D01*
X463000Y373000D02*
X464650Y374650D01*
X468150Y378150D02*
X473850D01*
X466500Y376500D02*
X468150Y378150D01*
X463000Y376500D02*
X466224Y379724D01*
X473850D01*
X502098Y355402D02*
X505500Y352000D01*
X502098Y355402D02*
Y359350D01*
X500524Y354476D02*
X504500Y350500D01*
X500524Y354476D02*
Y359350D01*
X498949Y353051D02*
Y359350D01*
Y353051D02*
X503000Y349000D01*
X509918Y368200D02*
X513300D01*
X507942Y370176D02*
X509918Y368200D01*
X509746Y366730D02*
X511270D01*
X513300Y368200D02*
X515000Y366500D01*
X509773Y370000D02*
X511500D01*
X507677Y363876D02*
X510253Y361300D01*
X505250Y363876D02*
X507677D01*
X507531Y362302D02*
X510104Y359730D01*
X505250Y362302D02*
X507531D01*
X510104Y359730D02*
X511270D01*
X505250Y365451D02*
X507719D01*
X509941Y363230D02*
X511270D01*
X507719Y365451D02*
X509941Y363230D01*
X505250Y368601D02*
X507874D01*
X507862Y367026D02*
X510188Y364700D01*
X505250Y367026D02*
X507862D01*
X510188Y364700D02*
X513300D01*
X507874Y368601D02*
X509746Y366730D01*
X513300Y364700D02*
X515000Y363000D01*
X505250Y370176D02*
X507942D01*
X505250Y371750D02*
X508022D01*
X509773Y370000D01*
X505150Y373425D02*
X508112D01*
X509738Y371800D01*
X505150Y375000D02*
X508148D01*
X509648Y373500D01*
X505150Y376575D02*
X508129D01*
X509431Y375273D01*
X513227D01*
X508295Y378150D02*
X509444Y377000D01*
X509256Y378744D02*
X513256D01*
X515000Y377000D01*
X508276Y379724D02*
X509256Y378744D01*
X509444Y377000D02*
X511500D01*
X505150Y378150D02*
X508295D01*
X505150Y379724D02*
X508276D01*
D23*
X431847Y348500D02*
D03*
X428500D02*
D03*
Y366500D02*
D03*
X431847D02*
D03*
X367869Y365000D02*
D03*
X364327Y365000D02*
D03*
X367771Y356500D02*
D03*
X364425D02*
D03*
X367771Y343000D02*
D03*
X364425D02*
D03*
X367771Y360500D02*
D03*
X364425D02*
D03*
Y391500D02*
D03*
X367771D02*
D03*
X367869Y338500D02*
D03*
X364327Y338500D02*
D03*
X367771Y352000D02*
D03*
X364425D02*
D03*
Y347500D02*
D03*
X367771D02*
D03*
X506000Y403926D02*
D03*
X509543Y403925D02*
D03*
X502271Y403926D02*
D03*
X498728Y403926D02*
D03*
X397654Y401500D02*
D03*
X401000D02*
D03*
X385271Y416000D02*
D03*
X381728Y416000D02*
D03*
X389229Y416000D02*
D03*
X392772Y416000D02*
D03*
X518500Y371500D02*
D03*
X522043Y371500D02*
D03*
X475500Y346075D02*
D03*
X471957Y346075D02*
D03*
X483457Y346075D02*
D03*
X487000Y346074D02*
D03*
X415981Y368500D02*
D03*
X419524Y368500D02*
D03*
X367575Y400500D02*
D03*
X364229D02*
D03*
X367575Y396000D02*
D03*
X364229D02*
D03*
X419328Y341500D02*
D03*
X415981D02*
D03*
X364425Y405000D02*
D03*
X367771D02*
D03*
X419328Y337000D02*
D03*
X415981D02*
D03*
X428500Y344000D02*
D03*
X431847D02*
D03*
X428500Y362000D02*
D03*
X431847D02*
D03*
X428500Y371000D02*
D03*
X431847D02*
D03*
X428500Y353000D02*
D03*
X431847D02*
D03*
X428500Y357500D02*
D03*
X431847D02*
D03*
X419328Y364000D02*
D03*
X415981D02*
D03*
D24*
X408545Y341673D02*
D03*
Y343642D02*
D03*
Y345610D02*
D03*
Y347579D02*
D03*
Y349547D02*
D03*
Y351516D02*
D03*
Y353484D02*
D03*
Y355453D02*
D03*
Y357421D02*
D03*
Y359390D02*
D03*
Y361358D02*
D03*
Y363327D02*
D03*
X376455D02*
D03*
Y361358D02*
D03*
Y359390D02*
D03*
Y357421D02*
D03*
Y355453D02*
D03*
Y353484D02*
D03*
Y351516D02*
D03*
Y349547D02*
D03*
Y347579D02*
D03*
Y345610D02*
D03*
Y343642D02*
D03*
Y341673D02*
D03*
D25*
X403327Y368545D02*
D03*
X401358D02*
D03*
X399390D02*
D03*
X397421D02*
D03*
X395453D02*
D03*
X393484D02*
D03*
X391516D02*
D03*
X389547D02*
D03*
X387579D02*
D03*
X385610D02*
D03*
X383642D02*
D03*
X381673D02*
D03*
Y336455D02*
D03*
X383642D02*
D03*
X385610D02*
D03*
X387579D02*
D03*
X389547D02*
D03*
X391516D02*
D03*
X393484D02*
D03*
X395453D02*
D03*
X397421D02*
D03*
X399390D02*
D03*
X401358D02*
D03*
X403327D02*
D03*
D26*
X406500Y404654D02*
D03*
Y408000D02*
D03*
X509000Y342728D02*
D03*
X509000Y346271D02*
D03*
X492000D02*
D03*
Y342925D02*
D03*
X496000Y346271D02*
D03*
Y342925D02*
D03*
X459000Y398227D02*
D03*
Y394880D02*
D03*
X373000Y393847D02*
D03*
Y390500D02*
D03*
X467000Y403729D02*
D03*
X467000Y407272D02*
D03*
X515000Y403729D02*
D03*
X515000Y407272D02*
D03*
X471000Y403729D02*
D03*
X471000Y407272D02*
D03*
X505000Y346271D02*
D03*
X505000Y342728D02*
D03*
X520000Y362846D02*
D03*
Y359500D02*
D03*
X525500Y362846D02*
D03*
Y359500D02*
D03*
X406500Y389500D02*
D03*
Y386154D02*
D03*
X542900Y386500D02*
D03*
X542900Y382957D02*
D03*
X542900Y347957D02*
D03*
X542901Y351500D02*
D03*
X542900Y408271D02*
D03*
X542900Y404728D02*
D03*
X462500Y346271D02*
D03*
X462500Y342728D02*
D03*
X467000Y346271D02*
D03*
X467000Y342728D02*
D03*
X459000Y380457D02*
D03*
X459000Y384000D02*
D03*
X406500Y415543D02*
D03*
X406500Y412000D02*
D03*
X406500Y397043D02*
D03*
X406500Y393500D02*
D03*
X459000Y370500D02*
D03*
X459000Y366957D02*
D03*
X518799Y379357D02*
D03*
X518800Y382900D02*
D03*
X532199Y379357D02*
D03*
X532200Y382900D02*
D03*
X556500Y408271D02*
D03*
X556500Y404728D02*
D03*
X542900Y379357D02*
D03*
X542900Y382900D02*
D03*
X556500Y347957D02*
D03*
X556501Y351500D02*
D03*
X459000Y412847D02*
D03*
Y409500D02*
D03*
Y363000D02*
D03*
Y359653D02*
D03*
D28*
X473850Y362402D02*
D03*
Y363976D02*
D03*
Y365551D02*
D03*
Y367126D02*
D03*
Y368701D02*
D03*
Y370276D02*
D03*
Y371850D02*
D03*
Y373425D02*
D03*
Y375000D02*
D03*
Y376575D02*
D03*
Y378150D02*
D03*
Y379724D02*
D03*
Y381299D02*
D03*
Y382874D02*
D03*
Y384449D02*
D03*
Y386024D02*
D03*
Y387598D02*
D03*
X505150D02*
D03*
Y386024D02*
D03*
Y384449D02*
D03*
Y382874D02*
D03*
Y381299D02*
D03*
Y379724D02*
D03*
Y378150D02*
D03*
Y376575D02*
D03*
Y375000D02*
D03*
Y373425D02*
D03*
Y371850D02*
D03*
Y370276D02*
D03*
Y368701D02*
D03*
Y367126D02*
D03*
Y365551D02*
D03*
Y363976D02*
D03*
Y362402D02*
D03*
D29*
X476902Y390650D02*
D03*
X478476D02*
D03*
X480051D02*
D03*
X481626D02*
D03*
X483201D02*
D03*
X484776D02*
D03*
X486350D02*
D03*
X487925D02*
D03*
X489500D02*
D03*
X491075D02*
D03*
X492650D02*
D03*
X494224D02*
D03*
X495799D02*
D03*
X497374D02*
D03*
X498949D02*
D03*
X500524D02*
D03*
X502098D02*
D03*
Y359350D02*
D03*
X500524D02*
D03*
X498949D02*
D03*
X497374D02*
D03*
X495799D02*
D03*
X494224D02*
D03*
X492650D02*
D03*
X491075D02*
D03*
X489500D02*
D03*
X487925D02*
D03*
X486350D02*
D03*
X484776D02*
D03*
X483201D02*
D03*
X481626D02*
D03*
X480051D02*
D03*
X478476D02*
D03*
X476902D02*
D03*
D30*
X476000Y415800D02*
D03*
X470882D02*
D03*
D31*
X411480Y390500D02*
D03*
X429000D02*
D03*
Y411500D02*
D03*
X411480D02*
D03*
D32*
X500500Y345246D02*
D03*
Y340246D02*
D03*
D33*
X450000Y373520D02*
D03*
Y356000D02*
D03*
D34*
X452000Y412500D02*
D03*
X447000D02*
D03*
X442000D02*
D03*
X437000D02*
D03*
X452000Y381004D02*
D03*
X447000D02*
D03*
X442000D02*
D03*
X437000D02*
D03*
D35*
X399500Y407000D02*
D03*
Y414480D02*
D03*
D36*
X501933Y408925D02*
D03*
X506067D02*
D03*
Y412075D02*
D03*
X501933D02*
D03*
D37*
X483000Y405354D02*
D03*
Y414354D02*
D03*
D38*
X490000Y404813D02*
D03*
Y409931D02*
D03*
X374000Y404500D02*
D03*
Y399382D02*
D03*
X476001Y404813D02*
D03*
Y409931D02*
D03*
D39*
X525500Y355000D02*
D03*
Y348898D02*
D03*
X520000Y355000D02*
D03*
Y348898D02*
D03*
X444000Y348000D02*
D03*
Y341898D02*
D03*
X438500Y348000D02*
D03*
Y341898D02*
D03*
X373000Y385500D02*
D03*
Y379398D02*
D03*
X451200Y347979D02*
D03*
Y341876D02*
D03*
X456700Y347979D02*
D03*
Y341876D02*
D03*
D40*
X383047Y397799D02*
D03*
X385016D02*
D03*
X386984D02*
D03*
X388953D02*
D03*
Y410001D02*
D03*
X386984D02*
D03*
X385016D02*
D03*
X383047D02*
D03*
D41*
X392101Y401047D02*
D03*
Y403016D02*
D03*
Y404984D02*
D03*
Y406953D02*
D03*
X379899D02*
D03*
Y404984D02*
D03*
Y403016D02*
D03*
Y401047D02*
D03*
D42*
X386000Y404000D02*
D03*
D43*
X390831Y385000D02*
D03*
X381500D02*
D03*
D44*
X399500Y394693D02*
D03*
Y381307D02*
D03*
D45*
X366000Y410500D02*
D03*
X373000D02*
D03*
D46*
X539705Y382900D02*
D03*
X535295D02*
D03*
D47*
X537500Y382900D02*
D03*
D48*
X523000Y382600D02*
D03*
X528000D02*
D03*
X547200Y405100D02*
D03*
X552200D02*
D03*
X547200Y351100D02*
D03*
X552200D02*
D03*
D49*
X575000Y351500D02*
D03*
D50*
X576968Y362524D02*
D03*
Y340476D02*
D03*
D51*
X356784Y391360D02*
D03*
Y393329D02*
D03*
Y405140D02*
D03*
Y403171D02*
D03*
Y397266D02*
D03*
Y399234D02*
D03*
Y401203D02*
D03*
Y395297D02*
D03*
Y389195D02*
D03*
Y388014D02*
D03*
Y407305D02*
D03*
Y408486D02*
D03*
Y384864D02*
D03*
Y386045D02*
D03*
Y410455D02*
D03*
Y411636D02*
D03*
Y344860D02*
D03*
Y346829D02*
D03*
Y358640D02*
D03*
Y356671D02*
D03*
Y350766D02*
D03*
Y352734D02*
D03*
Y354703D02*
D03*
Y348797D02*
D03*
Y342695D02*
D03*
Y341514D02*
D03*
Y360805D02*
D03*
Y361986D02*
D03*
Y338364D02*
D03*
Y339545D02*
D03*
Y363955D02*
D03*
Y365136D02*
D03*
D52*
X473000Y340000D02*
D03*
X485992D02*
D03*
D53*
X420000Y357500D02*
D03*
Y352776D02*
D03*
Y348051D02*
D03*
D58*
X489500Y375000D02*
D03*
D89*
X410418Y401825D02*
X438129D01*
X409544Y399574D02*
X410413Y400443D01*
X437557D01*
X438129Y401825D02*
X443955Y396000D01*
X409655Y401878D02*
X410366D01*
X437557Y400443D02*
X443382Y394618D01*
X409449Y399574D02*
X409544D01*
X410366Y401878D02*
X410418Y401825D01*
X409454Y402079D02*
X409655Y401878D01*
X473826Y386000D02*
X473850Y386024D01*
X462960Y392814D02*
X469774Y386000D01*
X473826D01*
X470130Y387598D02*
X473850D01*
X461072Y406882D02*
X464342Y403612D01*
X460500Y405500D02*
X462960Y403040D01*
Y392814D02*
Y403040D01*
X464342Y393387D02*
X470130Y387598D01*
X464342Y393387D02*
Y403612D01*
X453882Y398227D02*
Y402382D01*
X450273Y394618D02*
X453882Y398227D01*
X452500Y398800D02*
Y402954D01*
X443382Y394618D02*
X450273D01*
X449700Y396000D02*
X452500Y398800D01*
X443955Y396000D02*
X449700D01*
X456427Y406882D02*
X461072D01*
X457000Y405500D02*
X460500D01*
X452500Y402954D02*
X456427Y406882D01*
X453882Y402382D02*
X457000Y405500D01*
X410480Y389500D02*
X411480Y390500D01*
Y410459D02*
Y411500D01*
Y410459D02*
X413172Y408767D01*
X410980Y412000D02*
X411480Y411500D01*
X361116Y398793D02*
Y399015D01*
X363816Y396413D02*
Y397211D01*
X360513Y399619D02*
X361116Y399015D01*
Y398793D02*
X362259Y397650D01*
X363377D02*
X363816Y397211D01*
X359702Y399619D02*
X360513D01*
X362259Y397650D02*
X363377D01*
Y398850D02*
X363816Y399290D01*
X361010Y400818D02*
X362316Y399512D01*
X362756Y398850D02*
X363377D01*
X359702Y400818D02*
X361010D01*
X362316Y399290D02*
X362756Y398850D01*
X362316Y399290D02*
Y399512D01*
X363816Y399290D02*
Y400088D01*
X364229Y400500D01*
X356999Y399450D02*
X359533D01*
X356999Y400987D02*
X359533D01*
X359533Y399450D02*
X359702Y399619D01*
X359533Y400987D02*
X359702Y400818D01*
X362026Y347500D02*
X364425D01*
X360513Y349013D02*
X362026Y347500D01*
X352550Y350766D02*
X356784D01*
X352111Y354263D02*
X352550Y354703D01*
X352111Y351205D02*
X352550Y350766D01*
X352111Y351205D02*
Y354263D01*
X352550Y354703D02*
X356784D01*
X361579Y350079D02*
Y353118D01*
X356999Y349013D02*
X360513D01*
X361579Y350079D01*
X356784Y348797D02*
X356999Y349013D01*
X406500Y389500D02*
X410480D01*
X406500D02*
Y393500D01*
Y412000D02*
X410980D01*
X406500Y408000D02*
Y412000D01*
X368932Y398946D02*
X369695D01*
X367575Y400304D02*
X368932Y398946D01*
X367987Y396610D02*
X368184D01*
X368892Y397317D01*
X369821D01*
X367575Y396000D02*
Y396197D01*
X367987Y396610D01*
X367575Y400304D02*
Y400500D01*
X352766Y400763D02*
X353205Y401203D01*
X352766Y397705D02*
X353205Y397266D01*
X356784D01*
X352766Y397705D02*
Y400763D01*
X353205Y401203D02*
X356784D01*
X356999Y395513D02*
X360121D01*
X356784Y395297D02*
X356999Y395513D01*
X360121D02*
X362259Y397650D01*
X363816Y396413D02*
X364229Y396000D01*
X359702Y354318D02*
X361082D01*
X359533Y354487D02*
X359702Y354318D01*
X361082D02*
X361613Y354850D01*
X356999Y354487D02*
X359533D01*
X361613Y354850D02*
X363573D01*
X356784Y354703D02*
X356999Y354487D01*
X363573Y354850D02*
X364013Y355289D01*
Y356088D01*
X364425Y356500D01*
X362110Y353650D02*
X363573D01*
X364013Y353211D01*
X359702Y353118D02*
X361579D01*
X362110Y353650D01*
X356784Y352734D02*
X356999Y352950D01*
X364013Y352412D02*
Y353211D01*
Y352412D02*
X364425Y352000D01*
X356999Y352950D02*
X359533D01*
X359702Y353118D01*
X356784Y401203D02*
X356999Y400987D01*
X356784Y399234D02*
X356999Y399450D01*
D90*
X518773Y382874D02*
X518800Y382900D01*
X507874Y382874D02*
X518773D01*
X518800Y382900D02*
X522700D01*
X556501Y351500D02*
X575000D01*
X546800D02*
X547200Y351100D01*
X542901Y351500D02*
X546800D01*
X552200Y351100D02*
X552600Y351500D01*
X556501D01*
X556576Y404804D02*
X558512D01*
X556500Y404728D02*
X556576Y404804D01*
X552572Y404728D02*
X556500D01*
X552200Y405100D02*
X552572Y404728D01*
X543086Y404914D02*
X547014D01*
X542900Y404728D02*
X543086Y404914D01*
X547014D02*
X547200Y405100D01*
X542900Y386500D02*
Y404728D01*
X542900Y351500D02*
Y379357D01*
X542900Y379357D02*
X542900Y379357D01*
Y351500D02*
X542901Y351500D01*
X539705Y382900D02*
X542900D01*
X532200Y382900D02*
X532200Y382900D01*
X535295D02*
X535295Y382900D01*
X532200Y382900D02*
X535295D01*
X528300Y382900D02*
X532200D01*
X528000Y382600D02*
X528300Y382900D01*
X522700D02*
X523000Y382600D01*
D91*
X387500Y357500D02*
D03*
X397500Y347500D02*
D03*
X387500D02*
D03*
X397500Y357500D02*
D03*
D92*
X576724Y430000D02*
D03*
X566724D02*
D03*
X556724D02*
D03*
X546724D02*
D03*
X576724Y320000D02*
D03*
X566724D02*
D03*
X556724D02*
D03*
X546724D02*
D03*
X526724Y430000D02*
D03*
X516724D02*
D03*
X506724D02*
D03*
X496724D02*
D03*
X346724D02*
D03*
X356724D02*
D03*
X366724D02*
D03*
X376724D02*
D03*
X386724D02*
D03*
X396724D02*
D03*
X406724D02*
D03*
X416724D02*
D03*
X426724D02*
D03*
X436724D02*
D03*
X446724D02*
D03*
X456724D02*
D03*
X466724D02*
D03*
X476724D02*
D03*
X486724D02*
D03*
X526724Y320000D02*
D03*
X516724D02*
D03*
X506724D02*
D03*
X496724D02*
D03*
X346724D02*
D03*
X356724D02*
D03*
X366724D02*
D03*
X376724D02*
D03*
X386724D02*
D03*
X396724D02*
D03*
X406724D02*
D03*
X416724D02*
D03*
X426724D02*
D03*
X436724D02*
D03*
X446724D02*
D03*
X456724D02*
D03*
X466724D02*
D03*
X476724D02*
D03*
X486724D02*
D03*
D93*
X536724Y430000D02*
D03*
Y320000D02*
D03*
X336724Y430000D02*
D03*
Y320000D02*
D03*
D94*
X351095Y386872D02*
D03*
Y409628D02*
D03*
Y340372D02*
D03*
Y363128D02*
D03*
D95*
X336724Y381242D02*
D03*
Y415258D02*
D03*
Y334742D02*
D03*
Y368758D02*
D03*
D96*
X353181Y381242D02*
D03*
Y415258D02*
D03*
Y334742D02*
D03*
Y368758D02*
D03*
D97*
X431000Y337500D02*
D03*
X426149Y344895D02*
D03*
Y347738D02*
D03*
X401500Y363000D02*
D03*
X400000Y342000D02*
D03*
X382000Y345500D02*
D03*
X407000Y336000D02*
D03*
X402565Y355608D02*
D03*
X387500Y342500D02*
D03*
X402500Y346000D02*
D03*
X466283Y383028D02*
D03*
X409454Y402079D02*
D03*
X576968Y362524D02*
D03*
X569000Y362547D02*
D03*
X584500D02*
D03*
Y340500D02*
D03*
X569000D02*
D03*
X576968Y340476D02*
D03*
X329500Y396500D02*
D03*
Y401500D02*
D03*
X332000Y399000D02*
D03*
Y404000D02*
D03*
X329500Y406500D02*
D03*
Y411500D02*
D03*
X332000Y409000D02*
D03*
Y394000D02*
D03*
Y389000D02*
D03*
X329500Y391500D02*
D03*
Y386500D02*
D03*
Y340000D02*
D03*
Y345000D02*
D03*
X332000Y342500D02*
D03*
Y347500D02*
D03*
Y362500D02*
D03*
X329500Y365000D02*
D03*
Y360000D02*
D03*
X332000Y357500D02*
D03*
Y352500D02*
D03*
X329500Y355000D02*
D03*
Y350000D02*
D03*
X437500Y406000D02*
D03*
X452500Y422000D02*
D03*
X422000D02*
D03*
X386000Y404000D02*
D03*
X391381Y398429D02*
D03*
X484500Y399500D02*
D03*
X481000D02*
D03*
X477500D02*
D03*
X503200Y344079D02*
D03*
X511000Y339500D02*
D03*
X516500Y352000D02*
D03*
X495000Y367000D02*
D03*
X488500Y363500D02*
D03*
X501000Y368500D02*
D03*
Y375000D02*
D03*
Y380500D02*
D03*
Y384500D02*
D03*
X488000Y385500D02*
D03*
X492500Y381000D02*
D03*
X488000Y374500D02*
D03*
X493000Y375000D02*
D03*
X455500Y380477D02*
D03*
X426000Y353000D02*
D03*
Y357500D02*
D03*
X422000Y350500D02*
D03*
X418000D02*
D03*
X422000Y355000D02*
D03*
X418000D02*
D03*
X437000Y385500D02*
D03*
X413410Y369883D02*
D03*
X370666Y393520D02*
D03*
X377140Y398200D02*
D03*
X369198Y404567D02*
D03*
X375500Y411500D02*
D03*
X397793Y415602D02*
D03*
X395500Y409500D02*
D03*
X397944Y406281D02*
D03*
X367500Y378500D02*
D03*
X409449Y399574D02*
D03*
X378692Y412617D02*
D03*
X375500Y413500D02*
D03*
X494504Y350996D02*
D03*
X496502Y336002D02*
D03*
X496500Y339500D02*
D03*
X491000Y354496D02*
D03*
X491002Y350998D02*
D03*
X487502Y354498D02*
D03*
X487500Y351000D02*
D03*
X484000Y354500D02*
D03*
X494507Y354493D02*
D03*
X489500Y346000D02*
D03*
X515424Y391402D02*
D03*
X532877Y371954D02*
D03*
X527924Y371902D02*
D03*
X530424Y374402D02*
D03*
X522000Y368000D02*
D03*
X525424Y374402D02*
D03*
X359500Y336000D02*
D03*
X362000D02*
D03*
Y341000D02*
D03*
X359500Y367500D02*
D03*
X362000D02*
D03*
Y362500D02*
D03*
X359500Y381500D02*
D03*
X362000D02*
D03*
Y384000D02*
D03*
Y386500D02*
D03*
Y389000D02*
D03*
Y412500D02*
D03*
X359500Y415000D02*
D03*
X362000D02*
D03*
X396000Y352500D02*
D03*
X399000D02*
D03*
X466500Y416000D02*
D03*
X467000Y410500D02*
D03*
X500500Y395500D02*
D03*
X469500Y346000D02*
D03*
X477650Y350000D02*
D03*
X490500Y339500D02*
D03*
X479500Y340000D02*
D03*
X462500D02*
D03*
X515000Y373500D02*
D03*
X524000Y365500D02*
D03*
X419500Y371500D02*
D03*
X401025Y417382D02*
D03*
X407541Y417294D02*
D03*
X441500Y373000D02*
D03*
X437500D02*
D03*
X442000Y403500D02*
D03*
X497000Y395500D02*
D03*
X431000Y334500D02*
D03*
X466500Y359000D02*
D03*
Y376500D02*
D03*
X507000Y339500D02*
D03*
X425500Y362000D02*
D03*
X459000Y356500D02*
D03*
Y374000D02*
D03*
X463000Y362500D02*
D03*
X466500D02*
D03*
X463000Y366000D02*
D03*
X466500D02*
D03*
Y373000D02*
D03*
X463000D02*
D03*
X466500Y369500D02*
D03*
X463000Y376500D02*
D03*
Y369500D02*
D03*
X464750Y346271D02*
D03*
X493500Y399000D02*
D03*
X497000D02*
D03*
X500500D02*
D03*
X481000Y396000D02*
D03*
X484500D02*
D03*
X477500D02*
D03*
X459000Y402700D02*
D03*
X443945Y374829D02*
D03*
X437500Y377000D02*
D03*
X446500Y399000D02*
D03*
Y403500D02*
D03*
X511500Y366500D02*
D03*
Y370000D02*
D03*
X484000Y351000D02*
D03*
X459000Y415000D02*
D03*
X456500Y409500D02*
D03*
X515000Y359500D02*
D03*
X511500D02*
D03*
X515000Y363000D02*
D03*
X511500D02*
D03*
X510500Y380500D02*
D03*
X511500Y377000D02*
D03*
X518500Y368000D02*
D03*
X515000Y370000D02*
D03*
Y366500D02*
D03*
X511500Y373500D02*
D03*
X515000Y377000D02*
D03*
X456500Y384000D02*
D03*
X382000Y351500D02*
D03*
Y354000D02*
D03*
X422000Y337000D02*
D03*
Y341500D02*
D03*
X447500Y340000D02*
D03*
X421500Y364000D02*
D03*
X362000Y338500D02*
D03*
X370000D02*
D03*
Y343000D02*
D03*
Y346000D02*
D03*
Y360500D02*
D03*
X362000Y365000D02*
D03*
X370000D02*
D03*
X405754Y384095D02*
D03*
X379920Y399350D02*
D03*
X377144Y395137D02*
D03*
X375578Y390343D02*
D03*
X395500Y404500D02*
D03*
Y407000D02*
D03*
X397818Y375970D02*
D03*
X401000Y377787D02*
D03*
X400907Y398120D02*
D03*
X403209Y400703D02*
D03*
X400972Y404719D02*
D03*
X378736Y417353D02*
D03*
X370478Y396945D02*
D03*
Y399445D02*
D03*
X467000Y340000D02*
D03*
X487000Y410000D02*
D03*
X471000Y410500D02*
D03*
X475500Y413000D02*
D03*
X515000Y401500D02*
D03*
X512543Y407197D02*
D03*
X496771Y403851D02*
D03*
X511500Y404000D02*
D03*
X509500Y412000D02*
D03*
X499000D02*
D03*
X504134Y406312D02*
D03*
X537877Y376955D02*
D03*
X522924Y376902D02*
D03*
X527924D02*
D03*
X513000Y387900D02*
D03*
X517924Y388902D02*
D03*
X522924D02*
D03*
X527924D02*
D03*
X532924D02*
D03*
X548000Y383000D02*
D03*
X547877Y356955D02*
D03*
Y361954D02*
D03*
Y366954D02*
D03*
Y371954D02*
D03*
Y376955D02*
D03*
X547924Y388902D02*
D03*
Y393902D02*
D03*
Y398902D02*
D03*
X560377Y344455D02*
D03*
X557877Y341954D02*
D03*
X555377Y344455D02*
D03*
X552877Y346954D02*
D03*
Y341954D02*
D03*
X547877D02*
D03*
X550377Y344455D02*
D03*
X547877Y346954D02*
D03*
X545377Y344455D02*
D03*
X542877Y341954D02*
D03*
X540377Y344455D02*
D03*
X537877Y346954D02*
D03*
X559924Y411402D02*
D03*
X557424Y413902D02*
D03*
X554924Y411402D02*
D03*
X552424Y413902D02*
D03*
X547424Y408902D02*
D03*
X552424D02*
D03*
X549924Y411402D02*
D03*
X547424Y413902D02*
D03*
X544924Y411402D02*
D03*
X542424Y413902D02*
D03*
X539924Y411402D02*
D03*
X537424Y408902D02*
D03*
X535424Y406402D02*
D03*
X537924Y403902D02*
D03*
X535424Y401402D02*
D03*
Y396402D02*
D03*
X537924Y398902D02*
D03*
Y393902D02*
D03*
X535424Y391402D02*
D03*
X537924Y388902D02*
D03*
X540377Y349454D02*
D03*
X535377D02*
D03*
Y354454D02*
D03*
X537877Y351955D02*
D03*
Y356955D02*
D03*
X535377Y359454D02*
D03*
Y364455D02*
D03*
X537877Y366954D02*
D03*
Y361954D02*
D03*
X535377Y369455D02*
D03*
Y374454D02*
D03*
X537877Y371954D02*
D03*
X550424Y401402D02*
D03*
X539924Y406402D02*
D03*
X525424Y379402D02*
D03*
X555377Y354454D02*
D03*
X550377D02*
D03*
X535377Y379454D02*
D03*
X520424Y386402D02*
D03*
X525424D02*
D03*
X530424D02*
D03*
X535424D02*
D03*
X540424Y401402D02*
D03*
X545424D02*
D03*
X540424Y396402D02*
D03*
X545424D02*
D03*
Y391402D02*
D03*
X540424D02*
D03*
X545424Y386402D02*
D03*
X540424D02*
D03*
X545377Y379454D02*
D03*
X540377D02*
D03*
X545377Y374454D02*
D03*
X540377D02*
D03*
Y369455D02*
D03*
X545377D02*
D03*
Y354454D02*
D03*
X540377D02*
D03*
Y359454D02*
D03*
Y364455D02*
D03*
X545377Y359454D02*
D03*
Y364455D02*
D03*
X515500Y385400D02*
D03*
Y380400D02*
D03*
X510500Y385400D02*
D03*
X532175Y376792D02*
D03*
X518775D02*
D03*
M02*
