G04*
G04 #@! TF.GenerationSoftware,Altium Limited,Altium Designer,21.1.1 (26)*
G04*
G04 Layer_Color=32768*
%FSLAX25Y25*%
%MOIN*%
G70*
G04*
G04 #@! TF.SameCoordinates,D03CA9B7-62B2-491D-8750-CE627D1449E0*
G04*
G04*
G04 #@! TF.FilePolarity,Positive*
G04*
G01*
G75*
%ADD21C,0.00197*%
%ADD22C,0.00394*%
%ADD109C,0.00100*%
%ADD110C,0.00158*%
%ADD111C,0.00200*%
%ADD112C,0.00300*%
D21*
X393878Y352500D02*
G03*
X393878Y352500I-1378J0D01*
G01*
X400878Y410741D02*
G03*
X400878Y410741I-1378J0D01*
G01*
D02*
G03*
X400878Y410741I-1378J0D01*
G01*
X400878Y388000D02*
G03*
X400878Y388000I-1378J0D01*
G01*
X392500Y350532D02*
Y354468D01*
X390531Y352500D02*
X394468D01*
X397531Y410741D02*
X401468D01*
X399500Y408772D02*
Y412709D01*
Y408772D02*
Y412709D01*
X397531Y410741D02*
X401468D01*
X397532Y388000D02*
X401469D01*
X399500Y386032D02*
Y389968D01*
D22*
X412972Y332028D02*
Y372972D01*
X372028Y332028D02*
Y372972D01*
Y332028D02*
X412972Y332028D01*
X372028Y372972D02*
X412972Y372972D01*
D109*
X430575Y348500D02*
G03*
X430575Y348500I-500J0D01*
G01*
X407000Y406425D02*
G03*
X407000Y406425I-500J0D01*
G01*
X509500Y344500D02*
G03*
X509500Y344500I-500J0D01*
G01*
X473941Y415800D02*
G03*
X473941Y415800I-500J0D01*
G01*
X492500Y344500D02*
G03*
X492500Y344500I-500J0D01*
G01*
X496500D02*
G03*
X496500Y344500I-500J0D01*
G01*
X430575Y366500D02*
G03*
X430575Y366500I-500J0D01*
G01*
X459500Y396652D02*
G03*
X459500Y396652I-500J0D01*
G01*
X373500Y392271D02*
G03*
X373500Y392271I-500J0D01*
G01*
X366598Y365000D02*
G03*
X366598Y365000I-500J0D01*
G01*
X366696Y356500D02*
G03*
X366696Y356500I-500J0D01*
G01*
Y343000D02*
G03*
X366696Y343000I-500J0D01*
G01*
Y360500D02*
G03*
X366696Y360500I-500J0D01*
G01*
X366500Y391500D02*
G03*
X366500Y391500I-500J0D01*
G01*
X366598Y338500D02*
G03*
X366598Y338500I-500J0D01*
G01*
X366696Y352000D02*
G03*
X366696Y352000I-500J0D01*
G01*
X366500Y347500D02*
G03*
X366500Y347500I-500J0D01*
G01*
X508271Y403925D02*
G03*
X508271Y403925I-500J0D01*
G01*
X501000Y403926D02*
G03*
X501000Y403926I-500J0D01*
G01*
X467500Y405500D02*
G03*
X467500Y405500I-500J0D01*
G01*
X515500D02*
G03*
X515500Y405500I-500J0D01*
G01*
X471500D02*
G03*
X471500Y405500I-500J0D01*
G01*
X490500Y407372D02*
G03*
X490500Y407372I-500J0D01*
G01*
X505500Y344500D02*
G03*
X505500Y344500I-500J0D01*
G01*
X520500Y361271D02*
G03*
X520500Y361271I-500J0D01*
G01*
X526000D02*
G03*
X526000Y361271I-500J0D01*
G01*
X399729Y401500D02*
G03*
X399729Y401500I-500J0D01*
G01*
X407000Y387925D02*
G03*
X407000Y387925I-500J0D01*
G01*
X543400Y384729D02*
G03*
X543400Y384729I-500J0D01*
G01*
X543401Y349728D02*
G03*
X543401Y349728I-500J0D01*
G01*
X543400Y406500D02*
G03*
X543400Y406500I-500J0D01*
G01*
X374500Y401941D02*
G03*
X374500Y401941I-500J0D01*
G01*
X384000Y416000D02*
G03*
X384000Y416000I-500J0D01*
G01*
X391500D02*
G03*
X391500Y416000I-500J0D01*
G01*
X520771Y371500D02*
G03*
X520771Y371500I-500J0D01*
G01*
X463000Y344500D02*
G03*
X463000Y344500I-500J0D01*
G01*
X467500D02*
G03*
X467500Y344500I-500J0D01*
G01*
X459500Y382228D02*
G03*
X459500Y382228I-500J0D01*
G01*
X407000Y413772D02*
G03*
X407000Y413772I-500J0D01*
G01*
Y395272D02*
G03*
X407000Y395272I-500J0D01*
G01*
X474229Y346075D02*
G03*
X474229Y346075I-500J0D01*
G01*
X485728Y346074D02*
G03*
X485728Y346074I-500J0D01*
G01*
X459500Y368729D02*
G03*
X459500Y368729I-500J0D01*
G01*
X418252Y368500D02*
G03*
X418252Y368500I-500J0D01*
G01*
X519300Y381129D02*
G03*
X519300Y381129I-500J0D01*
G01*
X532700D02*
G03*
X532700Y381129I-500J0D01*
G01*
X557000Y406500D02*
G03*
X557000Y406500I-500J0D01*
G01*
X543400Y381128D02*
G03*
X543400Y381128I-500J0D01*
G01*
X557001Y349728D02*
G03*
X557001Y349728I-500J0D01*
G01*
X476500Y407372D02*
G03*
X476500Y407372I-500J0D01*
G01*
X459500Y411271D02*
G03*
X459500Y411271I-500J0D01*
G01*
Y361425D02*
G03*
X459500Y361425I-500J0D01*
G01*
X366500Y400500D02*
G03*
X366500Y400500I-500J0D01*
G01*
Y396000D02*
G03*
X366500Y396000I-500J0D01*
G01*
X418252Y341500D02*
G03*
X418252Y341500I-500J0D01*
G01*
X366500Y405000D02*
G03*
X366500Y405000I-500J0D01*
G01*
X418252Y337000D02*
G03*
X418252Y337000I-500J0D01*
G01*
X430575Y344000D02*
G03*
X430575Y344000I-500J0D01*
G01*
Y362000D02*
G03*
X430575Y362000I-500J0D01*
G01*
Y371000D02*
G03*
X430575Y371000I-500J0D01*
G01*
Y353000D02*
G03*
X430575Y353000I-500J0D01*
G01*
Y357500D02*
G03*
X430575Y357500I-500J0D01*
G01*
X418252Y364000D02*
G03*
X418252Y364000I-500J0D01*
G01*
X429288Y348500D02*
X430863D01*
X430075Y347713D02*
Y349288D01*
X406500Y405638D02*
Y407212D01*
X405713Y406425D02*
X407288D01*
X508212Y344500D02*
X509787D01*
X509000Y343713D02*
Y345287D01*
X473441Y415012D02*
Y416587D01*
X472653Y415800D02*
X474228D01*
X492000Y343713D02*
Y345287D01*
X491213Y344500D02*
X492787D01*
X496000Y343713D02*
Y345287D01*
X495213Y344500D02*
X496787D01*
X430075Y365713D02*
Y367288D01*
X429288Y366500D02*
X430863D01*
X458213Y396652D02*
X459787D01*
X459000Y395864D02*
Y397439D01*
X372213Y392271D02*
X373788D01*
X373000Y391484D02*
Y393059D01*
X365311Y365000D02*
X366885D01*
X366098Y364213D02*
Y365788D01*
X366196Y355712D02*
Y357287D01*
X365409Y356500D02*
X366984D01*
X366196Y342212D02*
Y343787D01*
X365409Y343000D02*
X366984D01*
X366196Y359712D02*
Y361287D01*
X365409Y360500D02*
X366984D01*
X366000Y390713D02*
Y392287D01*
X365213Y391500D02*
X366787D01*
X365311Y338500D02*
X366885D01*
X366098Y337713D02*
Y339288D01*
X366196Y351212D02*
Y352787D01*
X365409Y352000D02*
X366984D01*
X366000Y346713D02*
Y348288D01*
X365213Y347500D02*
X366787D01*
X506984Y403925D02*
X508559D01*
X507771Y403138D02*
Y404713D01*
X499713Y403926D02*
X501287D01*
X500500Y403138D02*
Y404713D01*
X467000Y404713D02*
Y406287D01*
X466213Y405500D02*
X467788D01*
X515000Y404713D02*
Y406287D01*
X514213Y405500D02*
X515787D01*
X471000Y404713D02*
Y406287D01*
X470213Y405500D02*
X471788D01*
X490000Y406584D02*
Y408159D01*
X489213Y407372D02*
X490787D01*
X505000Y343713D02*
Y345287D01*
X504212Y344500D02*
X505787D01*
X519213Y361271D02*
X520788D01*
X520000Y360484D02*
Y362059D01*
X524713Y361271D02*
X526288D01*
X525500Y360484D02*
Y362059D01*
X399229Y400713D02*
Y402288D01*
X398441Y401500D02*
X400016D01*
X405713Y387925D02*
X407288D01*
X406500Y387138D02*
Y388712D01*
X542900Y383941D02*
Y385516D01*
X542112Y384729D02*
X543687D01*
X542901Y348941D02*
Y350516D01*
X542113Y349728D02*
X543688D01*
X542900Y405713D02*
Y407287D01*
X542113Y406500D02*
X543687D01*
X374000Y401154D02*
Y402729D01*
X373212Y401941D02*
X374787D01*
X382713Y416000D02*
X384287D01*
X383500Y415213D02*
Y416787D01*
X390213Y416000D02*
X391787D01*
X391000Y415213D02*
Y416787D01*
X519484Y371500D02*
X521059D01*
X520271Y370712D02*
Y372287D01*
X462500Y343713D02*
Y345287D01*
X461713Y344500D02*
X463287D01*
X467000Y343713D02*
Y345287D01*
X466212Y344500D02*
X467787D01*
X459000Y381441D02*
Y383016D01*
X458213Y382228D02*
X459787D01*
X406500Y412984D02*
Y414559D01*
X405713Y413772D02*
X407287D01*
X406500Y394484D02*
Y396059D01*
X405713Y395272D02*
X407287D01*
X472941Y346075D02*
X474516D01*
X473729Y345287D02*
Y346862D01*
X484441Y346074D02*
X486016D01*
X485228Y345287D02*
Y346862D01*
X459000Y367941D02*
Y369516D01*
X458212Y368729D02*
X459787D01*
X416965Y368500D02*
X418540D01*
X417752Y367712D02*
Y369287D01*
X518800Y380341D02*
Y381916D01*
X518012Y381129D02*
X519587D01*
X532200Y380341D02*
Y381916D01*
X531412Y381129D02*
X532987D01*
X556500Y405713D02*
Y407287D01*
X555713Y406500D02*
X557287D01*
X542900Y380341D02*
Y381916D01*
X542113Y381128D02*
X543688D01*
X556501Y348941D02*
Y350516D01*
X555713Y349728D02*
X557288D01*
X475213Y407372D02*
X476788D01*
X476000Y406585D02*
Y408160D01*
X458213Y411271D02*
X459788D01*
X459000Y410484D02*
Y412059D01*
X458213Y361425D02*
X459788D01*
X459000Y360637D02*
Y362212D01*
X366000Y399713D02*
Y401287D01*
X365213Y400500D02*
X366787D01*
X366000Y395213D02*
Y396787D01*
X365213Y396000D02*
X366787D01*
X417752Y340713D02*
Y342287D01*
X416965Y341500D02*
X418540D01*
X366000Y404213D02*
Y405787D01*
X365213Y405000D02*
X366787D01*
X417752Y336212D02*
Y337787D01*
X416965Y337000D02*
X418540D01*
X430075Y343213D02*
Y344787D01*
X429288Y344000D02*
X430863D01*
X430075Y361213D02*
Y362788D01*
X429288Y362000D02*
X430863D01*
X430075Y370213D02*
Y371788D01*
X429288Y371000D02*
X430863D01*
X430075Y352213D02*
Y353787D01*
X429288Y353000D02*
X430863D01*
X430075Y356713D02*
Y358288D01*
X429288Y357500D02*
X430863D01*
X417752Y363213D02*
Y364787D01*
X416965Y364000D02*
X418540D01*
D110*
X504707Y410500D02*
G03*
X504707Y410500I-707J0D01*
G01*
X480203Y340000D02*
G03*
X480203Y340000I-707J0D01*
G01*
X504000Y409500D02*
Y411500D01*
X503000Y410500D02*
X505000D01*
X479496Y339000D02*
Y341000D01*
X478496Y340000D02*
X480496D01*
D111*
X500000Y342746D02*
X501000D01*
X500500Y342246D02*
Y343246D01*
X369000Y410500D02*
X370000D01*
X369500D02*
Y411000D01*
Y410000D02*
Y410500D01*
X525000Y382600D02*
X526000D01*
X525500Y382100D02*
Y383100D01*
X549200Y405100D02*
X550200D01*
X549700Y404600D02*
Y405600D01*
X549200Y351100D02*
X550200D01*
X549700Y350600D02*
Y351600D01*
D112*
X483000Y408854D02*
Y410854D01*
X482000Y409854D02*
X484000D01*
M02*
