G04*
G04 #@! TF.GenerationSoftware,Altium Limited,Altium Designer,21.1.1 (26)*
G04*
G04 Layer_Physical_Order=2*
G04 Layer_Color=32768*
%FSLAX25Y25*%
%MOIN*%
G70*
G04*
G04 #@! TF.SameCoordinates,92C3B5E9-EA3E-484C-A3A4-AEB32AC4DFB4*
G04*
G04*
G04 #@! TF.FilePolarity,Negative*
G04*
G01*
G75*
%ADD98C,0.04000*%
%ADD99C,0.05000*%
%ADD100C,0.05543*%
%ADD101C,0.04559*%
%ADD102O,0.06724X0.04362*%
%ADD103O,0.08693X0.04362*%
%ADD104C,0.02800*%
D98*
X326724Y320000D02*
G03*
X331724Y315000I5000J0D01*
G01*
X581724Y315000D02*
G03*
X586724Y320000I0J5000D01*
G01*
X586724Y430000D02*
G03*
X581724Y435000I-5000J0D01*
G01*
X331724Y435000D02*
G03*
X326724Y430000I0J-5000D01*
G01*
X331724Y315000D02*
X581724D01*
X581724Y315000D01*
X586724Y320000D02*
Y430000D01*
X586724Y430000D02*
X586724Y430000D01*
X331724Y435000D02*
X581724D01*
X331724Y435000D02*
X331724Y435000D01*
X326724Y320000D02*
Y430000D01*
D99*
X387500Y357500D02*
D03*
Y347500D02*
D03*
X397500Y357500D02*
D03*
X526724Y430000D02*
D03*
X516724D02*
D03*
X506724D02*
D03*
X496724D02*
D03*
X526724Y320000D02*
D03*
X516724D02*
D03*
X506724D02*
D03*
X496724D02*
D03*
D100*
X546724Y430000D02*
D03*
X536724D02*
D03*
X556724Y320000D02*
D03*
X546724D02*
D03*
X536724D02*
D03*
X336724Y430000D02*
D03*
X346724D02*
D03*
X356724D02*
D03*
X386724D02*
D03*
X396724D02*
D03*
X406724D02*
D03*
X416724D02*
D03*
X426724D02*
D03*
X436724D02*
D03*
X446724D02*
D03*
X456724D02*
D03*
X466724D02*
D03*
X476724D02*
D03*
X486724D02*
D03*
X336724Y320000D02*
D03*
X346724D02*
D03*
X356724D02*
D03*
X366724D02*
D03*
X376724D02*
D03*
X386724D02*
D03*
X396724D02*
D03*
X406724D02*
D03*
X416724D02*
D03*
X426724D02*
D03*
X436724D02*
D03*
X446724D02*
D03*
X456724D02*
D03*
X466724D02*
D03*
X476724D02*
D03*
X486724D02*
D03*
D101*
X351095Y386872D02*
D03*
Y409628D02*
D03*
Y340372D02*
D03*
Y363128D02*
D03*
D102*
X336724Y381242D02*
D03*
Y415258D02*
D03*
Y334742D02*
D03*
Y368758D02*
D03*
D103*
X353181Y381242D02*
D03*
Y415258D02*
D03*
Y334742D02*
D03*
Y368758D02*
D03*
D104*
X466283Y383028D02*
D03*
X409454Y402079D02*
D03*
X484500Y399500D02*
D03*
X481000D02*
D03*
X477500D02*
D03*
X516500Y352000D02*
D03*
X455500Y380477D02*
D03*
X402565Y355608D02*
D03*
X407000Y336000D02*
D03*
X402500Y346000D02*
D03*
X437000Y385500D02*
D03*
X413410Y369883D02*
D03*
X377140Y398200D02*
D03*
X375500Y411500D02*
D03*
X397944Y406281D02*
D03*
X367500Y378500D02*
D03*
X409449Y399574D02*
D03*
X378692Y412617D02*
D03*
X375500Y413500D02*
D03*
X494504Y350996D02*
D03*
X496502Y336002D02*
D03*
X496500Y339500D02*
D03*
X491000Y354496D02*
D03*
X491002Y350998D02*
D03*
X487502Y354498D02*
D03*
X487500Y351000D02*
D03*
X484000Y354500D02*
D03*
X494507Y354493D02*
D03*
X399000Y352500D02*
D03*
X466500Y416000D02*
D03*
X500500Y395500D02*
D03*
X477650Y350000D02*
D03*
X515000Y373500D02*
D03*
X524000Y365500D02*
D03*
X441500Y373000D02*
D03*
X437500D02*
D03*
X442000Y403500D02*
D03*
X497000Y395500D02*
D03*
X431000Y334500D02*
D03*
Y337500D02*
D03*
X466500Y359000D02*
D03*
Y376500D02*
D03*
X507000Y339500D02*
D03*
X401500Y363000D02*
D03*
X425500Y362000D02*
D03*
X459000Y356500D02*
D03*
X463000Y362500D02*
D03*
X466500D02*
D03*
X463000Y366000D02*
D03*
X466500D02*
D03*
Y373000D02*
D03*
X463000D02*
D03*
X466500Y369500D02*
D03*
X463000Y376500D02*
D03*
Y369500D02*
D03*
X464750Y346271D02*
D03*
X493500Y399000D02*
D03*
X497000D02*
D03*
X500500D02*
D03*
X481000Y396000D02*
D03*
X484500D02*
D03*
X477500D02*
D03*
X459000Y402700D02*
D03*
X443945Y374829D02*
D03*
X437500Y377000D02*
D03*
X446500Y399000D02*
D03*
Y403500D02*
D03*
X511500Y366500D02*
D03*
Y370000D02*
D03*
X484000Y351000D02*
D03*
X459000Y415000D02*
D03*
X456500Y409500D02*
D03*
X515000Y359500D02*
D03*
X511500D02*
D03*
X515000Y363000D02*
D03*
X511500D02*
D03*
X510500Y380500D02*
D03*
X511500Y377000D02*
D03*
X518500Y368000D02*
D03*
X515000Y370000D02*
D03*
Y366500D02*
D03*
X511500Y373500D02*
D03*
X515000Y377000D02*
D03*
X426000Y347500D02*
D03*
Y345000D02*
D03*
X382000Y345500D02*
D03*
X387500Y342500D02*
D03*
X382000Y351500D02*
D03*
Y354000D02*
D03*
X422000Y337000D02*
D03*
X447500Y340000D02*
D03*
X421500Y364000D02*
D03*
X370000Y338500D02*
D03*
Y346000D02*
D03*
Y365000D02*
D03*
X400907Y398120D02*
D03*
X403209Y400703D02*
D03*
X400972Y404719D02*
D03*
X370478Y396945D02*
D03*
Y399445D02*
D03*
X515000Y401500D02*
D03*
M02*
