G04*
G04 #@! TF.GenerationSoftware,Altium Limited,Altium Designer,21.1.1 (26)*
G04*
G04 Layer_Color=128*
%FSLAX25Y25*%
%MOIN*%
G70*
G04*
G04 #@! TF.SameCoordinates,D03CA9B7-62B2-491D-8750-CE627D1449E0*
G04*
G04*
G04 #@! TF.FilePolarity,Positive*
G04*
G01*
G75*
%ADD111C,0.00200*%
D111*
X386000Y357500D02*
X389000D01*
X387500Y356000D02*
Y359000D01*
X396000Y347500D02*
X399000D01*
X397500Y346000D02*
Y349000D01*
X386000Y347500D02*
X389000D01*
X387500Y346000D02*
Y349000D01*
X396000Y357500D02*
X399000D01*
X397500Y356000D02*
Y359000D01*
X574953Y430000D02*
X578496D01*
X576724Y428228D02*
Y431772D01*
X564953Y430000D02*
X568496D01*
X566724Y428228D02*
Y431772D01*
X554953Y430000D02*
X558496D01*
X556724Y428228D02*
Y431772D01*
X544953Y430000D02*
X548496D01*
X546724Y428228D02*
Y431772D01*
X534953Y430000D02*
X538496D01*
X536724Y428228D02*
Y431772D01*
X574953Y320000D02*
X578496D01*
X576724Y318228D02*
Y321772D01*
X564953Y320000D02*
X568496D01*
X566724Y318228D02*
Y321772D01*
X554953Y320000D02*
X558496D01*
X556724Y318228D02*
Y321772D01*
X544953Y320000D02*
X548496D01*
X546724Y318228D02*
Y321772D01*
X534953Y320000D02*
X538496D01*
X536724Y318228D02*
Y321772D01*
X525224Y430000D02*
X528224D01*
X526724Y428500D02*
Y431500D01*
X515224Y430000D02*
X518224D01*
X516724Y428500D02*
Y431500D01*
X505224Y430000D02*
X508224D01*
X506724Y428500D02*
Y431500D01*
X495224Y430000D02*
X498224D01*
X496724Y428500D02*
Y431500D01*
X334953Y430000D02*
X338496D01*
X336724Y428228D02*
Y431772D01*
X344953Y430000D02*
X348496D01*
X346724Y428228D02*
Y431772D01*
X354953Y430000D02*
X358496D01*
X356724Y428228D02*
Y431772D01*
X364953Y430000D02*
X368496D01*
X366724Y428228D02*
Y431772D01*
X374953Y430000D02*
X378496D01*
X376724Y428228D02*
Y431772D01*
X384953Y430000D02*
X388496D01*
X386724Y428228D02*
Y431772D01*
X394953Y430000D02*
X398496D01*
X396724Y428228D02*
Y431772D01*
X404953Y430000D02*
X408496D01*
X406724Y428228D02*
Y431772D01*
X414953Y430000D02*
X418496D01*
X416724Y428228D02*
Y431772D01*
X424953Y430000D02*
X428496D01*
X426724Y428228D02*
Y431772D01*
X434953Y430000D02*
X438496D01*
X436724Y428228D02*
Y431772D01*
X444953Y430000D02*
X448496D01*
X446724Y428228D02*
Y431772D01*
X454953Y430000D02*
X458496D01*
X456724Y428228D02*
Y431772D01*
X464953Y430000D02*
X468496D01*
X466724Y428228D02*
Y431772D01*
X474953Y430000D02*
X478496D01*
X476724Y428228D02*
Y431772D01*
X484953Y430000D02*
X488496D01*
X486724Y428228D02*
Y431772D01*
X525224Y320000D02*
X528224D01*
X526724Y318500D02*
Y321500D01*
X515224Y320000D02*
X518224D01*
X516724Y318500D02*
Y321500D01*
X505224Y320000D02*
X508224D01*
X506724Y318500D02*
Y321500D01*
X495224Y320000D02*
X498224D01*
X496724Y318500D02*
Y321500D01*
X334953Y320000D02*
X338496D01*
X336724Y318228D02*
Y321772D01*
X344953Y320000D02*
X348496D01*
X346724Y318228D02*
Y321772D01*
X354953Y320000D02*
X358496D01*
X356724Y318228D02*
Y321772D01*
X364953Y320000D02*
X368496D01*
X366724Y318228D02*
Y321772D01*
X374953Y320000D02*
X378496D01*
X376724Y318228D02*
Y321772D01*
X384953Y320000D02*
X388496D01*
X386724Y318228D02*
Y321772D01*
X394953Y320000D02*
X398496D01*
X396724Y318228D02*
Y321772D01*
X404953Y320000D02*
X408496D01*
X406724Y318228D02*
Y321772D01*
X414953Y320000D02*
X418496D01*
X416724Y318228D02*
Y321772D01*
X424953Y320000D02*
X428496D01*
X426724Y318228D02*
Y321772D01*
X434953Y320000D02*
X438496D01*
X436724Y318228D02*
Y321772D01*
X444953Y320000D02*
X448496D01*
X446724Y318228D02*
Y321772D01*
X454953Y320000D02*
X458496D01*
X456724Y318228D02*
Y321772D01*
X464953Y320000D02*
X468496D01*
X466724Y318228D02*
Y321772D01*
X474953Y320000D02*
X478496D01*
X476724Y318228D02*
Y321772D01*
X484953Y320000D02*
X488496D01*
X486724Y318228D02*
Y321772D01*
X349815Y386872D02*
X352374D01*
X351095Y385593D02*
Y388152D01*
X349815Y409628D02*
X352374D01*
X351095Y408348D02*
Y410908D01*
X334362Y381242D02*
X339087D01*
X336724Y378880D02*
Y383604D01*
X334362Y415258D02*
X339087D01*
X336724Y412896D02*
Y417620D01*
X349835Y381242D02*
X356528D01*
X353181Y377896D02*
Y384589D01*
X349835Y415258D02*
X356528D01*
X353181Y411911D02*
Y418604D01*
X349815Y340372D02*
X352374D01*
X351095Y339092D02*
Y341652D01*
X349815Y363128D02*
X352374D01*
X351095Y361848D02*
Y364407D01*
X334362Y334742D02*
X339087D01*
X336724Y332380D02*
Y337104D01*
X334362Y368758D02*
X339087D01*
X336724Y366396D02*
Y371120D01*
X349835Y334742D02*
X356528D01*
X353181Y331396D02*
Y338089D01*
X349835Y368758D02*
X356528D01*
X353181Y365411D02*
Y372104D01*
X430600Y337500D02*
X431400D01*
X431000Y337100D02*
Y337900D01*
X425749Y344895D02*
X426549D01*
X426149Y344495D02*
Y345294D01*
X425749Y347738D02*
X426549D01*
X426149Y347338D02*
Y348138D01*
X401100Y363000D02*
X401900D01*
X401500Y362600D02*
Y363400D01*
X399600Y342000D02*
X400400D01*
X400000Y341600D02*
Y342400D01*
X381600Y345500D02*
X382400D01*
X382000Y345100D02*
Y345900D01*
X406600Y336000D02*
X407400D01*
X407000Y335600D02*
Y336400D01*
X402165Y355608D02*
X402965D01*
X402565Y355208D02*
Y356008D01*
X387100Y342500D02*
X387900D01*
X387500Y342100D02*
Y342900D01*
X402100Y346000D02*
X402900D01*
X402500Y345600D02*
Y346400D01*
X465882Y383028D02*
X466682D01*
X466283Y382628D02*
Y383428D01*
X409054Y402079D02*
X409854D01*
X409454Y401679D02*
Y402479D01*
X576569Y362524D02*
X577368D01*
X576968Y362124D02*
Y362924D01*
X568600Y362547D02*
X569400D01*
X569000Y362147D02*
Y362947D01*
X584100Y362547D02*
X584900D01*
X584500Y362147D02*
Y362947D01*
X584100Y340500D02*
X584900D01*
X584500Y340100D02*
Y340900D01*
X568600Y340500D02*
X569400D01*
X569000Y340100D02*
Y340900D01*
X576569Y340476D02*
X577368D01*
X576968Y340076D02*
Y340876D01*
X329100Y396500D02*
X329900D01*
X329500Y396100D02*
Y396900D01*
X329100Y401500D02*
X329900D01*
X329500Y401100D02*
Y401900D01*
X331600Y399000D02*
X332400D01*
X332000Y398600D02*
Y399400D01*
X331600Y404000D02*
X332400D01*
X332000Y403600D02*
Y404400D01*
X329100Y406500D02*
X329900D01*
X329500Y406100D02*
Y406900D01*
X329100Y411500D02*
X329900D01*
X329500Y411100D02*
Y411900D01*
X331600Y409000D02*
X332400D01*
X332000Y408600D02*
Y409400D01*
X331600Y394000D02*
X332400D01*
X332000Y393600D02*
Y394400D01*
X331600Y389000D02*
X332400D01*
X332000Y388600D02*
Y389400D01*
X329100Y391500D02*
X329900D01*
X329500Y391100D02*
Y391900D01*
X329100Y386500D02*
X329900D01*
X329500Y386100D02*
Y386900D01*
X329100Y340000D02*
X329900D01*
X329500Y339600D02*
Y340400D01*
X329100Y345000D02*
X329900D01*
X329500Y344600D02*
Y345400D01*
X331600Y342500D02*
X332400D01*
X332000Y342100D02*
Y342900D01*
X331600Y347500D02*
X332400D01*
X332000Y347100D02*
Y347900D01*
X331600Y362500D02*
X332400D01*
X332000Y362100D02*
Y362900D01*
X329100Y365000D02*
X329900D01*
X329500Y364600D02*
Y365400D01*
X329100Y360000D02*
X329900D01*
X329500Y359600D02*
Y360400D01*
X331600Y357500D02*
X332400D01*
X332000Y357100D02*
Y357900D01*
X331600Y352500D02*
X332400D01*
X332000Y352100D02*
Y352900D01*
X329100Y355000D02*
X329900D01*
X329500Y354600D02*
Y355400D01*
X329100Y350000D02*
X329900D01*
X329500Y349600D02*
Y350400D01*
X437100Y406000D02*
X437900D01*
X437500Y405600D02*
Y406400D01*
X452100Y422000D02*
X452900D01*
X452500Y421600D02*
Y422400D01*
X421600Y422000D02*
X422400D01*
X422000Y421600D02*
Y422400D01*
X385600Y404000D02*
X386400D01*
X386000Y403600D02*
Y404400D01*
X390981Y398429D02*
X391781D01*
X391381Y398029D02*
Y398829D01*
X484100Y399500D02*
X484900D01*
X484500Y399100D02*
Y399900D01*
X480600Y399500D02*
X481400D01*
X481000Y399100D02*
Y399900D01*
X477100Y399500D02*
X477900D01*
X477500Y399100D02*
Y399900D01*
X502800Y344079D02*
X503600D01*
X503200Y343679D02*
Y344479D01*
X510600Y339500D02*
X511400D01*
X511000Y339100D02*
Y339900D01*
X516100Y352000D02*
X516900D01*
X516500Y351600D02*
Y352400D01*
X494600Y367000D02*
X495400D01*
X495000Y366600D02*
Y367400D01*
X488100Y363500D02*
X488900D01*
X488500Y363100D02*
Y363900D01*
X500600Y368500D02*
X501400D01*
X501000Y368100D02*
Y368900D01*
X500600Y375000D02*
X501400D01*
X501000Y374600D02*
Y375400D01*
X500600Y380500D02*
X501400D01*
X501000Y380100D02*
Y380900D01*
X500600Y384500D02*
X501400D01*
X501000Y384100D02*
Y384900D01*
X487600Y385500D02*
X488400D01*
X488000Y385100D02*
Y385900D01*
X492100Y381000D02*
X492900D01*
X492500Y380600D02*
Y381400D01*
X487600Y374500D02*
X488400D01*
X488000Y374100D02*
Y374900D01*
X492600Y375000D02*
X493400D01*
X493000Y374600D02*
Y375400D01*
X455100Y380477D02*
X455900D01*
X455500Y380077D02*
Y380877D01*
X425600Y353000D02*
X426400D01*
X426000Y352600D02*
Y353400D01*
X425600Y357500D02*
X426400D01*
X426000Y357100D02*
Y357900D01*
X421600Y350500D02*
X422400D01*
X422000Y350100D02*
Y350900D01*
X417600Y350500D02*
X418400D01*
X418000Y350100D02*
Y350900D01*
X421600Y355000D02*
X422400D01*
X422000Y354600D02*
Y355400D01*
X417600Y355000D02*
X418400D01*
X418000Y354600D02*
Y355400D01*
X436600Y385500D02*
X437400D01*
X437000Y385100D02*
Y385900D01*
X413010Y369883D02*
X413810D01*
X413410Y369483D02*
Y370283D01*
X370266Y393520D02*
X371066D01*
X370666Y393120D02*
Y393920D01*
X376741Y398200D02*
X377540D01*
X377140Y397800D02*
Y398600D01*
X368798Y404567D02*
X369598D01*
X369198Y404167D02*
Y404967D01*
X375100Y411500D02*
X375900D01*
X375500Y411100D02*
Y411900D01*
X397393Y415602D02*
X398193D01*
X397793Y415202D02*
Y416002D01*
X395100Y409500D02*
X395900D01*
X395500Y409100D02*
Y409900D01*
X397544Y406281D02*
X398344D01*
X397944Y405880D02*
Y406680D01*
X367100Y378500D02*
X367900D01*
X367500Y378100D02*
Y378900D01*
X409049Y399574D02*
X409849D01*
X409449Y399174D02*
Y399974D01*
X378292Y412617D02*
X379092D01*
X378692Y412217D02*
Y413017D01*
X375100Y413500D02*
X375900D01*
X375500Y413100D02*
Y413900D01*
X494104Y350996D02*
X494904D01*
X494504Y350596D02*
Y351396D01*
X496103Y336002D02*
X496903D01*
X496502Y335602D02*
Y336402D01*
X496100Y339500D02*
X496900D01*
X496500Y339100D02*
Y339900D01*
X490600Y354496D02*
X491400D01*
X491000Y354096D02*
Y354896D01*
X490602Y350998D02*
X491402D01*
X491002Y350598D02*
Y351398D01*
X487102Y354498D02*
X487902D01*
X487502Y354098D02*
Y354898D01*
X487100Y351000D02*
X487900D01*
X487500Y350600D02*
Y351400D01*
X483600Y354500D02*
X484400D01*
X484000Y354100D02*
Y354900D01*
X494106Y354493D02*
X494907D01*
X494507Y354094D02*
Y354893D01*
X489100Y346000D02*
X489900D01*
X489500Y345600D02*
Y346400D01*
X515024Y391402D02*
X515824D01*
X515424Y391002D02*
Y391802D01*
X532477Y371954D02*
X533277D01*
X532877Y371554D02*
Y372355D01*
X527524Y371902D02*
X528324D01*
X527924Y371502D02*
Y372302D01*
X530024Y374402D02*
X530824D01*
X530424Y374002D02*
Y374802D01*
X521600Y368000D02*
X522400D01*
X522000Y367600D02*
Y368400D01*
X525024Y374402D02*
X525824D01*
X525424Y374002D02*
Y374802D01*
X359100Y336000D02*
X359900D01*
X359500Y335600D02*
Y336400D01*
X361600Y336000D02*
X362400D01*
X362000Y335600D02*
Y336400D01*
X361600Y341000D02*
X362400D01*
X362000Y340600D02*
Y341400D01*
X359100Y367500D02*
X359900D01*
X359500Y367100D02*
Y367900D01*
X361600Y367500D02*
X362400D01*
X362000Y367100D02*
Y367900D01*
X361600Y362500D02*
X362400D01*
X362000Y362100D02*
Y362900D01*
X359100Y381500D02*
X359900D01*
X359500Y381100D02*
Y381900D01*
X361600Y381500D02*
X362400D01*
X362000Y381100D02*
Y381900D01*
X361600Y384000D02*
X362400D01*
X362000Y383600D02*
Y384400D01*
X361600Y386500D02*
X362400D01*
X362000Y386100D02*
Y386900D01*
X361600Y389000D02*
X362400D01*
X362000Y388600D02*
Y389400D01*
X361600Y412500D02*
X362400D01*
X362000Y412100D02*
Y412900D01*
X359100Y415000D02*
X359900D01*
X359500Y414600D02*
Y415400D01*
X361600Y415000D02*
X362400D01*
X362000Y414600D02*
Y415400D01*
X395600Y352500D02*
X396400D01*
X396000Y352100D02*
Y352900D01*
X398600Y352500D02*
X399400D01*
X399000Y352100D02*
Y352900D01*
X466100Y416000D02*
X466900D01*
X466500Y415600D02*
Y416400D01*
X466600Y410500D02*
X467400D01*
X467000Y410100D02*
Y410900D01*
X500100Y395500D02*
X500900D01*
X500500Y395100D02*
Y395900D01*
X469100Y346000D02*
X469900D01*
X469500Y345600D02*
Y346400D01*
X477250Y350000D02*
X478050D01*
X477650Y349600D02*
Y350400D01*
X490100Y339500D02*
X490900D01*
X490500Y339100D02*
Y339900D01*
X479100Y340000D02*
X479900D01*
X479500Y339600D02*
Y340400D01*
X462100Y340000D02*
X462900D01*
X462500Y339600D02*
Y340400D01*
X514600Y373500D02*
X515400D01*
X515000Y373100D02*
Y373900D01*
X523600Y365500D02*
X524400D01*
X524000Y365100D02*
Y365900D01*
X419100Y371500D02*
X419900D01*
X419500Y371100D02*
Y371900D01*
X400625Y417382D02*
X401425D01*
X401025Y416982D02*
Y417782D01*
X407140Y417294D02*
X407940D01*
X407541Y416894D02*
Y417694D01*
X441100Y373000D02*
X441900D01*
X441500Y372600D02*
Y373400D01*
X437100Y373000D02*
X437900D01*
X437500Y372600D02*
Y373400D01*
X441600Y403500D02*
X442400D01*
X442000Y403100D02*
Y403900D01*
X496600Y395500D02*
X497400D01*
X497000Y395100D02*
Y395900D01*
X430600Y334500D02*
X431400D01*
X431000Y334100D02*
Y334900D01*
X466100Y359000D02*
X466900D01*
X466500Y358600D02*
Y359400D01*
X466100Y376500D02*
X466900D01*
X466500Y376100D02*
Y376900D01*
X506600Y339500D02*
X507400D01*
X507000Y339100D02*
Y339900D01*
X425100Y362000D02*
X425900D01*
X425500Y361600D02*
Y362400D01*
X458600Y356500D02*
X459400D01*
X459000Y356100D02*
Y356900D01*
X458600Y374000D02*
X459400D01*
X459000Y373600D02*
Y374400D01*
X462600Y362500D02*
X463400D01*
X463000Y362100D02*
Y362900D01*
X466100Y362500D02*
X466900D01*
X466500Y362100D02*
Y362900D01*
X462600Y366000D02*
X463400D01*
X463000Y365600D02*
Y366400D01*
X466100Y366000D02*
X466900D01*
X466500Y365600D02*
Y366400D01*
X466100Y373000D02*
X466900D01*
X466500Y372600D02*
Y373400D01*
X462600Y373000D02*
X463400D01*
X463000Y372600D02*
Y373400D01*
X466100Y369500D02*
X466900D01*
X466500Y369100D02*
Y369900D01*
X462600Y376500D02*
X463400D01*
X463000Y376100D02*
Y376900D01*
X462600Y369500D02*
X463400D01*
X463000Y369100D02*
Y369900D01*
X464350Y346271D02*
X465150D01*
X464750Y345871D02*
Y346671D01*
X493100Y399000D02*
X493900D01*
X493500Y398600D02*
Y399400D01*
X496600Y399000D02*
X497400D01*
X497000Y398600D02*
Y399400D01*
X500100Y399000D02*
X500900D01*
X500500Y398600D02*
Y399400D01*
X480600Y396000D02*
X481400D01*
X481000Y395600D02*
Y396400D01*
X484100Y396000D02*
X484900D01*
X484500Y395600D02*
Y396400D01*
X477100Y396000D02*
X477900D01*
X477500Y395600D02*
Y396400D01*
X458600Y402700D02*
X459400D01*
X459000Y402300D02*
Y403100D01*
X443545Y374829D02*
X444345D01*
X443945Y374429D02*
Y375229D01*
X437100Y377000D02*
X437900D01*
X437500Y376600D02*
Y377400D01*
X446100Y399000D02*
X446900D01*
X446500Y398600D02*
Y399400D01*
X446100Y403500D02*
X446900D01*
X446500Y403100D02*
Y403900D01*
X511100Y366500D02*
X511900D01*
X511500Y366100D02*
Y366900D01*
X511100Y370000D02*
X511900D01*
X511500Y369600D02*
Y370400D01*
X483600Y351000D02*
X484400D01*
X484000Y350600D02*
Y351400D01*
X458600Y415000D02*
X459400D01*
X459000Y414600D02*
Y415400D01*
X456100Y409500D02*
X456900D01*
X456500Y409100D02*
Y409900D01*
X514600Y359500D02*
X515400D01*
X515000Y359100D02*
Y359900D01*
X511100Y359500D02*
X511900D01*
X511500Y359100D02*
Y359900D01*
X514600Y363000D02*
X515400D01*
X515000Y362600D02*
Y363400D01*
X511100Y363000D02*
X511900D01*
X511500Y362600D02*
Y363400D01*
X510100Y380500D02*
X510900D01*
X510500Y380100D02*
Y380900D01*
X511100Y377000D02*
X511900D01*
X511500Y376600D02*
Y377400D01*
X518100Y368000D02*
X518900D01*
X518500Y367600D02*
Y368400D01*
X514600Y370000D02*
X515400D01*
X515000Y369600D02*
Y370400D01*
X514600Y366500D02*
X515400D01*
X515000Y366100D02*
Y366900D01*
X511100Y373500D02*
X511900D01*
X511500Y373100D02*
Y373900D01*
X514600Y377000D02*
X515400D01*
X515000Y376600D02*
Y377400D01*
X456100Y384000D02*
X456900D01*
X456500Y383600D02*
Y384400D01*
X381600Y351500D02*
X382400D01*
X382000Y351100D02*
Y351900D01*
X381600Y354000D02*
X382400D01*
X382000Y353600D02*
Y354400D01*
X421600Y337000D02*
X422400D01*
X422000Y336600D02*
Y337400D01*
X421600Y341500D02*
X422400D01*
X422000Y341100D02*
Y341900D01*
X447100Y340000D02*
X447900D01*
X447500Y339600D02*
Y340400D01*
X421100Y364000D02*
X421900D01*
X421500Y363600D02*
Y364400D01*
X361600Y338500D02*
X362400D01*
X362000Y338100D02*
Y338900D01*
X369600Y338500D02*
X370400D01*
X370000Y338100D02*
Y338900D01*
X369600Y343000D02*
X370400D01*
X370000Y342600D02*
Y343400D01*
X369600Y346000D02*
X370400D01*
X370000Y345600D02*
Y346400D01*
X369600Y360500D02*
X370400D01*
X370000Y360100D02*
Y360900D01*
X361600Y365000D02*
X362400D01*
X362000Y364600D02*
Y365400D01*
X369600Y365000D02*
X370400D01*
X370000Y364600D02*
Y365400D01*
X405354Y384095D02*
X406154D01*
X405754Y383695D02*
Y384495D01*
X379520Y399350D02*
X380320D01*
X379920Y398950D02*
Y399750D01*
X376744Y395137D02*
X377544D01*
X377144Y394737D02*
Y395537D01*
X375178Y390343D02*
X375978D01*
X375578Y389944D02*
Y390743D01*
X395100Y404500D02*
X395900D01*
X395500Y404100D02*
Y404900D01*
X395100Y407000D02*
X395900D01*
X395500Y406600D02*
Y407400D01*
X397418Y375970D02*
X398218D01*
X397818Y375570D02*
Y376370D01*
X400600Y377787D02*
X401400D01*
X401000Y377387D02*
Y378187D01*
X400507Y398120D02*
X401307D01*
X400907Y397720D02*
Y398520D01*
X402809Y400703D02*
X403609D01*
X403209Y400304D02*
Y401103D01*
X400572Y404719D02*
X401372D01*
X400972Y404319D02*
Y405119D01*
X378336Y417353D02*
X379136D01*
X378736Y416954D02*
Y417754D01*
X370078Y396945D02*
X370878D01*
X370478Y396545D02*
Y397345D01*
X370078Y399445D02*
X370878D01*
X370478Y399045D02*
Y399845D01*
X466600Y340000D02*
X467400D01*
X467000Y339600D02*
Y340400D01*
X486600Y410000D02*
X487400D01*
X487000Y409600D02*
Y410400D01*
X470600Y410500D02*
X471400D01*
X471000Y410100D02*
Y410900D01*
X475100Y413000D02*
X475900D01*
X475500Y412600D02*
Y413400D01*
X514600Y401500D02*
X515400D01*
X515000Y401100D02*
Y401900D01*
X512143Y407197D02*
X512943D01*
X512543Y406797D02*
Y407597D01*
X496371Y403851D02*
X497171D01*
X496771Y403451D02*
Y404251D01*
X511100Y404000D02*
X511900D01*
X511500Y403600D02*
Y404400D01*
X509100Y412000D02*
X509900D01*
X509500Y411600D02*
Y412400D01*
X498600Y412000D02*
X499400D01*
X499000Y411600D02*
Y412400D01*
X503734Y406312D02*
X504534D01*
X504134Y405912D02*
Y406712D01*
X537477Y376955D02*
X538277D01*
X537877Y376554D02*
Y377355D01*
X522524Y376902D02*
X523324D01*
X522924Y376502D02*
Y377302D01*
X527524Y376902D02*
X528324D01*
X527924Y376502D02*
Y377302D01*
X512600Y387900D02*
X513400D01*
X513000Y387500D02*
Y388300D01*
X517524Y388902D02*
X518324D01*
X517924Y388502D02*
Y389302D01*
X522524Y388902D02*
X523324D01*
X522924Y388502D02*
Y389302D01*
X527524Y388902D02*
X528324D01*
X527924Y388502D02*
Y389302D01*
X532524Y388902D02*
X533324D01*
X532924Y388502D02*
Y389302D01*
X547600Y383000D02*
X548400D01*
X548000Y382600D02*
Y383400D01*
X547477Y356955D02*
X548277D01*
X547877Y356555D02*
Y357354D01*
X547477Y361954D02*
X548277D01*
X547877Y361555D02*
Y362354D01*
X547477Y366954D02*
X548277D01*
X547877Y366554D02*
Y367354D01*
X547477Y371954D02*
X548277D01*
X547877Y371554D02*
Y372355D01*
X547477Y376955D02*
X548277D01*
X547877Y376554D02*
Y377355D01*
X547524Y388902D02*
X548324D01*
X547924Y388502D02*
Y389302D01*
X547524Y393902D02*
X548324D01*
X547924Y393502D02*
Y394302D01*
X547524Y398902D02*
X548324D01*
X547924Y398502D02*
Y399302D01*
X559977Y344455D02*
X560777D01*
X560377Y344055D02*
Y344854D01*
X557477Y341954D02*
X558277D01*
X557877Y341554D02*
Y342354D01*
X554977Y344455D02*
X555777D01*
X555377Y344055D02*
Y344854D01*
X552477Y346954D02*
X553277D01*
X552877Y346554D02*
Y347355D01*
X552477Y341954D02*
X553277D01*
X552877Y341554D02*
Y342354D01*
X547477Y341954D02*
X548277D01*
X547877Y341554D02*
Y342354D01*
X549977Y344455D02*
X550777D01*
X550377Y344055D02*
Y344854D01*
X547477Y346954D02*
X548277D01*
X547877Y346554D02*
Y347355D01*
X544977Y344455D02*
X545777D01*
X545377Y344055D02*
Y344854D01*
X542477Y341954D02*
X543277D01*
X542877Y341554D02*
Y342354D01*
X539977Y344455D02*
X540777D01*
X540377Y344055D02*
Y344854D01*
X537477Y346954D02*
X538277D01*
X537877Y346554D02*
Y347355D01*
X559524Y411402D02*
X560324D01*
X559924Y411002D02*
Y411802D01*
X557024Y413902D02*
X557824D01*
X557424Y413502D02*
Y414302D01*
X554524Y411402D02*
X555324D01*
X554924Y411002D02*
Y411802D01*
X552024Y413902D02*
X552824D01*
X552424Y413502D02*
Y414302D01*
X547024Y408902D02*
X547824D01*
X547424Y408502D02*
Y409302D01*
X552024Y408902D02*
X552824D01*
X552424Y408502D02*
Y409302D01*
X549524Y411402D02*
X550324D01*
X549924Y411002D02*
Y411802D01*
X547024Y413902D02*
X547824D01*
X547424Y413502D02*
Y414302D01*
X544524Y411402D02*
X545324D01*
X544924Y411002D02*
Y411802D01*
X542024Y413902D02*
X542824D01*
X542424Y413502D02*
Y414302D01*
X539524Y411402D02*
X540324D01*
X539924Y411002D02*
Y411802D01*
X537024Y408902D02*
X537824D01*
X537424Y408502D02*
Y409302D01*
X535024Y406402D02*
X535824D01*
X535424Y406002D02*
Y406802D01*
X537524Y403902D02*
X538324D01*
X537924Y403502D02*
Y404302D01*
X535024Y401402D02*
X535824D01*
X535424Y401002D02*
Y401802D01*
X535024Y396402D02*
X535824D01*
X535424Y396002D02*
Y396802D01*
X537524Y398902D02*
X538324D01*
X537924Y398502D02*
Y399302D01*
X537524Y393902D02*
X538324D01*
X537924Y393502D02*
Y394302D01*
X535024Y391402D02*
X535824D01*
X535424Y391002D02*
Y391802D01*
X537524Y388902D02*
X538324D01*
X537924Y388502D02*
Y389302D01*
X539977Y349454D02*
X540777D01*
X540377Y349055D02*
Y349854D01*
X534977Y349454D02*
X535777D01*
X535377Y349055D02*
Y349854D01*
X534977Y354454D02*
X535777D01*
X535377Y354054D02*
Y354854D01*
X537477Y351955D02*
X538277D01*
X537877Y351554D02*
Y352355D01*
X537477Y356955D02*
X538277D01*
X537877Y356555D02*
Y357354D01*
X534977Y359454D02*
X535777D01*
X535377Y359054D02*
Y359855D01*
X534977Y364455D02*
X535777D01*
X535377Y364054D02*
Y364855D01*
X537477Y366954D02*
X538277D01*
X537877Y366554D02*
Y367354D01*
X537477Y361954D02*
X538277D01*
X537877Y361555D02*
Y362354D01*
X534977Y369455D02*
X535777D01*
X535377Y369055D02*
Y369854D01*
X534977Y374454D02*
X535777D01*
X535377Y374055D02*
Y374854D01*
X537477Y371954D02*
X538277D01*
X537877Y371554D02*
Y372355D01*
X550024Y401402D02*
X550824D01*
X550424Y401002D02*
Y401802D01*
X539524Y406402D02*
X540324D01*
X539924Y406002D02*
Y406802D01*
X525024Y379402D02*
X525824D01*
X525424Y379002D02*
Y379802D01*
X554977Y354454D02*
X555777D01*
X555377Y354054D02*
Y354854D01*
X549977Y354454D02*
X550777D01*
X550377Y354054D02*
Y354854D01*
X534977Y379454D02*
X535777D01*
X535377Y379054D02*
Y379854D01*
X520024Y386402D02*
X520824D01*
X520424Y386002D02*
Y386802D01*
X525024Y386402D02*
X525824D01*
X525424Y386002D02*
Y386802D01*
X530024Y386402D02*
X530824D01*
X530424Y386002D02*
Y386802D01*
X535024Y386402D02*
X535824D01*
X535424Y386002D02*
Y386802D01*
X540024Y401402D02*
X540824D01*
X540424Y401002D02*
Y401802D01*
X545024Y401402D02*
X545824D01*
X545424Y401002D02*
Y401802D01*
X540024Y396402D02*
X540824D01*
X540424Y396002D02*
Y396802D01*
X545024Y396402D02*
X545824D01*
X545424Y396002D02*
Y396802D01*
X545024Y391402D02*
X545824D01*
X545424Y391002D02*
Y391802D01*
X540024Y391402D02*
X540824D01*
X540424Y391002D02*
Y391802D01*
X545024Y386402D02*
X545824D01*
X545424Y386002D02*
Y386802D01*
X540024Y386402D02*
X540824D01*
X540424Y386002D02*
Y386802D01*
X544977Y379454D02*
X545777D01*
X545377Y379054D02*
Y379854D01*
X539977Y379454D02*
X540777D01*
X540377Y379054D02*
Y379854D01*
X544977Y374454D02*
X545777D01*
X545377Y374055D02*
Y374854D01*
X539977Y374454D02*
X540777D01*
X540377Y374055D02*
Y374854D01*
X539977Y369455D02*
X540777D01*
X540377Y369055D02*
Y369854D01*
X544977Y369455D02*
X545777D01*
X545377Y369055D02*
Y369854D01*
X544977Y354454D02*
X545777D01*
X545377Y354054D02*
Y354854D01*
X539977Y354454D02*
X540777D01*
X540377Y354054D02*
Y354854D01*
X539977Y359454D02*
X540777D01*
X540377Y359054D02*
Y359855D01*
X539977Y364455D02*
X540777D01*
X540377Y364054D02*
Y364855D01*
X544977Y359454D02*
X545777D01*
X545377Y359054D02*
Y359855D01*
X544977Y364455D02*
X545777D01*
X545377Y364054D02*
Y364855D01*
X515100Y385400D02*
X515900D01*
X515500Y385000D02*
Y385800D01*
X515100Y380400D02*
X515900D01*
X515500Y380000D02*
Y380800D01*
X510100Y385400D02*
X510900D01*
X510500Y385000D02*
Y385800D01*
X531775Y376792D02*
X532575D01*
X532175Y376392D02*
Y377192D01*
X518375Y376792D02*
X519175D01*
X518775Y376392D02*
Y377192D01*
M02*
